Aikya-Light.ufo
<glyph name="Danda" format="1">
  <advance width="230"/>
  <outline>
    <contour>
      <point x="190" y="491" type="line"/>
      <point x="190" y="-20" type="line"/>
      <point x="150" y="-20" type="line"/>
      <point x="150" y="491" type="line"/>
    </contour>
  </outline>
</glyph>
<glyph name="DoubleDanda" format="1">
  <advance width="370"/>
  <outline>
    <contour>
      <point x="190" y="491" type="line"/>
      <point x="190" y="-20" type="line"/>
      <point x="150" y="-20" type="line"/>
      <point x="150" y="491" type="line"/>
    </contour>
    <contour>
      <point x="316" y="491" type="line"/>
      <point x="316" y="-20" type="line"/>
      <point x="276" y="-20" type="line"/>
      <point x="276" y="491" type="line"/>
    </contour>
  </outline>
</glyph>
<glyph name="ZWJ" format="1">
  <advance width="0"/>
  <outline>
    <contour>
      <point x="0" y="748" type="line"/>
      <point x="212" y="748" type="line"/>
      <point x="212" y="713" type="line"/>
      <point x="40" y="713" type="line"/>
      <point x="40" y="-243" type="line"/>
      <point x="0" y="-243" type="line"/>
    </contour>
  </outline>
</glyph>
<glyph name="bAa" format="1">
  <advance width="743"/>
  <outline>
    <contour>
      <point x="338" y="97"/>
      <point x="396" y="165"/>
      <point x="396" y="252" type="curve"/>
      <point x="396" y="347"/>
      <point x="323" y="418"/>
      <point x="242" y="418" type="curve" smooth="yes"/>
      <point x="191" y="418"/>
      <point x="154" y="389"/>
      <point x="154" y="347" type="curve" smooth="yes"/>
      <point x="154" y="309"/>
      <point x="183" y="280"/>
      <point x="220" y="280" type="curve" smooth="yes"/>
      <point x="256" y="280"/>
      <point x="286" y="307"/>
      <point x="286" y="346" type="curve" smooth="yes"/>
      <point x="286" y="365"/>
      <point x="279" y="380"/>
      <point x="268" y="391" type="curve"/>
      <point x="250" y="372" type="line"/>
      <point x="258" y="374"/>
      <point x="266" y="375"/>
      <point x="274" y="375" type="curve" smooth="yes"/>
      <point x="322" y="375"/>
      <point x="362" y="333"/>
      <point x="362" y="273" type="curve" smooth="yes"/>
      <point x="362" y="204"/>
      <point x="310" y="155"/>
      <point x="240" y="155" type="curve" smooth="yes"/>
      <point x="153" y="155"/>
      <point x="92" y="231"/>
      <point x="30" y="411" type="curve"/>
      <point x="7" y="402" type="line"/>
      <point x="73" y="200"/>
      <point x="152" y="97"/>
      <point x="254" y="97" type="curve" smooth="yes"/>
    </contour>
    <contour>
      <point x="506" y="0" type="line"/>
      <point x="506" y="466" type="line"/>
      <point x="466" y="466" type="line"/>
      <point x="466" y="107" type="line"/>
      <point x="475" y="110" type="line"/>
      <point x="454" y="173"/>
      <point x="413" y="229"/>
      <point x="381" y="259" type="curve"/>
      <point x="370" y="207" type="line"/>
      <point x="424" y="174"/>
      <point x="470" y="98"/>
      <point x="481" y="0" type="curve"/>
    </contour>
    <contour>
      <point x="556" y="456" type="line"/>
      <point x="556" y="491" type="line"/>
      <point x="-10" y="491" type="line"/>
      <point x="-10" y="456" type="line"/>
    </contour>
    <contour>
      <point x="673" y="0" type="line"/>
      <point x="673" y="456" type="line"/>
      <point x="753" y="456" type="line"/>
      <point x="753" y="491" type="line"/>
      <point x="633" y="491" type="line"/>
      <point x="633" y="389" type="line"/>
      <point x="648" y="384" type="line"/>
      <point x="637" y="451"/>
      <point x="604" y="491"/>
      <point x="571" y="491" type="curve" smooth="yes"/>
      <point x="551" y="491" type="line"/>
      <point x="551" y="456" type="line"/>
      <point x="567" y="456" type="line" smooth="yes"/>
      <point x="603" y="456"/>
      <point x="633" y="415"/>
      <point x="633" y="366" type="curve" smooth="yes"/>
      <point x="633" y="0" type="line"/>
    </contour>
  </outline>
</glyph>
<glyph name="bBDRa" format="1">
  <advance width="591"/>
  <outline>
    <contour>
      <point x="521" y="-16" type="line"/>
      <point x="507" y="51"/>
      <point x="500" y="119"/>
      <point x="500" y="161" type="curve" smooth="yes"/>
      <point x="500" y="234"/>
      <point x="521" y="290"/>
      <point x="571" y="350" type="curve"/>
      <point x="514" y="406" type="line"/>
      <point x="425" y="371"/>
      <point x="349" y="296"/>
      <point x="302" y="211" type="curve"/>
      <point x="313" y="195" type="line"/>
      <point x="313" y="467" type="line"/>
      <point x="273" y="467" type="line"/>
      <point x="273" y="174" type="line"/>
      <point x="320" y="137" type="line"/>
      <point x="370" y="232"/>
      <point x="431" y="299"/>
      <point x="496" y="335" type="curve"/>
      <point x="505" y="357" type="line"/>
      <point x="480" y="322"/>
      <point x="463" y="262"/>
      <point x="463" y="189" type="curve" smooth="yes"/>
      <point x="463" y="145"/>
      <point x="469" y="85"/>
      <point x="482" y="23" type="curve"/>
      <point x="497" y="16" type="line"/>
      <point x="475" y="71"/>
      <point x="425" y="93"/>
      <point x="366" y="93" type="curve" smooth="yes"/>
      <point x="324" y="93"/>
      <point x="222" y="82"/>
      <point x="175" y="82" type="curve" smooth="yes"/>
      <point x="109" y="82"/>
      <point x="76" y="103"/>
      <point x="76" y="149" type="curve" smooth="yes"/>
      <point x="76" y="166"/>
      <point x="81" y="183"/>
      <point x="87" y="200" type="curve"/>
      <point x="65" y="209" type="line"/>
      <point x="56" y="190"/>
      <point x="50" y="168"/>
      <point x="50" y="146" type="curve" smooth="yes"/>
      <point x="50" y="80"/>
      <point x="109" y="27"/>
      <point x="197" y="27" type="curve" smooth="yes"/>
      <point x="245" y="27"/>
      <point x="376" y="43"/>
      <point x="415" y="43" type="curve" smooth="yes"/>
      <point x="466" y="43"/>
      <point x="488" y="16"/>
      <point x="497" y="-21" type="curve"/>
    </contour>
    <contour>
      <point x="284" y="195" type="line"/>
      <point x="247" y="257"/>
      <point x="171" y="305"/>
      <point x="89" y="322" type="curve"/>
      <point x="94" y="296" type="line"/>
      <point x="153" y="339"/>
      <point x="227" y="370"/>
      <point x="293" y="387" type="curve"/>
      <point x="282" y="434" type="line"/>
      <point x="215" y="420"/>
      <point x="126" y="381"/>
      <point x="43" y="324" type="curve"/>
      <point x="85" y="272" type="line"/>
      <point x="167" y="264"/>
      <point x="237" y="230"/>
      <point x="273" y="174" type="curve"/>
    </contour>
    <contour>
      <point x="507" y="456" type="line"/>
      <point x="507" y="491" type="line"/>
      <point x="-10" y="491" type="line"/>
      <point x="-10" y="456" type="line"/>
    </contour>
    <contour>
      <point x="601" y="456" type="line"/>
      <point x="601" y="491" type="line"/>
      <point x="223" y="491" type="line"/>
      <point x="223" y="456" type="line"/>
    </contour>
  </outline>
</glyph>
<glyph name="bBDa" format="1">
  <advance width="554"/>
  <outline>
    <contour>
      <point x="477" y="-15" type="line"/>
      <point x="467" y="44"/>
      <point x="462" y="103"/>
      <point x="462" y="140" type="curve" smooth="yes"/>
      <point x="462" y="216"/>
      <point x="483" y="277"/>
      <point x="534" y="340" type="curve"/>
      <point x="477" y="396" type="line"/>
      <point x="388" y="359"/>
      <point x="312" y="281"/>
      <point x="265" y="191" type="curve"/>
      <point x="276" y="180" type="line"/>
      <point x="276" y="467" type="line"/>
      <point x="236" y="467" type="line"/>
      <point x="236" y="159" type="line"/>
      <point x="283" y="108" type="line"/>
      <point x="339" y="223"/>
      <point x="397" y="294"/>
      <point x="479" y="335" type="curve"/>
      <point x="468" y="347" type="line"/>
      <point x="442" y="310"/>
      <point x="425" y="245"/>
      <point x="425" y="171" type="curve" smooth="yes"/>
      <point x="425" y="117"/>
      <point x="434" y="49"/>
      <point x="451" y="-20" type="curve"/>
    </contour>
    <contour>
      <point x="247" y="180" type="line"/>
      <point x="210" y="247"/>
      <point x="134" y="299"/>
      <point x="52" y="317" type="curve"/>
      <point x="57" y="291" type="line"/>
      <point x="116" y="336"/>
      <point x="190" y="369"/>
      <point x="256" y="387" type="curve"/>
      <point x="245" y="434" type="line"/>
      <point x="178" y="419"/>
      <point x="89" y="379"/>
      <point x="6" y="319" type="curve"/>
      <point x="48" y="267" type="line"/>
      <point x="130" y="258"/>
      <point x="200" y="221"/>
      <point x="236" y="159" type="curve"/>
    </contour>
    <contour>
      <point x="470" y="456" type="line"/>
      <point x="470" y="491" type="line"/>
      <point x="-10" y="491" type="line"/>
      <point x="-10" y="456" type="line"/>
    </contour>
    <contour>
      <point x="564" y="456" type="line"/>
      <point x="564" y="491" type="line"/>
      <point x="186" y="491" type="line"/>
      <point x="186" y="456" type="line"/>
    </contour>
  </outline>
</glyph>
<glyph name="bBDda" format="1">
  <advance width="581"/>
  <outline>
    <contour>
      <point x="475" y="4"/>
      <point x="547" y="78"/>
      <point x="547" y="182" type="curve" smooth="yes"/>
      <point x="547" y="256"/>
      <point x="510" y="313"/>
      <point x="467" y="351" type="curve"/>
      <point x="427" y="267"/>
      <point x="376" y="213"/>
      <point x="349" y="213" type="curve" smooth="yes"/>
      <point x="338" y="213"/>
      <point x="333" y="221"/>
      <point x="333" y="234" type="curve" smooth="yes"/>
      <point x="333" y="466" type="line"/>
      <point x="293" y="466" type="line"/>
      <point x="293" y="255" type="line" smooth="yes"/>
      <point x="293" y="212"/>
      <point x="333" y="171"/>
      <point x="370" y="171" type="curve" smooth="yes"/>
      <point x="412" y="171"/>
      <point x="465" y="223"/>
      <point x="500" y="298" type="curve"/>
      <point x="474" y="297" type="line"/>
      <point x="498" y="278"/>
      <point x="517" y="241"/>
      <point x="517" y="198" type="curve" smooth="yes"/>
      <point x="517" y="118"/>
      <point x="449" y="62"/>
      <point x="358" y="62" type="curve" smooth="yes"/>
      <point x="231" y="62"/>
      <point x="118" y="171"/>
      <point x="35" y="411" type="curve"/>
      <point x="10" y="402" type="line"/>
      <point x="98" y="121"/>
      <point x="239" y="4"/>
      <point x="370" y="4" type="curve" smooth="yes"/>
    </contour>
    <contour>
      <point x="306" y="247" type="line"/>
      <point x="275" y="294"/>
      <point x="226" y="325"/>
      <point x="165" y="340" type="curve"/>
      <point x="170" y="326" type="line"/>
      <point x="219" y="357"/>
      <point x="265" y="379"/>
      <point x="306" y="392" type="curve"/>
      <point x="296" y="439" type="line"/>
      <point x="229" y="416"/>
      <point x="181" y="393"/>
      <point x="110" y="348" type="curve"/>
      <point x="147" y="295" type="line"/>
      <point x="211" y="290"/>
      <point x="268" y="269"/>
      <point x="302" y="225" type="curve"/>
    </contour>
    <contour>
      <point x="591" y="456" type="line"/>
      <point x="591" y="491" type="line"/>
      <point x="-10" y="491" type="line"/>
      <point x="-10" y="456" type="line"/>
    </contour>
  </outline>
</glyph>
<glyph name="bBDdha" format="1">
  <advance width="546"/>
  <outline>
    <contour>
      <point x="402" y="10"/>
      <point x="516" y="154"/>
      <point x="516" y="255" type="curve" smooth="yes"/>
      <point x="516" y="306"/>
      <point x="487" y="349"/>
      <point x="442" y="349" type="curve" smooth="yes"/>
      <point x="408" y="349"/>
      <point x="382" y="324"/>
      <point x="382" y="293" type="curve" smooth="yes"/>
      <point x="382" y="261"/>
      <point x="409" y="234"/>
      <point x="444" y="234" type="curve" smooth="yes"/>
      <point x="459" y="234"/>
      <point x="471" y="239"/>
      <point x="484" y="250" type="curve"/>
      <point x="464" y="264" type="line"/>
      <point x="464" y="182"/>
      <point x="371" y="56"/>
      <point x="311" y="56" type="curve" smooth="yes"/>
      <point x="287" y="56"/>
      <point x="276" y="76"/>
      <point x="276" y="121" type="curve" smooth="yes"/>
      <point x="276" y="467" type="line"/>
      <point x="236" y="467" type="line"/>
      <point x="236" y="138" type="line" smooth="yes"/>
      <point x="236" y="63"/>
      <point x="283" y="10"/>
      <point x="328" y="10" type="curve" smooth="yes"/>
    </contour>
    <contour>
      <point x="247" y="180" type="line"/>
      <point x="210" y="247"/>
      <point x="134" y="299"/>
      <point x="52" y="317" type="curve"/>
      <point x="57" y="291" type="line"/>
      <point x="116" y="336"/>
      <point x="190" y="369"/>
      <point x="256" y="387" type="curve"/>
      <point x="245" y="434" type="line"/>
      <point x="178" y="419"/>
      <point x="89" y="379"/>
      <point x="6" y="319" type="curve"/>
      <point x="48" y="267" type="line"/>
      <point x="134" y="258"/>
      <point x="208" y="217"/>
      <point x="241" y="149" type="curve"/>
    </contour>
    <contour>
      <point x="556" y="456" type="line"/>
      <point x="556" y="491" type="line"/>
      <point x="-10" y="491" type="line"/>
      <point x="-10" y="456" type="line"/>
    </contour>
  </outline>
</glyph>
<glyph name="bBJa" format="1">
  <advance width="664"/>
  <outline>
    <contour>
      <point x="441" y="4"/>
      <point x="498" y="67"/>
      <point x="498" y="156" type="curve" smooth="yes"/>
      <point x="498" y="223"/>
      <point x="465" y="274"/>
      <point x="427" y="309" type="curve"/>
      <point x="396" y="237"/>
      <point x="359" y="193"/>
      <point x="338" y="193" type="curve" smooth="yes"/>
      <point x="329" y="193"/>
      <point x="323" y="200"/>
      <point x="323" y="214" type="curve" smooth="yes"/>
      <point x="323" y="466" type="line"/>
      <point x="283" y="466" type="line"/>
      <point x="283" y="245" type="line" smooth="yes"/>
      <point x="283" y="196"/>
      <point x="324" y="151"/>
      <point x="359" y="151" type="curve" smooth="yes"/>
      <point x="393" y="151"/>
      <point x="433" y="194"/>
      <point x="460" y="256" type="curve"/>
      <point x="434" y="255" type="line"/>
      <point x="453" y="239"/>
      <point x="468" y="209"/>
      <point x="468" y="173" type="curve" smooth="yes"/>
      <point x="468" y="107"/>
      <point x="416" y="62"/>
      <point x="340" y="62" type="curve" smooth="yes"/>
      <point x="226" y="62"/>
      <point x="114" y="169"/>
      <point x="35" y="411" type="curve"/>
      <point x="10" y="402" type="line"/>
      <point x="95" y="119"/>
      <point x="233" y="4"/>
      <point x="351" y="4" type="curve" smooth="yes"/>
    </contour>
    <contour>
      <point x="296" y="237" type="line"/>
      <point x="265" y="286"/>
      <point x="216" y="318"/>
      <point x="155" y="334" type="curve"/>
      <point x="160" y="320" type="line"/>
      <point x="209" y="354"/>
      <point x="255" y="378"/>
      <point x="296" y="392" type="curve"/>
      <point x="286" y="439" type="line"/>
      <point x="219" y="414"/>
      <point x="171" y="390"/>
      <point x="100" y="342" type="curve"/>
      <point x="137" y="289" type="line"/>
      <point x="201" y="283"/>
      <point x="257" y="261"/>
      <point x="291" y="216" type="curve"/>
    </contour>
    <contour>
      <point x="590" y="-16" type="line"/>
      <point x="578" y="38"/>
      <point x="573" y="90"/>
      <point x="573" y="136" type="curve" smooth="yes"/>
      <point x="573" y="213"/>
      <point x="587" y="272"/>
      <point x="633" y="340" type="curve"/>
      <point x="576" y="401" type="line"/>
      <point x="546" y="384"/>
      <point x="516" y="376"/>
      <point x="481" y="376" type="curve" smooth="yes"/>
      <point x="427" y="376"/>
      <point x="378" y="395"/>
      <point x="312" y="471" type="curve"/>
      <point x="297" y="450" type="line"/>
      <point x="374" y="354"/>
      <point x="446" y="328"/>
      <point x="506" y="328" type="curve" smooth="yes"/>
      <point x="537" y="328"/>
      <point x="569" y="335"/>
      <point x="596" y="349" type="curve"/>
      <point x="578" y="362" type="line"/>
      <point x="554" y="319"/>
      <point x="539" y="249"/>
      <point x="539" y="170" type="curve" smooth="yes"/>
      <point x="539" y="112"/>
      <point x="547" y="53"/>
      <point x="564" y="-22" type="curve"/>
    </contour>
    <contour>
      <point x="674" y="456" type="line"/>
      <point x="674" y="491" type="line"/>
      <point x="-10" y="491" type="line"/>
      <point x="-10" y="456" type="line"/>
    </contour>
  </outline>
</glyph>
<glyph name="bBJha" format="1">
  <advance width="521"/>
  <outline>
    <contour>
      <point x="332" y="-50" type="line"/>
      <point x="332" y="468" type="line"/>
      <point x="292" y="467" type="line"/>
      <point x="292" y="20" type="line"/>
      <point x="310" y="9" type="line"/>
      <point x="278" y="75"/>
      <point x="203" y="130"/>
      <point x="118" y="138" type="curve"/>
      <point x="123" y="112" type="line"/>
      <point x="183" y="165"/>
      <point x="257" y="210"/>
      <point x="322" y="235" type="curve"/>
      <point x="311" y="285" type="line"/>
      <point x="254" y="262"/>
      <point x="161" y="215"/>
      <point x="73" y="137" type="curve"/>
      <point x="114" y="88" type="line"/>
      <point x="210" y="88"/>
      <point x="292" y="37"/>
      <point x="312" y="-50" type="curve"/>
    </contour>
    <contour>
      <point x="194" y="207" type="line"/>
      <point x="155" y="244"/>
      <point x="120" y="265"/>
      <point x="76" y="276" type="curve"/>
      <point x="82" y="256" type="line"/>
      <point x="156" y="314"/>
      <point x="243" y="363"/>
      <point x="321" y="383" type="curve"/>
      <point x="309" y="430" type="line"/>
      <point x="223" y="411"/>
      <point x="117" y="351"/>
      <point x="26" y="278" type="curve"/>
      <point x="70" y="228" type="line"/>
      <point x="112" y="223"/>
      <point x="148" y="211"/>
      <point x="174" y="187" type="curve"/>
    </contour>
    <contour>
      <point x="332" y="456" type="line"/>
      <point x="332" y="491" type="line"/>
      <point x="-10" y="491" type="line"/>
      <point x="-10" y="456" type="line"/>
    </contour>
    <contour>
      <point x="451" y="-14" type="line"/>
      <point x="451" y="456" type="line"/>
      <point x="531" y="456" type="line"/>
      <point x="531" y="491" type="line"/>
      <point x="411" y="491" type="line"/>
      <point x="411" y="61" type="line"/>
      <point x="426" y="58" type="line"/>
      <point x="407" y="108"/>
      <point x="370" y="147"/>
      <point x="324" y="176" type="curve"/>
      <point x="320" y="129" type="line"/>
      <point x="385" y="100"/>
      <point x="416" y="57"/>
      <point x="426" y="-14" type="curve"/>
    </contour>
  </outline>
</glyph>
<glyph name="bBLa" format="1">
  <advance width="430"/>
  <outline>
    <contour>
      <point x="360" y="30" type="line"/>
      <point x="360" y="466" type="line"/>
      <point x="320" y="466" type="line"/>
      <point x="320" y="101" type="line"/>
      <point x="331" y="106" type="line"/>
      <point x="284" y="195"/>
      <point x="192" y="258"/>
      <point x="97" y="276" type="curve"/>
      <point x="100" y="256" type="line"/>
      <point x="169" y="312"/>
      <point x="256" y="358"/>
      <point x="344" y="384" type="curve"/>
      <point x="338" y="436" type="line"/>
      <point x="251" y="416"/>
      <point x="129" y="357"/>
      <point x="41" y="286" type="curve"/>
      <point x="93" y="217" type="line"/>
      <point x="206" y="207"/>
      <point x="330" y="123"/>
      <point x="330" y="30" type="curve"/>
    </contour>
    <contour>
      <point x="160" y="-67"/>
      <point x="182" y="-46"/>
      <point x="182" y="-20" type="curve" smooth="yes"/>
      <point x="182" y="3"/>
      <point x="165" y="21"/>
      <point x="144" y="21" type="curve" smooth="yes"/>
      <point x="126" y="21"/>
      <point x="109" y="7"/>
      <point x="109" y="-13" type="curve" smooth="yes"/>
      <point x="109" y="-33"/>
      <point x="123" y="-48"/>
      <point x="150" y="-52" type="curve"/>
      <point x="151" y="-24" type="line"/>
      <point x="141" y="-33"/>
      <point x="129" y="-37"/>
      <point x="119" y="-37" type="curve" smooth="yes"/>
      <point x="99" y="-37"/>
      <point x="82" y="-21"/>
      <point x="82" y="2" type="curve" smooth="yes"/>
      <point x="82" y="32"/>
      <point x="109" y="56"/>
      <point x="146" y="56" type="curve" smooth="yes"/>
      <point x="187" y="56"/>
      <point x="215" y="28"/>
      <point x="225" y="-14" type="curve"/>
      <point x="242" y="-14" type="line"/>
      <point x="242" y="21"/>
      <point x="253" y="42"/>
      <point x="274" y="42" type="curve" smooth="yes"/>
      <point x="301" y="42"/>
      <point x="329" y="11"/>
      <point x="335" y="-48" type="curve"/>
      <point x="360" y="-48" type="line"/>
      <point x="360" y="70" type="line"/>
      <point x="330" y="70" type="line"/>
      <point x="330" y="-1" type="line"/>
      <point x="340" y="-2" type="line"/>
      <point x="329" y="56"/>
      <point x="287" y="94"/>
      <point x="254" y="94" type="curve" smooth="yes"/>
      <point x="229" y="94"/>
      <point x="206" y="71"/>
      <point x="206" y="39" type="curve"/>
      <point x="225" y="30" type="line"/>
      <point x="209" y="76"/>
      <point x="174" y="110"/>
      <point x="128" y="110" type="curve" smooth="yes"/>
      <point x="79" y="110"/>
      <point x="43" y="72"/>
      <point x="43" y="23" type="curve" smooth="yes"/>
      <point x="43" y="-26"/>
      <point x="80" y="-67"/>
      <point x="126" y="-67" type="curve" smooth="yes"/>
    </contour>
    <contour>
      <point x="440" y="456" type="line"/>
      <point x="440" y="491" type="line"/>
      <point x="-10" y="491" type="line"/>
      <point x="-10" y="456" type="line"/>
    </contour>
  </outline>
</glyph>
<glyph name="bBRa" format="1">
  <advance width="444"/>
  <outline>
    <contour>
      <point x="374" y="45" type="line"/>
      <point x="374" y="466" type="line"/>
      <point x="334" y="466" type="line"/>
      <point x="334" y="116" type="line"/>
      <point x="345" y="121" type="line"/>
      <point x="306" y="213"/>
      <point x="196" y="269"/>
      <point x="111" y="286" type="curve"/>
      <point x="114" y="266" type="line"/>
      <point x="183" y="318"/>
      <point x="270" y="360"/>
      <point x="358" y="384" type="curve"/>
      <point x="352" y="436" type="line"/>
      <point x="265" y="417"/>
      <point x="143" y="362"/>
      <point x="55" y="296" type="curve"/>
      <point x="107" y="227" type="line"/>
      <point x="210" y="217"/>
      <point x="328" y="165"/>
      <point x="348" y="45" type="curve"/>
    </contour>
    <contour>
      <point x="374" y="-5" type="line"/>
      <point x="374" y="133" type="line"/>
      <point x="348" y="133" type="line"/>
      <point x="348" y="29" type="line"/>
      <point x="355" y="32" type="line"/>
      <point x="337" y="86"/>
      <point x="289" y="116"/>
      <point x="231" y="116" type="curve" smooth="yes"/>
      <point x="203" y="116"/>
      <point x="156" y="109"/>
      <point x="128" y="109" type="curve" smooth="yes"/>
      <point x="82" y="109"/>
      <point x="58" y="128"/>
      <point x="58" y="162" type="curve" smooth="yes"/>
      <point x="58" y="178"/>
      <point x="63" y="195"/>
      <point x="70" y="212" type="curve"/>
      <point x="49" y="222" type="line"/>
      <point x="38" y="201"/>
      <point x="32" y="178"/>
      <point x="32" y="158" type="curve" smooth="yes"/>
      <point x="32" y="100"/>
      <point x="81" y="53"/>
      <point x="145" y="53" type="curve" smooth="yes"/>
      <point x="179" y="53"/>
      <point x="254" y="66"/>
      <point x="281" y="66" type="curve" smooth="yes"/>
      <point x="323" y="66"/>
      <point x="345" y="35"/>
      <point x="349" y="-5" type="curve"/>
    </contour>
    <contour>
      <point x="454" y="456" type="line"/>
      <point x="454" y="491" type="line"/>
      <point x="-10" y="491" type="line"/>
      <point x="-10" y="456" type="line"/>
    </contour>
  </outline>
</glyph>
<glyph name="bBRa_bSignU" format="1">
  <advance width="584"/>
  <outline>
    <contour>
      <point x="374" y="45" type="line"/>
      <point x="374" y="466" type="line"/>
      <point x="334" y="466" type="line"/>
      <point x="334" y="116" type="line"/>
      <point x="345" y="121" type="line"/>
      <point x="306" y="213"/>
      <point x="196" y="269"/>
      <point x="111" y="286" type="curve"/>
      <point x="114" y="266" type="line"/>
      <point x="183" y="318"/>
      <point x="270" y="360"/>
      <point x="358" y="384" type="curve"/>
      <point x="352" y="436" type="line"/>
      <point x="265" y="417"/>
      <point x="143" y="362"/>
      <point x="55" y="296" type="curve"/>
      <point x="107" y="227" type="line"/>
      <point x="210" y="217"/>
      <point x="328" y="165"/>
      <point x="348" y="45" type="curve"/>
    </contour>
    <contour>
      <point x="374" y="-5" type="line"/>
      <point x="374" y="133" type="line"/>
      <point x="348" y="133" type="line"/>
      <point x="348" y="29" type="line"/>
      <point x="355" y="32" type="line"/>
      <point x="337" y="86"/>
      <point x="289" y="116"/>
      <point x="231" y="116" type="curve" smooth="yes"/>
      <point x="203" y="116"/>
      <point x="156" y="109"/>
      <point x="128" y="109" type="curve" smooth="yes"/>
      <point x="83" y="109"/>
      <point x="58" y="128"/>
      <point x="58" y="162" type="curve" smooth="yes"/>
      <point x="58" y="179"/>
      <point x="64" y="198"/>
      <point x="70" y="212" type="curve"/>
      <point x="49" y="222" type="line"/>
      <point x="38" y="201"/>
      <point x="32" y="178"/>
      <point x="32" y="158" type="curve" smooth="yes"/>
      <point x="32" y="100"/>
      <point x="81" y="53"/>
      <point x="145" y="53" type="curve" smooth="yes"/>
      <point x="179" y="53"/>
      <point x="254" y="66"/>
      <point x="281" y="66" type="curve" smooth="yes"/>
      <point x="323" y="66"/>
      <point x="345" y="35"/>
      <point x="349" y="-5" type="curve"/>
    </contour>
    <contour>
      <point x="522" y="188"/>
      <point x="559" y="230"/>
      <point x="559" y="286" type="curve" smooth="yes"/>
      <point x="559" y="343"/>
      <point x="520" y="391"/>
      <point x="473" y="391" type="curve" smooth="yes"/>
      <point x="442" y="391"/>
      <point x="419" y="369"/>
      <point x="419" y="341" type="curve" smooth="yes"/>
      <point x="419" y="315"/>
      <point x="440" y="296"/>
      <point x="464" y="296" type="curve" smooth="yes"/>
      <point x="489" y="296"/>
      <point x="505" y="315"/>
      <point x="505" y="336" type="curve" smooth="yes"/>
      <point x="505" y="350"/>
      <point x="498" y="362"/>
      <point x="487" y="366" type="curve"/>
      <point x="478" y="353" type="line"/>
      <point x="482" y="355"/>
      <point x="486" y="356"/>
      <point x="491" y="356" type="curve" smooth="yes"/>
      <point x="512" y="356"/>
      <point x="530" y="335"/>
      <point x="530" y="307" type="curve" smooth="yes"/>
      <point x="530" y="270"/>
      <point x="500" y="242"/>
      <point x="464" y="242" type="curve" smooth="yes"/>
      <point x="427" y="242"/>
      <point x="388" y="272"/>
      <point x="367" y="320" type="curve"/>
      <point x="359" y="294" type="line"/>
      <point x="385" y="230"/>
      <point x="426" y="188"/>
      <point x="474" y="188" type="curve" smooth="yes"/>
    </contour>
    <contour>
      <point x="594" y="456" type="line"/>
      <point x="594" y="491" type="line"/>
      <point x="-10" y="491" type="line"/>
      <point x="-10" y="456" type="line"/>
    </contour>
  </outline>
</glyph>
<glyph name="bBa" format="1">
  <advance width="414"/>
  <outline>
    <contour>
      <point x="344" y="0" type="line"/>
      <point x="344" y="466" type="line"/>
      <point x="304" y="466" type="line"/>
      <point x="304" y="72" type="line"/>
      <point x="313" y="79" type="line"/>
      <point x="274" y="173"/>
      <point x="169" y="247"/>
      <point x="81" y="273" type="curve"/>
      <point x="84" y="253" type="line"/>
      <point x="153" y="310"/>
      <point x="240" y="357"/>
      <point x="328" y="384" type="curve"/>
      <point x="322" y="436" type="line"/>
      <point x="235" y="416"/>
      <point x="113" y="355"/>
      <point x="25" y="283" type="curve"/>
      <point x="77" y="214" type="line"/>
      <point x="184" y="197"/>
      <point x="299" y="118"/>
      <point x="319" y="0" type="curve"/>
    </contour>
    <contour>
      <point x="424" y="456" type="line"/>
      <point x="424" y="491" type="line"/>
      <point x="-10" y="491" type="line"/>
      <point x="-10" y="456" type="line"/>
    </contour>
  </outline>
</glyph>
<glyph name="bBaphala" format="1">
  <advance width="0"/>
  <outline>
    <contour>
      <point x="-70" y="-121" type="line"/>
      <point x="-70" y="119" type="line"/>
      <point x="-86" y="146" type="line"/>
      <point x="-168" y="115"/>
      <point x="-221" y="89"/>
      <point x="-303" y="31" type="curve"/>
      <point x="-264" y="-20" type="line"/>
      <point x="-185" y="-28"/>
      <point x="-114" y="-57"/>
      <point x="-90" y="-121" type="curve"/>
    </contour>
    <contour>
      <point x="-93" y="-79" type="line"/>
      <point x="-125" y="-25"/>
      <point x="-179" y="9"/>
      <point x="-246" y="27" type="curve"/>
      <point x="-241" y="5" type="line"/>
      <point x="-186" y="46"/>
      <point x="-135" y="73"/>
      <point x="-89" y="89" type="curve"/>
      <point x="-110" y="104" type="line"/>
      <point x="-110" y="-70" type="line"/>
    </contour>
  </outline>
</glyph>
<glyph name="bBhRa_bSignU" format="1">
  <advance width="642"/>
  <outline>
    <contour>
      <point x="432" y="-20" type="line"/>
      <point x="432" y="278" type="line" smooth="yes"/>
      <point x="432" y="325"/>
      <point x="410" y="378"/>
      <point x="370" y="404" type="curve"/>
      <point x="338" y="350"/>
      <point x="283" y="317"/>
      <point x="236" y="317" type="curve" smooth="yes"/>
      <point x="222" y="317"/>
      <point x="213" y="320"/>
      <point x="204" y="326" type="curve"/>
      <point x="225" y="304" type="line"/>
      <point x="241" y="312"/>
      <point x="252" y="329"/>
      <point x="252" y="351" type="curve" smooth="yes"/>
      <point x="252" y="385"/>
      <point x="225" y="404"/>
      <point x="196" y="404" type="curve" smooth="yes"/>
      <point x="164" y="404"/>
      <point x="137" y="381"/>
      <point x="137" y="344" type="curve" smooth="yes"/>
      <point x="137" y="300"/>
      <point x="176" y="261"/>
      <point x="238" y="261" type="curve" smooth="yes"/>
      <point x="308" y="261"/>
      <point x="376" y="309"/>
      <point x="407" y="358" type="curve"/>
      <point x="380" y="349" type="line"/>
      <point x="388" y="336"/>
      <point x="392" y="315"/>
      <point x="392" y="292" type="curve" smooth="yes"/>
      <point x="392" y="61" type="line"/>
      <point x="403" y="53" type="line"/>
      <point x="387" y="100"/>
      <point x="349" y="129"/>
      <point x="302" y="129" type="curve" smooth="yes"/>
      <point x="274" y="129"/>
      <point x="201" y="119"/>
      <point x="164" y="119" type="curve" smooth="yes"/>
      <point x="89" y="119"/>
      <point x="51" y="160"/>
      <point x="51" y="212" type="curve" smooth="yes"/>
      <point x="51" y="241"/>
      <point x="63" y="270"/>
      <point x="78" y="294" type="curve"/>
      <point x="58" y="306" type="line"/>
      <point x="34" y="274"/>
      <point x="22" y="238"/>
      <point x="22" y="204" type="curve" smooth="yes"/>
      <point x="22" y="121"/>
      <point x="96" y="61"/>
      <point x="190" y="61" type="curve" smooth="yes"/>
      <point x="230" y="61"/>
      <point x="301" y="72"/>
      <point x="331" y="72" type="curve" smooth="yes"/>
      <point x="380" y="72"/>
      <point x="401" y="42"/>
      <point x="407" y="-20" type="curve"/>
    </contour>
    <contour>
      <point x="580" y="158"/>
      <point x="617" y="200"/>
      <point x="617" y="256" type="curve" smooth="yes"/>
      <point x="617" y="313"/>
      <point x="578" y="361"/>
      <point x="531" y="361" type="curve" smooth="yes"/>
      <point x="500" y="361"/>
      <point x="477" y="339"/>
      <point x="477" y="311" type="curve" smooth="yes"/>
      <point x="477" y="285"/>
      <point x="498" y="266"/>
      <point x="522" y="266" type="curve" smooth="yes"/>
      <point x="547" y="266"/>
      <point x="563" y="285"/>
      <point x="563" y="306" type="curve" smooth="yes"/>
      <point x="563" y="320"/>
      <point x="556" y="332"/>
      <point x="545" y="336" type="curve"/>
      <point x="536" y="323" type="line"/>
      <point x="540" y="325"/>
      <point x="544" y="326"/>
      <point x="549" y="326" type="curve" smooth="yes"/>
      <point x="570" y="326"/>
      <point x="588" y="305"/>
      <point x="588" y="277" type="curve" smooth="yes"/>
      <point x="588" y="240"/>
      <point x="558" y="212"/>
      <point x="522" y="212" type="curve" smooth="yes"/>
      <point x="485" y="212"/>
      <point x="446" y="242"/>
      <point x="425" y="290" type="curve"/>
      <point x="417" y="264" type="line"/>
      <point x="443" y="200"/>
      <point x="484" y="158"/>
      <point x="532" y="158" type="curve" smooth="yes"/>
    </contour>
    <contour>
      <point x="652" y="456" type="line"/>
      <point x="652" y="491" type="line"/>
      <point x="-10" y="491" type="line"/>
      <point x="-10" y="456" type="line"/>
    </contour>
  </outline>
</glyph>
<glyph name="bBhRa_bSignUu" format="1">
  <advance width="630"/>
  <outline>
    <contour>
      <point x="432" y="-20" type="line"/>
      <point x="432" y="278" type="line" smooth="yes"/>
      <point x="432" y="325"/>
      <point x="410" y="378"/>
      <point x="370" y="404" type="curve"/>
      <point x="338" y="350"/>
      <point x="283" y="317"/>
      <point x="236" y="317" type="curve" smooth="yes"/>
      <point x="222" y="317"/>
      <point x="213" y="320"/>
      <point x="204" y="326" type="curve"/>
      <point x="225" y="304" type="line"/>
      <point x="241" y="312"/>
      <point x="252" y="329"/>
      <point x="252" y="351" type="curve" smooth="yes"/>
      <point x="252" y="385"/>
      <point x="225" y="404"/>
      <point x="196" y="404" type="curve" smooth="yes"/>
      <point x="164" y="404"/>
      <point x="137" y="381"/>
      <point x="137" y="344" type="curve" smooth="yes"/>
      <point x="137" y="300"/>
      <point x="176" y="261"/>
      <point x="238" y="261" type="curve" smooth="yes"/>
      <point x="308" y="261"/>
      <point x="376" y="309"/>
      <point x="407" y="358" type="curve"/>
      <point x="380" y="349" type="line"/>
      <point x="388" y="336"/>
      <point x="392" y="315"/>
      <point x="392" y="292" type="curve" smooth="yes"/>
      <point x="392" y="61" type="line"/>
      <point x="403" y="53" type="line"/>
      <point x="387" y="100"/>
      <point x="349" y="129"/>
      <point x="302" y="129" type="curve" smooth="yes"/>
      <point x="274" y="129"/>
      <point x="201" y="119"/>
      <point x="164" y="119" type="curve" smooth="yes"/>
      <point x="89" y="119"/>
      <point x="51" y="161"/>
      <point x="51" y="212" type="curve" smooth="yes"/>
      <point x="51" y="242"/>
      <point x="64" y="272"/>
      <point x="78" y="294" type="curve"/>
      <point x="58" y="306" type="line"/>
      <point x="34" y="274"/>
      <point x="22" y="238"/>
      <point x="22" y="204" type="curve" smooth="yes"/>
      <point x="22" y="121"/>
      <point x="96" y="61"/>
      <point x="190" y="61" type="curve" smooth="yes"/>
      <point x="230" y="61"/>
      <point x="301" y="72"/>
      <point x="331" y="72" type="curve" smooth="yes"/>
      <point x="380" y="72"/>
      <point x="401" y="42"/>
      <point x="407" y="-20" type="curve"/>
    </contour>
    <contour>
      <point x="593" y="12" type="line"/>
      <point x="575" y="30"/>
      <point x="565" y="54"/>
      <point x="565" y="82" type="curve" smooth="yes"/>
      <point x="565" y="275" type="line" smooth="yes"/>
      <point x="565" y="312"/>
      <point x="528" y="352"/>
      <point x="498" y="352" type="curve" smooth="yes"/>
      <point x="480" y="352"/>
      <point x="444" y="337"/>
      <point x="411" y="307" type="curve"/>
      <point x="424" y="264" type="line"/>
      <point x="455" y="291"/>
      <point x="495" y="311"/>
      <point x="514" y="311" type="curve" smooth="yes"/>
      <point x="521" y="311"/>
      <point x="525" y="307"/>
      <point x="525" y="296" type="curve" smooth="yes"/>
      <point x="525" y="102" type="line" smooth="yes"/>
      <point x="525" y="47"/>
      <point x="548" y="19"/>
      <point x="582" y="-5" type="curve"/>
    </contour>
    <contour>
      <point x="640" y="456" type="line"/>
      <point x="640" y="491" type="line"/>
      <point x="-10" y="491" type="line"/>
      <point x="-10" y="456" type="line"/>
    </contour>
  </outline>
</glyph>
<glyph name="bCBa" format="1">
  <advance width="365"/>
  <outline>
    <contour>
      <point x="223" y="62"/>
      <point x="339" y="179"/>
      <point x="339" y="250" type="curve" smooth="yes"/>
      <point x="339" y="279"/>
      <point x="324" y="301"/>
      <point x="309" y="319" type="curve" smooth="yes"/>
      <point x="279" y="355"/>
      <point x="260" y="362"/>
      <point x="221" y="371" type="curve" smooth="yes"/>
      <point x="147" y="387"/>
      <point x="109" y="430"/>
      <point x="109" y="477" type="curve"/>
      <point x="69" y="477" type="line"/>
      <point x="69" y="189" type="line" smooth="yes"/>
      <point x="69" y="113"/>
      <point x="126" y="62"/>
      <point x="165" y="62" type="curve" smooth="yes"/>
    </contour>
    <contour>
      <point x="126" y="108"/>
      <point x="109" y="121"/>
      <point x="109" y="174" type="curve" smooth="yes"/>
      <point x="109" y="453" type="line"/>
      <point x="88" y="450" type="line"/>
      <point x="112" y="373"/>
      <point x="176" y="332"/>
      <point x="234" y="316" type="curve" smooth="yes"/>
      <point x="284" y="302"/>
      <point x="293" y="297"/>
      <point x="293" y="273" type="curve" smooth="yes"/>
      <point x="293" y="214"/>
      <point x="191" y="108"/>
      <point x="143" y="108" type="curve" smooth="yes"/>
    </contour>
    <contour>
      <point x="282" y="-112" type="line"/>
      <point x="282" y="153" type="line"/>
      <point x="266" y="163" type="line"/>
      <point x="184" y="123"/>
      <point x="134" y="95"/>
      <point x="49" y="37" type="curve"/>
      <point x="88" y="-14" type="line"/>
      <point x="167" y="-21"/>
      <point x="238" y="-50"/>
      <point x="257" y="-112" type="curve"/>
    </contour>
    <contour>
      <point x="259" y="-70" type="line"/>
      <point x="227" y="-18"/>
      <point x="173" y="16"/>
      <point x="106" y="33" type="curve"/>
      <point x="111" y="12" type="line"/>
      <point x="169" y="52"/>
      <point x="217" y="81"/>
      <point x="263" y="110" type="curve"/>
      <point x="242" y="118" type="line"/>
      <point x="242" y="-71" type="line"/>
    </contour>
    <contour>
      <point x="375" y="456" type="line"/>
      <point x="375" y="491" type="line"/>
      <point x="-10" y="491" type="line"/>
      <point x="-10" y="456" type="line"/>
    </contour>
  </outline>
</glyph>
<glyph name="bCChRa" format="1">
  <advance width="627"/>
  <outline>
    <contour>
      <point x="640" y="20" type="line"/>
      <point x="558" y="83"/>
      <point x="499" y="124"/>
      <point x="424" y="149" type="curve"/>
      <point x="409" y="118" type="line"/>
      <point x="518" y="142"/>
      <point x="592" y="210"/>
      <point x="592" y="282" type="curve" smooth="yes"/>
      <point x="592" y="344"/>
      <point x="536" y="396"/>
      <point x="470" y="396" type="curve" smooth="yes"/>
      <point x="457" y="396"/>
      <point x="433" y="394"/>
      <point x="419" y="394" type="curve" smooth="yes"/>
      <point x="361" y="394"/>
      <point x="320" y="429"/>
      <point x="316" y="467" type="curve"/>
      <point x="277" y="467" type="line"/>
      <point x="277" y="309" type="line" smooth="yes"/>
      <point x="277" y="267"/>
      <point x="311" y="218"/>
      <point x="354" y="218" type="curve" smooth="yes"/>
      <point x="401" y="218"/>
      <point x="473" y="274"/>
      <point x="473" y="317" type="curve" smooth="yes"/>
      <point x="473" y="335"/>
      <point x="461" y="353"/>
      <point x="439" y="359" type="curve"/>
      <point x="405" y="351" type="line"/>
      <point x="417" y="347"/>
      <point x="421" y="339"/>
      <point x="421" y="331" type="curve" smooth="yes"/>
      <point x="421" y="304"/>
      <point x="368" y="260"/>
      <point x="339" y="260" type="curve" smooth="yes"/>
      <point x="324" y="260"/>
      <point x="317" y="271"/>
      <point x="317" y="295" type="curve" smooth="yes"/>
      <point x="317" y="458" type="line"/>
      <point x="299" y="444" type="line"/>
      <point x="318" y="389"/>
      <point x="378" y="347"/>
      <point x="435" y="347" type="curve" smooth="yes"/>
      <point x="452" y="347"/>
      <point x="474" y="351"/>
      <point x="493" y="351" type="curve" smooth="yes"/>
      <point x="533" y="351"/>
      <point x="548" y="332"/>
      <point x="548" y="307" type="curve" smooth="yes"/>
      <point x="548" y="246"/>
      <point x="464" y="173"/>
      <point x="373" y="173" type="curve" smooth="yes"/>
      <point x="349" y="173"/>
      <point x="319" y="178"/>
      <point x="289" y="186" type="curve"/>
      <point x="323" y="109" type="line"/>
      <point x="434" y="104"/>
      <point x="520" y="69"/>
      <point x="624" y="0" type="curve"/>
    </contour>
    <contour>
      <point x="562" y="-101" type="line"/>
      <point x="562" y="67" type="line"/>
      <point x="527" y="67" type="line"/>
      <point x="527" y="-47" type="line"/>
      <point x="542" y="-64" type="line"/>
      <point x="521" y="-4"/>
      <point x="479" y="25"/>
      <point x="424" y="25" type="curve" smooth="yes"/>
      <point x="402" y="25"/>
      <point x="353" y="20"/>
      <point x="328" y="20" type="curve" smooth="yes"/>
      <point x="283" y="20"/>
      <point x="257" y="37"/>
      <point x="257" y="76" type="curve" smooth="yes"/>
      <point x="257" y="91"/>
      <point x="261" y="109"/>
      <point x="268" y="126" type="curve"/>
      <point x="247" y="135" type="line"/>
      <point x="238" y="116"/>
      <point x="232" y="92"/>
      <point x="232" y="71" type="curve" smooth="yes"/>
      <point x="232" y="10"/>
      <point x="284" y="-33"/>
      <point x="350" y="-33" type="curve" smooth="yes"/>
      <point x="377" y="-33"/>
      <point x="431" y="-26"/>
      <point x="454" y="-26" type="curve" smooth="yes"/>
      <point x="508" y="-26"/>
      <point x="535" y="-64"/>
      <point x="537" y="-101" type="curve"/>
    </contour>
    <contour>
      <point x="186" y="114"/>
      <point x="282" y="222"/>
      <point x="282" y="278" type="curve" smooth="yes"/>
      <point x="282" y="303"/>
      <point x="264" y="329"/>
      <point x="252" y="343" type="curve" smooth="yes"/>
      <point x="225" y="375"/>
      <point x="203" y="375"/>
      <point x="181" y="381" type="curve" smooth="yes"/>
      <point x="117" y="397"/>
      <point x="89" y="428"/>
      <point x="89" y="467" type="curve"/>
      <point x="49" y="467" type="line"/>
      <point x="49" y="237" type="line" smooth="yes"/>
      <point x="49" y="164"/>
      <point x="99" y="114"/>
      <point x="134" y="114" type="curve" smooth="yes"/>
    </contour>
    <contour>
      <point x="100" y="160"/>
      <point x="89" y="172"/>
      <point x="89" y="222" type="curve" smooth="yes"/>
      <point x="89" y="453" type="line"/>
      <point x="68" y="450" type="line"/>
      <point x="100" y="365"/>
      <point x="145" y="342"/>
      <point x="194" y="327" type="curve" smooth="yes"/>
      <point x="224" y="318"/>
      <point x="239" y="317"/>
      <point x="239" y="299" type="curve" smooth="yes"/>
      <point x="239" y="256"/>
      <point x="155" y="160"/>
      <point x="114" y="160" type="curve" smooth="yes"/>
    </contour>
    <contour>
      <point x="361" y="456" type="line"/>
      <point x="361" y="491" type="line"/>
      <point x="-10" y="491" type="line"/>
      <point x="-10" y="456" type="line"/>
    </contour>
    <contour>
      <point x="639" y="456" type="line"/>
      <point x="639" y="491" type="line"/>
      <point x="183" y="491" type="line"/>
      <point x="183" y="456" type="line"/>
    </contour>
  </outline>
</glyph>
<glyph name="bCNa" format="1">
  <advance width="358"/>
  <outline>
    <contour>
      <point x="217" y="91"/>
      <point x="329" y="198"/>
      <point x="329" y="260" type="curve" smooth="yes"/>
      <point x="329" y="281"/>
      <point x="316" y="306"/>
      <point x="302" y="324" type="curve" smooth="yes"/>
      <point x="272" y="364"/>
      <point x="245" y="367"/>
      <point x="214" y="376" type="curve" smooth="yes"/>
      <point x="140" y="397"/>
      <point x="102" y="423"/>
      <point x="102" y="477" type="curve"/>
      <point x="62" y="477" type="line"/>
      <point x="62" y="214" type="line" smooth="yes"/>
      <point x="62" y="141"/>
      <point x="114" y="91"/>
      <point x="156" y="91" type="curve" smooth="yes"/>
    </contour>
    <contour>
      <point x="116" y="137"/>
      <point x="102" y="149"/>
      <point x="102" y="199" type="curve" smooth="yes"/>
      <point x="102" y="453" type="line"/>
      <point x="81" y="450" type="line"/>
      <point x="120" y="356"/>
      <point x="174" y="338"/>
      <point x="227" y="321" type="curve" smooth="yes"/>
      <point x="264" y="309"/>
      <point x="283" y="305"/>
      <point x="283" y="283" type="curve" smooth="yes"/>
      <point x="283" y="235"/>
      <point x="186" y="137"/>
      <point x="134" y="137" type="curve" smooth="yes"/>
    </contour>
    <contour>
      <point x="368" y="456" type="line"/>
      <point x="368" y="491" type="line"/>
      <point x="-10" y="491" type="line"/>
      <point x="-10" y="456" type="line"/>
    </contour>
    <contour>
      <point x="287" y="-91" type="line"/>
      <point x="287" y="196" type="line"/>
      <point x="252" y="176" type="line"/>
      <point x="252" y="-38" type="line"/>
      <point x="273" y="-47" type="line"/>
      <point x="235" y="35"/>
      <point x="170" y="66"/>
      <point x="123" y="66" type="curve" smooth="yes"/>
      <point x="78" y="66"/>
      <point x="46" y="36"/>
      <point x="46" y="-2" type="curve" smooth="yes"/>
      <point x="46" y="-37"/>
      <point x="73" y="-62"/>
      <point x="105" y="-62" type="curve" smooth="yes"/>
      <point x="135" y="-62"/>
      <point x="160" y="-39"/>
      <point x="160" y="-8" type="curve" smooth="yes"/>
      <point x="160" y="14"/>
      <point x="147" y="32"/>
      <point x="133" y="39" type="curve"/>
      <point x="126" y="6" type="line"/>
      <point x="136" y="9"/>
      <point x="146" y="11"/>
      <point x="157" y="11" type="curve" smooth="yes"/>
      <point x="209" y="11"/>
      <point x="253" y="-27"/>
      <point x="262" y="-91" type="curve"/>
    </contour>
  </outline>
</glyph>
<glyph name="bCNya" format="1">
  <advance width="668"/>
  <outline>
    <contour>
      <point x="436" y="-60" type="line"/>
      <point x="436" y="293" type="line" smooth="yes"/>
      <point x="436" y="342"/>
      <point x="399" y="399"/>
      <point x="356" y="399" type="curve" smooth="yes"/>
      <point x="298" y="399"/>
      <point x="210" y="297"/>
      <point x="210" y="215" type="curve" smooth="yes"/>
      <point x="210" y="162"/>
      <point x="246" y="126"/>
      <point x="289" y="126" type="curve" smooth="yes"/>
      <point x="322" y="126"/>
      <point x="348" y="148"/>
      <point x="348" y="179" type="curve" smooth="yes"/>
      <point x="348" y="209"/>
      <point x="324" y="232"/>
      <point x="294" y="232" type="curve" smooth="yes"/>
      <point x="273" y="232"/>
      <point x="256" y="220"/>
      <point x="249" y="205" type="curve"/>
      <point x="270" y="195" type="line"/>
      <point x="262" y="205"/>
      <point x="261" y="215"/>
      <point x="261" y="221" type="curve" smooth="yes"/>
      <point x="261" y="272"/>
      <point x="340" y="357"/>
      <point x="374" y="357" type="curve" smooth="yes"/>
      <point x="390" y="357"/>
      <point x="396" y="339"/>
      <point x="396" y="308" type="curve" smooth="yes"/>
      <point x="396" y="21" type="line"/>
      <point x="407" y="13" type="line"/>
      <point x="392" y="58"/>
      <point x="355" y="89"/>
      <point x="306" y="89" type="curve" smooth="yes"/>
      <point x="279" y="89"/>
      <point x="202" y="79"/>
      <point x="167" y="79" type="curve" smooth="yes"/>
      <point x="93" y="79"/>
      <point x="57" y="123"/>
      <point x="57" y="185" type="curve" smooth="yes"/>
      <point x="57" y="208"/>
      <point x="62" y="234"/>
      <point x="70" y="254" type="curve"/>
      <point x="50" y="266" type="line"/>
      <point x="36" y="237"/>
      <point x="28" y="204"/>
      <point x="28" y="174" type="curve" smooth="yes"/>
      <point x="28" y="85"/>
      <point x="99" y="21"/>
      <point x="192" y="21" type="curve" smooth="yes"/>
      <point x="231" y="21"/>
      <point x="306" y="32"/>
      <point x="335" y="32" type="curve" smooth="yes"/>
      <point x="382" y="32"/>
      <point x="405" y="5"/>
      <point x="411" y="-60" type="curve"/>
    </contour>
    <contour>
      <point x="209" y="177"/>
      <point x="284" y="261"/>
      <point x="284" y="312" type="curve" smooth="yes"/>
      <point x="284" y="332"/>
      <point x="272" y="358"/>
      <point x="257" y="376" type="curve" smooth="yes"/>
      <point x="239" y="396"/>
      <point x="221" y="398"/>
      <point x="200" y="404" type="curve" smooth="yes"/>
      <point x="156" y="416"/>
      <point x="138" y="438"/>
      <point x="138" y="467" type="curve"/>
      <point x="98" y="467" type="line"/>
      <point x="98" y="277" type="line" smooth="yes"/>
      <point x="98" y="218"/>
      <point x="140" y="177"/>
      <point x="169" y="177" type="curve" smooth="yes"/>
    </contour>
    <contour>
      <point x="145" y="223"/>
      <point x="138" y="230"/>
      <point x="138" y="262" type="curve" smooth="yes"/>
      <point x="138" y="453" type="line"/>
      <point x="117" y="450" type="line"/>
      <point x="145" y="379"/>
      <point x="184" y="364"/>
      <point x="223" y="350" type="curve" smooth="yes"/>
      <point x="240" y="344"/>
      <point x="245" y="340"/>
      <point x="245" y="331" type="curve" smooth="yes"/>
      <point x="245" y="301"/>
      <point x="182" y="223"/>
      <point x="154" y="223" type="curve" smooth="yes"/>
    </contour>
    <contour>
      <point x="609" y="36"/>
      <point x="641" y="77"/>
      <point x="641" y="125" type="curve" smooth="yes"/>
      <point x="641" y="169"/>
      <point x="614" y="203"/>
      <point x="587" y="222" type="curve"/>
      <point x="580" y="162" type="line"/>
      <point x="623" y="194"/>
      <point x="641" y="234"/>
      <point x="641" y="272" type="curve" smooth="yes"/>
      <point x="641" y="330"/>
      <point x="599" y="375"/>
      <point x="555" y="375" type="curve" smooth="yes"/>
      <point x="513" y="375"/>
      <point x="468" y="334"/>
      <point x="425" y="254" type="curve"/>
      <point x="425" y="165" type="line"/>
      <point x="456" y="90"/>
      <point x="510" y="36"/>
      <point x="563" y="36" type="curve" smooth="yes"/>
    </contour>
    <contour>
      <point x="493" y="91"/>
      <point x="442" y="149"/>
      <point x="424" y="236" type="curve"/>
      <point x="419" y="158" type="line"/>
      <point x="464" y="273"/>
      <point x="521" y="324"/>
      <point x="569" y="324" type="curve" smooth="yes"/>
      <point x="594" y="324"/>
      <point x="609" y="311"/>
      <point x="609" y="287" type="curve" smooth="yes"/>
      <point x="609" y="264"/>
      <point x="595" y="236"/>
      <point x="556" y="204" type="curve"/>
      <point x="599" y="213" type="line"/>
      <point x="588" y="233"/>
      <point x="564" y="246"/>
      <point x="542" y="246" type="curve" smooth="yes"/>
      <point x="514" y="246"/>
      <point x="493" y="224"/>
      <point x="493" y="198" type="curve" smooth="yes"/>
      <point x="493" y="170"/>
      <point x="517" y="150"/>
      <point x="545" y="150" type="curve" smooth="yes"/>
      <point x="569" y="150"/>
      <point x="593" y="166"/>
      <point x="607" y="185" type="curve"/>
      <point x="569" y="186" type="line"/>
      <point x="601" y="174"/>
      <point x="610" y="158"/>
      <point x="610" y="142" type="curve" smooth="yes"/>
      <point x="610" y="114"/>
      <point x="584" y="91"/>
      <point x="549" y="91" type="curve" smooth="yes"/>
    </contour>
    <contour>
      <point x="678" y="456" type="line"/>
      <point x="678" y="491" type="line"/>
      <point x="-10" y="491" type="line"/>
      <point x="-10" y="456" type="line"/>
    </contour>
  </outline>
</glyph>
<glyph name="bCRa" format="1">
  <advance width="408"/>
  <outline>
    <contour>
      <point x="273" y="55"/>
      <point x="382" y="181"/>
      <point x="382" y="240" type="curve" smooth="yes"/>
      <point x="382" y="269"/>
      <point x="367" y="291"/>
      <point x="352" y="309" type="curve" smooth="yes"/>
      <point x="322" y="345"/>
      <point x="303" y="352"/>
      <point x="264" y="361" type="curve" smooth="yes"/>
      <point x="190" y="379"/>
      <point x="152" y="426"/>
      <point x="152" y="477" type="curve"/>
      <point x="112" y="477" type="line"/>
      <point x="112" y="182" type="line" smooth="yes"/>
      <point x="112" y="106"/>
      <point x="168" y="55"/>
      <point x="209" y="55" type="curve" smooth="yes"/>
    </contour>
    <contour>
      <point x="168" y="101"/>
      <point x="152" y="115"/>
      <point x="152" y="167" type="curve" smooth="yes"/>
      <point x="152" y="453" type="line"/>
      <point x="131" y="450" type="line"/>
      <point x="155" y="366"/>
      <point x="219" y="323"/>
      <point x="277" y="306" type="curve" smooth="yes"/>
      <point x="327" y="292"/>
      <point x="336" y="287"/>
      <point x="336" y="263" type="curve" smooth="yes"/>
      <point x="336" y="216"/>
      <point x="241" y="101"/>
      <point x="187" y="101" type="curve" smooth="yes"/>
    </contour>
    <contour>
      <point x="337" y="-111" type="line"/>
      <point x="337" y="167" type="line"/>
      <point x="302" y="167" type="line"/>
      <point x="302" y="-57" type="line"/>
      <point x="317" y="-74" type="line"/>
      <point x="301" y="-21"/>
      <point x="265" y="10"/>
      <point x="214" y="10" type="curve" smooth="yes"/>
      <point x="194" y="10"/>
      <point x="145" y="5"/>
      <point x="125" y="5" type="curve" smooth="yes"/>
      <point x="86" y="5"/>
      <point x="61" y="25"/>
      <point x="61" y="67" type="curve" smooth="yes"/>
      <point x="61" y="86"/>
      <point x="66" y="107"/>
      <point x="75" y="126" type="curve"/>
      <point x="55" y="135" type="line"/>
      <point x="43" y="113"/>
      <point x="36" y="85"/>
      <point x="36" y="60" type="curve" smooth="yes"/>
      <point x="36" y="-4"/>
      <point x="84" y="-50"/>
      <point x="144" y="-50" type="curve" smooth="yes"/>
      <point x="172" y="-50"/>
      <point x="221" y="-40"/>
      <point x="244" y="-40" type="curve" smooth="yes"/>
      <point x="288" y="-40"/>
      <point x="311" y="-76"/>
      <point x="312" y="-111" type="curve"/>
    </contour>
    <contour>
      <point x="418" y="456" type="line"/>
      <point x="418" y="491" type="line"/>
      <point x="-10" y="491" type="line"/>
      <point x="-10" y="456" type="line"/>
    </contour>
  </outline>
</glyph>
<glyph name="bCa" format="1">
  <advance width="358"/>
  <outline>
    <contour>
      <point x="224" y="10"/>
      <point x="332" y="160"/>
      <point x="332" y="230" type="curve" smooth="yes"/>
      <point x="332" y="259"/>
      <point x="317" y="281"/>
      <point x="302" y="299" type="curve" smooth="yes"/>
      <point x="272" y="335"/>
      <point x="253" y="342"/>
      <point x="214" y="351" type="curve" smooth="yes"/>
      <point x="140" y="369"/>
      <point x="102" y="416"/>
      <point x="102" y="467" type="curve"/>
      <point x="62" y="467" type="line"/>
      <point x="62" y="137" type="line" smooth="yes"/>
      <point x="62" y="62"/>
      <point x="118" y="10"/>
      <point x="158" y="10" type="curve" smooth="yes"/>
    </contour>
    <contour>
      <point x="118" y="56"/>
      <point x="102" y="70"/>
      <point x="102" y="122" type="curve" smooth="yes"/>
      <point x="102" y="443" type="line"/>
      <point x="81" y="440" type="line"/>
      <point x="108" y="346"/>
      <point x="169" y="313"/>
      <point x="227" y="296" type="curve" smooth="yes"/>
      <point x="277" y="282"/>
      <point x="286" y="277"/>
      <point x="286" y="253" type="curve" smooth="yes"/>
      <point x="286" y="196"/>
      <point x="191" y="56"/>
      <point x="136" y="56" type="curve" smooth="yes"/>
    </contour>
    <contour>
      <point x="368" y="456" type="line"/>
      <point x="368" y="491" type="line"/>
      <point x="-10" y="491" type="line"/>
      <point x="-10" y="456" type="line"/>
    </contour>
  </outline>
</glyph>
<glyph name="bCandrabindu" format="1">
  <advance width="0"/>
  <outline>
    <contour>
      <point x="-20" y="628"/>
      <point x="-49" y="602"/>
      <point x="-93" y="602" type="curve" smooth="yes"/>
      <point x="-134" y="602"/>
      <point x="-167" y="625"/>
      <point x="-194" y="687" type="curve"/>
      <point x="-215" y="677" type="line"/>
      <point x="-182" y="599"/>
      <point x="-143" y="560"/>
      <point x="-88" y="560" type="curve" smooth="yes"/>
      <point x="-31" y="560"/>
      <point x="3" y="601"/>
      <point x="26" y="673" type="curve"/>
      <point x="0" y="684" type="line"/>
    </contour>
    <contour>
      <point x="-73" y="652"/>
      <point x="-57" y="668"/>
      <point x="-57" y="688" type="curve" smooth="yes"/>
      <point x="-57" y="707"/>
      <point x="-73" y="723"/>
      <point x="-93" y="723" type="curve" smooth="yes"/>
      <point x="-112" y="723"/>
      <point x="-128" y="707"/>
      <point x="-128" y="688" type="curve" smooth="yes"/>
      <point x="-128" y="668"/>
      <point x="-112" y="652"/>
      <point x="-93" y="652" type="curve" smooth="yes"/>
    </contour>
  </outline>
</glyph>
<glyph name="bChBa" format="1">
  <advance width="394"/>
  <outline>
    <contour>
      <point x="407" y="20" type="line"/>
      <point x="325" y="83"/>
      <point x="266" y="124"/>
      <point x="191" y="149" type="curve"/>
      <point x="176" y="118" type="line"/>
      <point x="285" y="142"/>
      <point x="359" y="210"/>
      <point x="359" y="282" type="curve" smooth="yes"/>
      <point x="359" y="344"/>
      <point x="303" y="396"/>
      <point x="237" y="396" type="curve" smooth="yes"/>
      <point x="224" y="396"/>
      <point x="200" y="394"/>
      <point x="186" y="394" type="curve" smooth="yes"/>
      <point x="128" y="394"/>
      <point x="87" y="429"/>
      <point x="83" y="467" type="curve"/>
      <point x="44" y="467" type="line"/>
      <point x="44" y="309" type="line" smooth="yes"/>
      <point x="44" y="267"/>
      <point x="78" y="218"/>
      <point x="121" y="218" type="curve" smooth="yes"/>
      <point x="168" y="218"/>
      <point x="240" y="274"/>
      <point x="240" y="317" type="curve" smooth="yes"/>
      <point x="240" y="335"/>
      <point x="228" y="353"/>
      <point x="206" y="359" type="curve"/>
      <point x="172" y="351" type="line"/>
      <point x="184" y="347"/>
      <point x="188" y="339"/>
      <point x="188" y="331" type="curve" smooth="yes"/>
      <point x="188" y="304"/>
      <point x="135" y="260"/>
      <point x="106" y="260" type="curve" smooth="yes"/>
      <point x="91" y="260"/>
      <point x="84" y="271"/>
      <point x="84" y="295" type="curve" smooth="yes"/>
      <point x="84" y="458" type="line"/>
      <point x="66" y="444" type="line"/>
      <point x="85" y="389"/>
      <point x="145" y="347"/>
      <point x="202" y="347" type="curve" smooth="yes"/>
      <point x="219" y="347"/>
      <point x="241" y="351"/>
      <point x="260" y="351" type="curve" smooth="yes"/>
      <point x="300" y="351"/>
      <point x="315" y="332"/>
      <point x="315" y="306" type="curve" smooth="yes"/>
      <point x="315" y="245"/>
      <point x="230" y="173"/>
      <point x="140" y="173" type="curve" smooth="yes"/>
      <point x="116" y="173"/>
      <point x="86" y="178"/>
      <point x="56" y="186" type="curve"/>
      <point x="90" y="109" type="line"/>
      <point x="201" y="104"/>
      <point x="287" y="69"/>
      <point x="391" y="0" type="curve"/>
    </contour>
    <contour>
      <point x="334" y="-146" type="line"/>
      <point x="334" y="66" type="line"/>
      <point x="271" y="102" type="line"/>
      <point x="213" y="78"/>
      <point x="166" y="52"/>
      <point x="101" y="6" type="curve"/>
      <point x="140" y="-45" type="line"/>
      <point x="219" y="-52"/>
      <point x="290" y="-82"/>
      <point x="309" y="-146" type="curve"/>
    </contour>
    <contour>
      <point x="311" y="-104" type="line"/>
      <point x="279" y="-50"/>
      <point x="225" y="-15"/>
      <point x="158" y="2" type="curve"/>
      <point x="163" y="-20" type="line"/>
      <point x="218" y="21"/>
      <point x="269" y="48"/>
      <point x="315" y="64" type="curve"/>
      <point x="298" y="79" type="line"/>
      <point x="298" y="-105" type="line"/>
    </contour>
    <contour>
      <point x="406" y="456" type="line"/>
      <point x="406" y="491" type="line"/>
      <point x="-10" y="491" type="line"/>
      <point x="-10" y="456" type="line"/>
    </contour>
  </outline>
</glyph>
<glyph name="bChRa" format="1">
  <advance width="434"/>
  <outline>
    <contour>
      <point x="447" y="20" type="line"/>
      <point x="365" y="85"/>
      <point x="306" y="124"/>
      <point x="231" y="149" type="curve"/>
      <point x="216" y="118" type="line"/>
      <point x="325" y="142"/>
      <point x="399" y="210"/>
      <point x="399" y="282" type="curve" smooth="yes"/>
      <point x="399" y="344"/>
      <point x="343" y="396"/>
      <point x="277" y="396" type="curve" smooth="yes"/>
      <point x="264" y="396"/>
      <point x="240" y="394"/>
      <point x="226" y="394" type="curve" smooth="yes"/>
      <point x="168" y="394"/>
      <point x="127" y="429"/>
      <point x="123" y="467" type="curve"/>
      <point x="84" y="467" type="line"/>
      <point x="84" y="309" type="line" smooth="yes"/>
      <point x="84" y="267"/>
      <point x="118" y="218"/>
      <point x="161" y="218" type="curve" smooth="yes"/>
      <point x="208" y="218"/>
      <point x="280" y="274"/>
      <point x="280" y="317" type="curve" smooth="yes"/>
      <point x="280" y="335"/>
      <point x="268" y="353"/>
      <point x="246" y="359" type="curve"/>
      <point x="212" y="351" type="line"/>
      <point x="224" y="347"/>
      <point x="228" y="339"/>
      <point x="228" y="331" type="curve" smooth="yes"/>
      <point x="228" y="304"/>
      <point x="175" y="260"/>
      <point x="146" y="260" type="curve" smooth="yes"/>
      <point x="131" y="260"/>
      <point x="124" y="271"/>
      <point x="124" y="295" type="curve" smooth="yes"/>
      <point x="124" y="458" type="line"/>
      <point x="106" y="444" type="line"/>
      <point x="125" y="389"/>
      <point x="185" y="347"/>
      <point x="242" y="347" type="curve" smooth="yes"/>
      <point x="259" y="347"/>
      <point x="281" y="351"/>
      <point x="300" y="351" type="curve" smooth="yes"/>
      <point x="340" y="351"/>
      <point x="355" y="332"/>
      <point x="355" y="307" type="curve" smooth="yes"/>
      <point x="355" y="246"/>
      <point x="271" y="173"/>
      <point x="180" y="173" type="curve" smooth="yes"/>
      <point x="156" y="173"/>
      <point x="126" y="178"/>
      <point x="96" y="186" type="curve"/>
      <point x="130" y="109" type="line"/>
      <point x="241" y="104"/>
      <point x="327" y="71"/>
      <point x="431" y="0" type="curve"/>
    </contour>
    <contour>
      <point x="369" y="-101" type="line"/>
      <point x="369" y="67" type="line"/>
      <point x="334" y="67" type="line"/>
      <point x="334" y="-47" type="line"/>
      <point x="349" y="-64" type="line"/>
      <point x="328" y="-4"/>
      <point x="286" y="25"/>
      <point x="231" y="25" type="curve" smooth="yes"/>
      <point x="209" y="25"/>
      <point x="161" y="20"/>
      <point x="135" y="20" type="curve" smooth="yes"/>
      <point x="82" y="20"/>
      <point x="53" y="40"/>
      <point x="53" y="90" type="curve" smooth="yes"/>
      <point x="53" y="103"/>
      <point x="55" y="122"/>
      <point x="64" y="145" type="curve"/>
      <point x="43" y="154" type="line"/>
      <point x="32" y="129"/>
      <point x="28" y="104"/>
      <point x="28" y="85" type="curve" smooth="yes"/>
      <point x="28" y="13"/>
      <point x="84" y="-33"/>
      <point x="157" y="-33" type="curve" smooth="yes"/>
      <point x="185" y="-33"/>
      <point x="238" y="-26"/>
      <point x="261" y="-26" type="curve" smooth="yes"/>
      <point x="315" y="-26"/>
      <point x="342" y="-64"/>
      <point x="344" y="-101" type="curve"/>
    </contour>
    <contour>
      <point x="446" y="456" type="line"/>
      <point x="446" y="491" type="line"/>
      <point x="-10" y="491" type="line"/>
      <point x="-10" y="456" type="line"/>
    </contour>
  </outline>
</glyph>
<glyph name="bDBhRa" format="1">
  <advance width="447"/>
  <outline>
    <contour>
      <point x="423" y="-128" type="line"/>
      <point x="423" y="78" type="line" smooth="yes"/>
      <point x="423" y="125"/>
      <point x="401" y="178"/>
      <point x="361" y="204" type="curve"/>
      <point x="333" y="154"/>
      <point x="284" y="119"/>
      <point x="237" y="119" type="curve" smooth="yes"/>
      <point x="226" y="119"/>
      <point x="216" y="121"/>
      <point x="207" y="126" type="curve"/>
      <point x="225" y="96" type="line"/>
      <point x="240" y="104"/>
      <point x="250" y="121"/>
      <point x="250" y="142" type="curve" smooth="yes"/>
      <point x="250" y="176"/>
      <point x="223" y="194"/>
      <point x="196" y="194" type="curve" smooth="yes"/>
      <point x="166" y="194"/>
      <point x="142" y="171"/>
      <point x="142" y="138" type="curve" smooth="yes"/>
      <point x="142" y="96"/>
      <point x="181" y="61"/>
      <point x="239" y="61" type="curve" smooth="yes"/>
      <point x="308" y="61"/>
      <point x="369" y="109"/>
      <point x="398" y="158" type="curve"/>
      <point x="371" y="149" type="line"/>
      <point x="379" y="136"/>
      <point x="383" y="115"/>
      <point x="383" y="92" type="curve" smooth="yes"/>
      <point x="383" y="-67" type="line"/>
      <point x="394" y="-75" type="line"/>
      <point x="381" y="-37"/>
      <point x="349" y="-9"/>
      <point x="301" y="-9" type="curve" smooth="yes"/>
      <point x="273" y="-9"/>
      <point x="184" y="-19"/>
      <point x="151" y="-19" type="curve" smooth="yes"/>
      <point x="83" y="-19"/>
      <point x="54" y="24"/>
      <point x="54" y="73" type="curve" smooth="yes"/>
      <point x="54" y="105"/>
      <point x="67" y="134"/>
      <point x="81" y="156" type="curve"/>
      <point x="61" y="168" type="line"/>
      <point x="37" y="136"/>
      <point x="25" y="101"/>
      <point x="25" y="65" type="curve" smooth="yes"/>
      <point x="25" y="-16"/>
      <point x="88" y="-77"/>
      <point x="177" y="-77" type="curve" smooth="yes"/>
      <point x="215" y="-77"/>
      <point x="300" y="-66"/>
      <point x="332" y="-66" type="curve" smooth="yes"/>
      <point x="373" y="-66"/>
      <point x="393" y="-84"/>
      <point x="398" y="-128" type="curve"/>
    </contour>
    <contour>
      <point x="320" y="145"/>
      <point x="314" y="181"/>
      <point x="314" y="218" type="curve" smooth="yes"/>
      <point x="314" y="281"/>
      <point x="332" y="335"/>
      <point x="381" y="382" type="curve"/>
      <point x="329" y="432" type="line"/>
      <point x="243" y="406"/>
      <point x="170" y="351"/>
      <point x="125" y="286" type="curve"/>
      <point x="136" y="275" type="line"/>
      <point x="136" y="467" type="line"/>
      <point x="96" y="467" type="line"/>
      <point x="96" y="264" type="line"/>
      <point x="149" y="217" type="line"/>
      <point x="196" y="293"/>
      <point x="261" y="341"/>
      <point x="337" y="378" type="curve"/>
      <point x="318" y="385" type="line"/>
      <point x="292" y="357"/>
      <point x="275" y="303"/>
      <point x="275" y="251" type="curve" smooth="yes"/>
      <point x="275" y="215"/>
      <point x="283" y="166"/>
      <point x="295" y="127" type="curve"/>
      <point x="332" y="101" type="line"/>
    </contour>
    <contour>
      <point x="457" y="456" type="line"/>
      <point x="457" y="491" type="line"/>
      <point x="-10" y="491" type="line"/>
      <point x="-10" y="456" type="line"/>
    </contour>
  </outline>
</glyph>
<glyph name="bDBha" format="1">
  <advance width="528"/>
  <outline>
    <contour>
      <point x="447" y="-74"/>
      <point x="517" y="-17"/>
      <point x="517" y="68" type="curve" smooth="yes"/>
      <point x="517" y="119"/>
      <point x="492" y="167"/>
      <point x="449" y="207" type="curve"/>
      <point x="415" y="154"/>
      <point x="363" y="119"/>
      <point x="309" y="119" type="curve" smooth="yes"/>
      <point x="297" y="119"/>
      <point x="287" y="121"/>
      <point x="278" y="126" type="curve"/>
      <point x="296" y="96" type="line"/>
      <point x="311" y="104"/>
      <point x="321" y="121"/>
      <point x="321" y="142" type="curve" smooth="yes"/>
      <point x="321" y="176"/>
      <point x="294" y="194"/>
      <point x="267" y="194" type="curve" smooth="yes"/>
      <point x="237" y="194"/>
      <point x="213" y="171"/>
      <point x="213" y="138" type="curve" smooth="yes"/>
      <point x="213" y="96"/>
      <point x="252" y="61"/>
      <point x="311" y="61" type="curve" smooth="yes"/>
      <point x="380" y="61"/>
      <point x="446" y="108"/>
      <point x="479" y="158" type="curve"/>
      <point x="456" y="149" type="line"/>
      <point x="470" y="136"/>
      <point x="478" y="115"/>
      <point x="478" y="92" type="curve" smooth="yes"/>
      <point x="478" y="32"/>
      <point x="425" y="-15"/>
      <point x="350" y="-15" type="curve" smooth="yes"/>
      <point x="223" y="-15"/>
      <point x="110" y="119"/>
      <point x="33" y="393" type="curve"/>
      <point x="6" y="385" type="line"/>
      <point x="83" y="93"/>
      <point x="204" y="-74"/>
      <point x="357" y="-74" type="curve" smooth="yes"/>
    </contour>
    <contour>
      <point x="391" y="145"/>
      <point x="385" y="181"/>
      <point x="385" y="218" type="curve" smooth="yes"/>
      <point x="385" y="281"/>
      <point x="403" y="335"/>
      <point x="452" y="382" type="curve"/>
      <point x="400" y="432" type="line"/>
      <point x="314" y="406"/>
      <point x="241" y="351"/>
      <point x="196" y="286" type="curve"/>
      <point x="207" y="275" type="line"/>
      <point x="207" y="467" type="line"/>
      <point x="167" y="467" type="line"/>
      <point x="167" y="264" type="line"/>
      <point x="220" y="217" type="line"/>
      <point x="267" y="292"/>
      <point x="333" y="341"/>
      <point x="408" y="378" type="curve"/>
      <point x="389" y="385" type="line"/>
      <point x="363" y="357"/>
      <point x="346" y="303"/>
      <point x="346" y="251" type="curve" smooth="yes"/>
      <point x="346" y="212"/>
      <point x="355" y="159"/>
      <point x="369" y="117" type="curve"/>
      <point x="403" y="101" type="line"/>
    </contour>
    <contour>
      <point x="538" y="456" type="line"/>
      <point x="538" y="491" type="line"/>
      <point x="-10" y="491" type="line"/>
      <point x="-10" y="456" type="line"/>
    </contour>
  </outline>
</glyph>
<glyph name="bDDBa" format="1">
  <advance width="527"/>
  <outline>
    <contour>
      <point x="460" y="-121" type="line"/>
      <point x="442" y="-39"/>
      <point x="433" y="33"/>
      <point x="433" y="90" type="curve" smooth="yes"/>
      <point x="433" y="159"/>
      <point x="454" y="216"/>
      <point x="507" y="274" type="curve"/>
      <point x="450" y="330" type="line"/>
      <point x="364" y="295"/>
      <point x="291" y="229"/>
      <point x="256" y="151" type="curve"/>
      <point x="260" y="148" type="line"/>
      <point x="260" y="241"/>
      <point x="281" y="300"/>
      <point x="334" y="364" type="curve"/>
      <point x="277" y="420" type="line"/>
      <point x="191" y="385"/>
      <point x="118" y="319"/>
      <point x="73" y="241" type="curve"/>
      <point x="84" y="230" type="line"/>
      <point x="84" y="467" type="line"/>
      <point x="44" y="467" type="line"/>
      <point x="44" y="219" type="line"/>
      <point x="97" y="166" type="line"/>
      <point x="144" y="257"/>
      <point x="206" y="320"/>
      <point x="283" y="356" type="curve"/>
      <point x="271" y="367" type="line"/>
      <point x="242" y="330"/>
      <point x="223" y="265"/>
      <point x="223" y="192" type="curve" smooth="yes"/>
      <point x="223" y="168"/>
      <point x="225" y="145"/>
      <point x="228" y="122" type="curve"/>
      <point x="280" y="76" type="line"/>
      <point x="317" y="167"/>
      <point x="379" y="230"/>
      <point x="456" y="266" type="curve"/>
      <point x="444" y="277" type="line"/>
      <point x="415" y="244"/>
      <point x="396" y="187"/>
      <point x="396" y="119" type="curve" smooth="yes"/>
      <point x="396" y="56"/>
      <point x="407" y="-20"/>
      <point x="434" y="-126" type="curve"/>
    </contour>
    <contour>
      <point x="447" y="-113" type="line"/>
      <point x="417" y="-64"/>
      <point x="367" y="-33"/>
      <point x="306" y="-17" type="curve"/>
      <point x="311" y="-37" type="line"/>
      <point x="353" y="-3"/>
      <point x="392" y="21"/>
      <point x="428" y="38" type="curve"/>
      <point x="407" y="89" type="line"/>
      <point x="355" y="61"/>
      <point x="311" y="34"/>
      <point x="249" y="-13" type="curve"/>
      <point x="288" y="-62" type="line"/>
      <point x="348" y="-67"/>
      <point x="404" y="-77"/>
      <point x="434" y="-126" type="curve"/>
    </contour>
    <contour>
      <point x="537" y="456" type="line"/>
      <point x="537" y="491" type="line"/>
      <point x="-10" y="491" type="line"/>
      <point x="-10" y="456" type="line"/>
    </contour>
  </outline>
</glyph>
<glyph name="bDDRa" format="1">
  <advance width="577"/>
  <outline>
    <contour>
      <point x="499" y="-55" type="line"/>
      <point x="488" y="0"/>
      <point x="483" y="55"/>
      <point x="483" y="91" type="curve" smooth="yes"/>
      <point x="483" y="160"/>
      <point x="502" y="221"/>
      <point x="557" y="284" type="curve"/>
      <point x="500" y="340" type="line"/>
      <point x="414" y="307"/>
      <point x="341" y="245"/>
      <point x="306" y="171" type="curve"/>
      <point x="310" y="168" type="line"/>
      <point x="310" y="253"/>
      <point x="331" y="306"/>
      <point x="384" y="364" type="curve"/>
      <point x="327" y="420" type="line"/>
      <point x="245" y="385"/>
      <point x="176" y="319"/>
      <point x="133" y="241" type="curve"/>
      <point x="144" y="230" type="line"/>
      <point x="144" y="467" type="line"/>
      <point x="104" y="467" type="line"/>
      <point x="104" y="219" type="line"/>
      <point x="157" y="166" type="line"/>
      <point x="196" y="250"/>
      <point x="254" y="312"/>
      <point x="313" y="346" type="curve"/>
      <point x="321" y="367" type="line"/>
      <point x="292" y="332"/>
      <point x="273" y="270"/>
      <point x="273" y="202" type="curve" smooth="yes"/>
      <point x="273" y="180"/>
      <point x="275" y="162"/>
      <point x="278" y="142" type="curve"/>
      <point x="330" y="96" type="line"/>
      <point x="363" y="175"/>
      <point x="423" y="234"/>
      <point x="486" y="266" type="curve"/>
      <point x="494" y="287" type="line"/>
      <point x="465" y="252"/>
      <point x="446" y="191"/>
      <point x="446" y="118" type="curve" smooth="yes"/>
      <point x="446" y="85"/>
      <point x="450" y="46"/>
      <point x="458" y="2" type="curve"/>
      <point x="473" y="-23" type="line"/>
      <point x="458" y="17"/>
      <point x="422" y="51"/>
      <point x="351" y="51" type="curve" smooth="yes"/>
      <point x="316" y="51"/>
      <point x="213" y="43"/>
      <point x="172" y="43" type="curve" smooth="yes"/>
      <point x="109" y="43"/>
      <point x="72" y="62"/>
      <point x="72" y="108" type="curve" smooth="yes"/>
      <point x="72" y="121"/>
      <point x="75" y="140"/>
      <point x="83" y="161" type="curve"/>
      <point x="61" y="170" type="line"/>
      <point x="52" y="151"/>
      <point x="46" y="127"/>
      <point x="46" y="106" type="curve" smooth="yes"/>
      <point x="46" y="39"/>
      <point x="107" y="-12"/>
      <point x="192" y="-12" type="curve" smooth="yes"/>
      <point x="235" y="-12"/>
      <point x="367" y="1"/>
      <point x="400" y="1" type="curve" smooth="yes"/>
      <point x="447" y="1"/>
      <point x="465" y="-26"/>
      <point x="473" y="-60" type="curve"/>
    </contour>
    <contour>
      <point x="587" y="456" type="line"/>
      <point x="587" y="491" type="line"/>
      <point x="-10" y="491" type="line"/>
      <point x="-10" y="456" type="line"/>
    </contour>
  </outline>
</glyph>
<glyph name="bDDa" format="1">
  <advance width="527"/>
  <outline>
    <contour>
      <point x="449" y="-45" type="line"/>
      <point x="438" y="6"/>
      <point x="433" y="57"/>
      <point x="433" y="90" type="curve" smooth="yes"/>
      <point x="433" y="159"/>
      <point x="454" y="216"/>
      <point x="507" y="274" type="curve"/>
      <point x="450" y="330" type="line"/>
      <point x="364" y="295"/>
      <point x="291" y="229"/>
      <point x="256" y="151" type="curve"/>
      <point x="260" y="148" type="line"/>
      <point x="260" y="241"/>
      <point x="281" y="300"/>
      <point x="334" y="364" type="curve"/>
      <point x="277" y="420" type="line"/>
      <point x="191" y="385"/>
      <point x="118" y="319"/>
      <point x="73" y="241" type="curve"/>
      <point x="84" y="230" type="line"/>
      <point x="84" y="467" type="line"/>
      <point x="44" y="467" type="line"/>
      <point x="44" y="219" type="line"/>
      <point x="97" y="166" type="line"/>
      <point x="144" y="257"/>
      <point x="206" y="320"/>
      <point x="283" y="356" type="curve"/>
      <point x="271" y="367" type="line"/>
      <point x="242" y="330"/>
      <point x="223" y="265"/>
      <point x="223" y="192" type="curve" smooth="yes"/>
      <point x="223" y="168"/>
      <point x="225" y="145"/>
      <point x="228" y="122" type="curve"/>
      <point x="280" y="76" type="line"/>
      <point x="317" y="167"/>
      <point x="378" y="230"/>
      <point x="456" y="266" type="curve"/>
      <point x="444" y="277" type="line"/>
      <point x="415" y="244"/>
      <point x="396" y="187"/>
      <point x="396" y="119" type="curve" smooth="yes"/>
      <point x="396" y="73"/>
      <point x="405" y="12"/>
      <point x="423" y="-50" type="curve"/>
    </contour>
    <contour>
      <point x="537" y="456" type="line"/>
      <point x="537" y="491" type="line"/>
      <point x="-10" y="491" type="line"/>
      <point x="-10" y="456" type="line"/>
    </contour>
  </outline>
</glyph>
<glyph name="bDDhBa" format="1">
  <advance width="529"/>
  <outline>
    <contour>
      <point x="351" y="98" type="line"/>
      <point x="351" y="327" type="line" smooth="yes"/>
      <point x="351" y="371"/>
      <point x="305" y="420"/>
      <point x="259" y="420" type="curve" smooth="yes"/>
      <point x="213" y="420"/>
      <point x="130" y="367"/>
      <point x="73" y="278" type="curve"/>
      <point x="84" y="270" type="line"/>
      <point x="84" y="467" type="line"/>
      <point x="44" y="467" type="line"/>
      <point x="44" y="259" type="line"/>
      <point x="97" y="216" type="line"/>
      <point x="143" y="305"/>
      <point x="238" y="374"/>
      <point x="283" y="374" type="curve" smooth="yes"/>
      <point x="300" y="374"/>
      <point x="311" y="365"/>
      <point x="311" y="339" type="curve" smooth="yes"/>
      <point x="311" y="98" type="line"/>
    </contour>
    <contour>
      <point x="351" y="-90" type="line"/>
      <point x="351" y="140" type="line"/>
      <point x="335" y="167" type="line"/>
      <point x="267" y="134"/>
      <point x="221" y="108"/>
      <point x="149" y="52" type="curve"/>
      <point x="185" y="1" type="line"/>
      <point x="251" y="-5"/>
      <point x="311" y="-32"/>
      <point x="326" y="-90" type="curve"/>
    </contour>
    <contour>
      <point x="328" y="-48" type="line"/>
      <point x="301" y="1"/>
      <point x="256" y="33"/>
      <point x="201" y="48" type="curve"/>
      <point x="206" y="31" type="line"/>
      <point x="252" y="68"/>
      <point x="294" y="95"/>
      <point x="332" y="111" type="curve"/>
      <point x="311" y="125" type="line"/>
      <point x="311" y="-39" type="line"/>
    </contour>
    <contour>
      <point x="512" y="2" type="line"/>
      <point x="494" y="20"/>
      <point x="484" y="44"/>
      <point x="484" y="72" type="curve" smooth="yes"/>
      <point x="484" y="275" type="line" smooth="yes"/>
      <point x="484" y="312"/>
      <point x="447" y="352"/>
      <point x="417" y="352" type="curve" smooth="yes"/>
      <point x="398" y="352"/>
      <point x="361" y="337"/>
      <point x="326" y="312" type="curve"/>
      <point x="339" y="265" type="line"/>
      <point x="374" y="290"/>
      <point x="413" y="309"/>
      <point x="432" y="309" type="curve" smooth="yes"/>
      <point x="440" y="309"/>
      <point x="444" y="305"/>
      <point x="444" y="294" type="curve" smooth="yes"/>
      <point x="444" y="92" type="line" smooth="yes"/>
      <point x="444" y="37"/>
      <point x="467" y="9"/>
      <point x="501" y="-15" type="curve"/>
    </contour>
    <contour>
      <point x="539" y="456" type="line"/>
      <point x="539" y="491" type="line"/>
      <point x="-10" y="491" type="line"/>
      <point x="-10" y="456" type="line"/>
    </contour>
    <contour>
      <point x="269" y="113" type="line"/>
      <point x="235" y="140"/>
      <point x="193" y="159"/>
      <point x="147" y="167" type="curve"/>
      <point x="151" y="144" type="line"/>
      <point x="205" y="189"/>
      <point x="278" y="234"/>
      <point x="341" y="265" type="curve"/>
      <point x="322" y="309" type="line"/>
      <point x="260" y="281"/>
      <point x="174" y="227"/>
      <point x="101" y="169" type="curve"/>
      <point x="143" y="117" type="line"/>
      <point x="181" y="115"/>
      <point x="215" y="105"/>
      <point x="244" y="90" type="curve"/>
    </contour>
  </outline>
</glyph>
<glyph name="bDDha" format="1">
  <advance width="529"/>
  <outline>
    <contour>
      <point x="351" y="-30" type="line"/>
      <point x="351" y="317" type="line" smooth="yes"/>
      <point x="351" y="361"/>
      <point x="305" y="410"/>
      <point x="259" y="410" type="curve" smooth="yes"/>
      <point x="213" y="410"/>
      <point x="130" y="361"/>
      <point x="73" y="278" type="curve"/>
      <point x="84" y="270" type="line"/>
      <point x="84" y="467" type="line"/>
      <point x="44" y="467" type="line"/>
      <point x="44" y="259" type="line"/>
      <point x="97" y="216" type="line"/>
      <point x="143" y="299"/>
      <point x="238" y="364"/>
      <point x="283" y="364" type="curve" smooth="yes"/>
      <point x="300" y="364"/>
      <point x="311" y="355"/>
      <point x="311" y="329" type="curve" smooth="yes"/>
      <point x="311" y="30" type="line"/>
      <point x="329" y="19" type="line"/>
      <point x="298" y="84"/>
      <point x="228" y="133"/>
      <point x="147" y="147" type="curve"/>
      <point x="152" y="121" type="line"/>
      <point x="211" y="170"/>
      <point x="278" y="214"/>
      <point x="341" y="245" type="curve"/>
      <point x="330" y="292" type="line"/>
      <point x="266" y="267"/>
      <point x="183" y="215"/>
      <point x="101" y="149" type="curve"/>
      <point x="143" y="97" type="line"/>
      <point x="234" y="91"/>
      <point x="306" y="45"/>
      <point x="331" y="-30" type="curve"/>
    </contour>
    <contour>
      <point x="512" y="-8" type="line"/>
      <point x="494" y="10"/>
      <point x="484" y="34"/>
      <point x="484" y="62" type="curve" smooth="yes"/>
      <point x="484" y="245" type="line" smooth="yes"/>
      <point x="484" y="283"/>
      <point x="448" y="324"/>
      <point x="416" y="324" type="curve" smooth="yes"/>
      <point x="399" y="324"/>
      <point x="361" y="312"/>
      <point x="326" y="292" type="curve"/>
      <point x="339" y="245" type="line"/>
      <point x="374" y="265"/>
      <point x="414" y="281"/>
      <point x="431" y="281" type="curve" smooth="yes"/>
      <point x="440" y="281"/>
      <point x="444" y="277"/>
      <point x="444" y="264" type="curve" smooth="yes"/>
      <point x="444" y="82" type="line" smooth="yes"/>
      <point x="444" y="27"/>
      <point x="467" y="-1"/>
      <point x="501" y="-25" type="curve"/>
    </contour>
    <contour>
      <point x="539" y="456" type="line"/>
      <point x="539" y="491" type="line"/>
      <point x="-10" y="491" type="line"/>
      <point x="-10" y="456" type="line"/>
    </contour>
  </outline>
</glyph>
<glyph name="bDGa" format="1">
  <advance width="776"/>
  <outline>
    <contour>
      <point x="706" y="0" type="line"/>
      <point x="706" y="456" type="line"/>
      <point x="786" y="456" type="line"/>
      <point x="786" y="491" type="line"/>
      <point x="666" y="491" type="line"/>
      <point x="666" y="334" type="line"/>
      <point x="685" y="336" type="line"/>
      <point x="658" y="430"/>
      <point x="588" y="500"/>
      <point x="504" y="500" type="curve" smooth="yes"/>
      <point x="414" y="500"/>
      <point x="346" y="420"/>
      <point x="346" y="338" type="curve" smooth="yes"/>
      <point x="346" y="295"/>
      <point x="368" y="268"/>
      <point x="392" y="268" type="curve" smooth="yes"/>
      <point x="432" y="268"/>
      <point x="459" y="327"/>
      <point x="512" y="327" type="curve" smooth="yes"/>
      <point x="533" y="327"/>
      <point x="547" y="318"/>
      <point x="547" y="295" type="curve" smooth="yes"/>
      <point x="547" y="258"/>
      <point x="512" y="199"/>
      <point x="442" y="141" type="curve"/>
      <point x="490" y="101" type="line"/>
      <point x="548" y="156"/>
      <point x="581" y="214"/>
      <point x="581" y="266" type="curve" smooth="yes"/>
      <point x="581" y="318"/>
      <point x="548" y="372"/>
      <point x="490" y="372" type="curve" smooth="yes"/>
      <point x="459" y="372"/>
      <point x="420" y="353"/>
      <point x="386" y="312" type="curve"/>
      <point x="412" y="297" type="line"/>
      <point x="403" y="307"/>
      <point x="399" y="317"/>
      <point x="399" y="327" type="curve" smooth="yes"/>
      <point x="399" y="389"/>
      <point x="449" y="447"/>
      <point x="520" y="447" type="curve" smooth="yes"/>
      <point x="602" y="447"/>
      <point x="666" y="374"/>
      <point x="666" y="284" type="curve" smooth="yes"/>
      <point x="666" y="0" type="line"/>
    </contour>
    <contour>
      <point x="295" y="-5" type="line"/>
      <point x="285" y="54"/>
      <point x="280" y="113"/>
      <point x="280" y="149" type="curve" smooth="yes"/>
      <point x="280" y="226"/>
      <point x="302" y="287"/>
      <point x="357" y="350" type="curve"/>
      <point x="300" y="406" type="line"/>
      <point x="205" y="375"/>
      <point x="123" y="307"/>
      <point x="73" y="231" type="curve"/>
      <point x="84" y="220" type="line"/>
      <point x="84" y="467" type="line"/>
      <point x="44" y="467" type="line"/>
      <point x="44" y="209" type="line"/>
      <point x="91" y="148" type="line"/>
      <point x="151" y="248"/>
      <point x="220" y="310"/>
      <point x="302" y="345" type="curve"/>
      <point x="291" y="357" type="line"/>
      <point x="262" y="320"/>
      <point x="243" y="256"/>
      <point x="243" y="180" type="curve" smooth="yes"/>
      <point x="243" y="128"/>
      <point x="252" y="59"/>
      <point x="269" y="-10" type="curve"/>
    </contour>
    <contour>
      <point x="357" y="456" type="line"/>
      <point x="357" y="491" type="line"/>
      <point x="-10" y="491" type="line"/>
      <point x="-10" y="456" type="line"/>
    </contour>
  </outline>
</glyph>
<glyph name="bDGha" format="1">
  <advance width="718"/>
  <outline>
    <contour>
      <point x="295" y="-5" type="line"/>
      <point x="285" y="54"/>
      <point x="280" y="113"/>
      <point x="280" y="149" type="curve" smooth="yes"/>
      <point x="280" y="226"/>
      <point x="302" y="287"/>
      <point x="357" y="350" type="curve"/>
      <point x="300" y="406" type="line"/>
      <point x="205" y="375"/>
      <point x="123" y="307"/>
      <point x="73" y="231" type="curve"/>
      <point x="84" y="220" type="line"/>
      <point x="84" y="467" type="line"/>
      <point x="44" y="467" type="line"/>
      <point x="44" y="209" type="line"/>
      <point x="91" y="148" type="line"/>
      <point x="151" y="248"/>
      <point x="220" y="310"/>
      <point x="302" y="345" type="curve"/>
      <point x="291" y="357" type="line"/>
      <point x="262" y="320"/>
      <point x="243" y="256"/>
      <point x="243" y="180" type="curve" smooth="yes"/>
      <point x="243" y="128"/>
      <point x="252" y="59"/>
      <point x="269" y="-10" type="curve"/>
    </contour>
    <contour>
      <point x="357" y="456" type="line"/>
      <point x="357" y="491" type="line"/>
      <point x="-10" y="491" type="line"/>
      <point x="-10" y="456" type="line"/>
    </contour>
    <contour>
      <point x="648" y="0" type="line"/>
      <point x="648" y="467" type="line"/>
      <point x="608" y="467" type="line"/>
      <point x="608" y="59" type="line"/>
      <point x="628" y="55" type="line"/>
      <point x="585" y="159"/>
      <point x="496" y="226"/>
      <point x="389" y="249" type="curve"/>
      <point x="397" y="208" type="line"/>
      <point x="556" y="332" type="line"/>
      <point x="515" y="377" type="line"/>
      <point x="348" y="244" type="line"/>
      <point x="389" y="193" type="line"/>
      <point x="515" y="182"/>
      <point x="606" y="93"/>
      <point x="623" y="0" type="curve"/>
    </contour>
    <contour>
      <point x="455" y="307"/>
      <point x="476" y="311"/>
      <point x="495" y="319" type="curve"/>
      <point x="492" y="357" type="line"/>
      <point x="476" y="345"/>
      <point x="454" y="337"/>
      <point x="435" y="337" type="curve" smooth="yes"/>
      <point x="402" y="337"/>
      <point x="382" y="359"/>
      <point x="382" y="388" type="curve" smooth="yes"/>
      <point x="382" y="422"/>
      <point x="409" y="456"/>
      <point x="455" y="456" type="curve"/>
      <point x="370" y="478" type="line"/>
      <point x="344" y="462"/>
      <point x="328" y="432"/>
      <point x="328" y="403" type="curve" smooth="yes"/>
      <point x="328" y="348"/>
      <point x="381" y="307"/>
      <point x="437" y="307" type="curve" smooth="yes"/>
    </contour>
    <contour>
      <point x="728" y="456" type="line"/>
      <point x="728" y="491" type="line"/>
      <point x="249" y="491" type="line"/>
      <point x="261" y="456" type="line"/>
    </contour>
  </outline>
</glyph>
<glyph name="bDMa" format="1">
  <advance width="500"/>
  <outline>
    <contour>
      <point x="430" y="-40" type="line"/>
      <point x="430" y="467" type="line"/>
      <point x="390" y="467" type="line"/>
      <point x="390" y="25" type="line"/>
      <point x="415" y="12" type="line"/>
      <point x="389" y="95"/>
      <point x="318" y="155"/>
      <point x="250" y="155" type="curve" smooth="yes"/>
      <point x="203" y="155"/>
      <point x="166" y="126"/>
      <point x="166" y="84" type="curve" smooth="yes"/>
      <point x="166" y="47"/>
      <point x="195" y="21"/>
      <point x="230" y="21" type="curve" smooth="yes"/>
      <point x="266" y="21"/>
      <point x="291" y="48"/>
      <point x="291" y="82" type="curve" smooth="yes"/>
      <point x="291" y="97"/>
      <point x="286" y="115"/>
      <point x="269" y="129" type="curve"/>
      <point x="247" y="82" type="line"/>
      <point x="258" y="90"/>
      <point x="269" y="93"/>
      <point x="283" y="93" type="curve" smooth="yes"/>
      <point x="340" y="93"/>
      <point x="397" y="43"/>
      <point x="407" y="-40" type="curve"/>
    </contour>
    <contour>
      <point x="278" y="130"/>
      <point x="272" y="166"/>
      <point x="272" y="205" type="curve" smooth="yes"/>
      <point x="272" y="274"/>
      <point x="290" y="320"/>
      <point x="329" y="367" type="curve"/>
      <point x="277" y="420" type="line"/>
      <point x="191" y="385"/>
      <point x="118" y="319"/>
      <point x="73" y="241" type="curve"/>
      <point x="84" y="230" type="line"/>
      <point x="84" y="467" type="line"/>
      <point x="44" y="467" type="line"/>
      <point x="44" y="219" type="line"/>
      <point x="97" y="166" type="line"/>
      <point x="144" y="256"/>
      <point x="205" y="320"/>
      <point x="285" y="361" type="curve"/>
      <point x="266" y="370" type="line"/>
      <point x="248" y="340"/>
      <point x="233" y="288"/>
      <point x="233" y="237" type="curve" smooth="yes"/>
      <point x="233" y="200"/>
      <point x="241" y="151"/>
      <point x="253" y="112" type="curve"/>
      <point x="290" y="86" type="line"/>
    </contour>
    <contour>
      <point x="510" y="456" type="line"/>
      <point x="510" y="491" type="line"/>
      <point x="-10" y="491" type="line"/>
      <point x="-10" y="456" type="line"/>
    </contour>
  </outline>
</glyph>
<glyph name="bDNa" format="1">
  <advance width="392"/>
  <outline>
    <contour>
      <point x="157" y="-27"/>
      <point x="181" y="-3"/>
      <point x="181" y="28" type="curve" smooth="yes"/>
      <point x="181" y="47"/>
      <point x="171" y="69"/>
      <point x="148" y="79" type="curve"/>
      <point x="141" y="52" type="line"/>
      <point x="152" y="65"/>
      <point x="165" y="71"/>
      <point x="183" y="71" type="curve" smooth="yes"/>
      <point x="228" y="71"/>
      <point x="281" y="33"/>
      <point x="299" y="-36" type="curve"/>
      <point x="321" y="-31" type="line"/>
      <point x="307" y="45"/>
      <point x="300" y="124"/>
      <point x="300" y="168" type="curve" smooth="yes"/>
      <point x="300" y="247"/>
      <point x="323" y="303"/>
      <point x="372" y="360" type="curve"/>
      <point x="315" y="416" type="line"/>
      <point x="220" y="385"/>
      <point x="138" y="317"/>
      <point x="88" y="241" type="curve"/>
      <point x="99" y="230" type="line"/>
      <point x="99" y="467" type="line"/>
      <point x="59" y="467" type="line"/>
      <point x="59" y="219" type="line"/>
      <point x="106" y="161" type="line"/>
      <point x="167" y="258"/>
      <point x="235" y="320"/>
      <point x="317" y="355" type="curve"/>
      <point x="306" y="367" type="line"/>
      <point x="277" y="326"/>
      <point x="263" y="273"/>
      <point x="263" y="186" type="curve" smooth="yes"/>
      <point x="263" y="140"/>
      <point x="267" y="100"/>
      <point x="287" y="8" type="curve"/>
      <point x="302" y="9" type="line"/>
      <point x="274" y="72"/>
      <point x="221" y="119"/>
      <point x="154" y="119" type="curve" smooth="yes"/>
      <point x="96" y="119"/>
      <point x="60" y="84"/>
      <point x="60" y="40" type="curve" smooth="yes"/>
      <point x="60" y="1"/>
      <point x="88" y="-27"/>
      <point x="124" y="-27" type="curve" smooth="yes"/>
    </contour>
    <contour>
      <point x="402" y="456" type="line"/>
      <point x="402" y="491" type="line"/>
      <point x="-10" y="491" type="line"/>
      <point x="-10" y="456" type="line"/>
    </contour>
  </outline>
</glyph>
<glyph name="bDRa" format="1">
  <advance width="445"/>
  <outline>
    <contour>
      <point x="374" y="4" type="line"/>
      <point x="360" y="67"/>
      <point x="353" y="131"/>
      <point x="353" y="172" type="curve" smooth="yes"/>
      <point x="353" y="246"/>
      <point x="376" y="303"/>
      <point x="425" y="360" type="curve"/>
      <point x="368" y="416" type="line"/>
      <point x="273" y="385"/>
      <point x="191" y="317"/>
      <point x="141" y="241" type="curve"/>
      <point x="152" y="230" type="line"/>
      <point x="152" y="467" type="line"/>
      <point x="112" y="467" type="line"/>
      <point x="112" y="219" type="line"/>
      <point x="159" y="161" type="line"/>
      <point x="220" y="258"/>
      <point x="288" y="320"/>
      <point x="370" y="355" type="curve"/>
      <point x="359" y="367" type="line"/>
      <point x="333" y="332"/>
      <point x="316" y="272"/>
      <point x="316" y="200" type="curve" smooth="yes"/>
      <point x="316" y="158"/>
      <point x="322" y="101"/>
      <point x="335" y="43" type="curve"/>
      <point x="350" y="36" type="line"/>
      <point x="335" y="79"/>
      <point x="291" y="110"/>
      <point x="234" y="110" type="curve" smooth="yes"/>
      <point x="205" y="110"/>
      <point x="154" y="102"/>
      <point x="127" y="102" type="curve" smooth="yes"/>
      <point x="81" y="102"/>
      <point x="50" y="126"/>
      <point x="50" y="175" type="curve" smooth="yes"/>
      <point x="50" y="194"/>
      <point x="55" y="221"/>
      <point x="63" y="241" type="curve"/>
      <point x="42" y="250" type="line"/>
      <point x="30" y="226"/>
      <point x="23" y="194"/>
      <point x="23" y="169" type="curve" smooth="yes"/>
      <point x="23" y="99"/>
      <point x="76" y="47"/>
      <point x="145" y="47" type="curve" smooth="yes"/>
      <point x="180" y="47"/>
      <point x="253" y="60"/>
      <point x="281" y="60" type="curve" smooth="yes"/>
      <point x="323" y="60"/>
      <point x="343" y="31"/>
      <point x="350" y="-1" type="curve"/>
    </contour>
    <contour>
      <point x="455" y="456" type="line"/>
      <point x="455" y="491" type="line"/>
      <point x="-10" y="491" type="line"/>
      <point x="-10" y="456" type="line"/>
    </contour>
  </outline>
</glyph>
<glyph name="bDRa_bSignUu" format="1">
  <advance width="547"/>
  <outline>
    <contour>
      <point x="374" y="4" type="line"/>
      <point x="360" y="67"/>
      <point x="353" y="131"/>
      <point x="353" y="172" type="curve" smooth="yes"/>
      <point x="353" y="246"/>
      <point x="376" y="303"/>
      <point x="425" y="360" type="curve"/>
      <point x="368" y="416" type="line"/>
      <point x="273" y="385"/>
      <point x="191" y="317"/>
      <point x="141" y="241" type="curve"/>
      <point x="152" y="230" type="line"/>
      <point x="152" y="467" type="line"/>
      <point x="112" y="467" type="line"/>
      <point x="112" y="219" type="line"/>
      <point x="159" y="161" type="line"/>
      <point x="220" y="258"/>
      <point x="289" y="320"/>
      <point x="370" y="355" type="curve"/>
      <point x="359" y="367" type="line"/>
      <point x="333" y="332"/>
      <point x="316" y="272"/>
      <point x="316" y="200" type="curve" smooth="yes"/>
      <point x="316" y="158"/>
      <point x="322" y="101"/>
      <point x="335" y="43" type="curve"/>
      <point x="350" y="36" type="line"/>
      <point x="335" y="79"/>
      <point x="291" y="110"/>
      <point x="234" y="110" type="curve" smooth="yes"/>
      <point x="205" y="110"/>
      <point x="154" y="102"/>
      <point x="127" y="102" type="curve" smooth="yes"/>
      <point x="81" y="102"/>
      <point x="50" y="126"/>
      <point x="50" y="175" type="curve" smooth="yes"/>
      <point x="50" y="194"/>
      <point x="55" y="222"/>
      <point x="63" y="241" type="curve"/>
      <point x="42" y="250" type="line"/>
      <point x="30" y="226"/>
      <point x="23" y="194"/>
      <point x="23" y="169" type="curve" smooth="yes"/>
      <point x="23" y="99"/>
      <point x="76" y="47"/>
      <point x="145" y="47" type="curve" smooth="yes"/>
      <point x="180" y="47"/>
      <point x="253" y="60"/>
      <point x="281" y="60" type="curve" smooth="yes"/>
      <point x="323" y="60"/>
      <point x="343" y="31"/>
      <point x="350" y="-1" type="curve"/>
    </contour>
    <contour>
      <point x="525" y="22" type="line"/>
      <point x="507" y="40"/>
      <point x="497" y="64"/>
      <point x="497" y="92" type="curve" smooth="yes"/>
      <point x="497" y="215" type="line" smooth="yes"/>
      <point x="497" y="254"/>
      <point x="459" y="297"/>
      <point x="431" y="297" type="curve" smooth="yes"/>
      <point x="411" y="297"/>
      <point x="376" y="275"/>
      <point x="339" y="227" type="curve"/>
      <point x="342" y="171" type="line"/>
      <point x="377" y="220"/>
      <point x="424" y="256"/>
      <point x="446" y="256" type="curve" smooth="yes"/>
      <point x="453" y="256"/>
      <point x="457" y="251"/>
      <point x="457" y="236" type="curve" smooth="yes"/>
      <point x="457" y="112" type="line" smooth="yes"/>
      <point x="457" y="57"/>
      <point x="480" y="29"/>
      <point x="514" y="5" type="curve"/>
    </contour>
    <contour>
      <point x="557" y="456" type="line"/>
      <point x="557" y="491" type="line"/>
      <point x="-10" y="491" type="line"/>
      <point x="-10" y="456" type="line"/>
    </contour>
  </outline>
</glyph>
<glyph name="bDandaPoetic" format="1">
  <advance width="310"/>
  <outline>
    <contour>
      <point x="230" y="419" type="line"/>
      <point x="230" y="468"/>
      <point x="209" y="498"/>
      <point x="175" y="498" type="curve" smooth="yes"/>
      <point x="150" y="498"/>
      <point x="130" y="479"/>
      <point x="130" y="453" type="curve" smooth="yes"/>
      <point x="130" y="428"/>
      <point x="148" y="409"/>
      <point x="174" y="409" type="curve" smooth="yes"/>
      <point x="190" y="409"/>
      <point x="206" y="416"/>
      <point x="218" y="434" type="curve"/>
      <point x="190" y="455" type="line"/>
      <point x="190" y="53" type="line"/>
      <point x="190" y="4"/>
      <point x="211" y="-26"/>
      <point x="245" y="-26" type="curve" smooth="yes"/>
      <point x="270" y="-26"/>
      <point x="290" y="-7"/>
      <point x="290" y="19" type="curve" smooth="yes"/>
      <point x="290" y="44"/>
      <point x="272" y="63"/>
      <point x="246" y="63" type="curve" smooth="yes"/>
      <point x="230" y="63"/>
      <point x="214" y="56"/>
      <point x="202" y="38" type="curve"/>
      <point x="230" y="17" type="line"/>
    </contour>
  </outline>
</glyph>
<glyph name="bDdMa" format="1">
  <advance width="536"/>
  <outline>
    <contour>
      <point x="466" y="-110" type="line"/>
      <point x="466" y="467" type="line"/>
      <point x="426" y="467" type="line"/>
      <point x="426" y="-45" type="line"/>
      <point x="449" y="-68" type="line"/>
      <point x="428" y="10"/>
      <point x="359" y="71"/>
      <point x="293" y="71" type="curve" smooth="yes"/>
      <point x="250" y="71"/>
      <point x="213" y="44"/>
      <point x="213" y="4" type="curve" smooth="yes"/>
      <point x="213" y="-32"/>
      <point x="242" y="-59"/>
      <point x="277" y="-59" type="curve" smooth="yes"/>
      <point x="313" y="-59"/>
      <point x="338" y="-32"/>
      <point x="338" y="2" type="curve" smooth="yes"/>
      <point x="338" y="17"/>
      <point x="333" y="35"/>
      <point x="316" y="49" type="curve"/>
      <point x="291" y="2" type="line"/>
      <point x="302" y="10"/>
      <point x="313" y="13"/>
      <point x="326" y="13" type="curve" smooth="yes"/>
      <point x="380" y="13"/>
      <point x="433" y="-35"/>
      <point x="441" y="-110" type="curve"/>
    </contour>
    <contour>
      <point x="320" y="89"/>
      <point x="293" y="119"/>
      <point x="271" y="130" type="curve"/>
      <point x="237" y="121" type="line"/>
      <point x="256" y="110"/>
      <point x="274" y="94"/>
      <point x="281" y="62" type="curve"/>
      <point x="328" y="56" type="line"/>
    </contour>
    <contour>
      <point x="319" y="115"/>
      <point x="371" y="171"/>
      <point x="371" y="247" type="curve" smooth="yes"/>
      <point x="371" y="307"/>
      <point x="339" y="352"/>
      <point x="305" y="381" type="curve"/>
      <point x="277" y="325"/>
      <point x="242" y="283"/>
      <point x="220" y="283" type="curve" smooth="yes"/>
      <point x="210" y="283"/>
      <point x="205" y="292"/>
      <point x="205" y="304" type="curve" smooth="yes"/>
      <point x="205" y="466" type="line"/>
      <point x="165" y="466" type="line"/>
      <point x="165" y="335" type="line" smooth="yes"/>
      <point x="165" y="287"/>
      <point x="204" y="239"/>
      <point x="241" y="239" type="curve" smooth="yes"/>
      <point x="276" y="239"/>
      <point x="316" y="282"/>
      <point x="338" y="328" type="curve"/>
      <point x="312" y="327" type="line"/>
      <point x="328" y="315"/>
      <point x="341" y="293"/>
      <point x="341" y="265" type="curve" smooth="yes"/>
      <point x="341" y="211"/>
      <point x="292" y="173"/>
      <point x="232" y="173" type="curve" smooth="yes"/>
      <point x="161" y="173"/>
      <point x="86" y="227"/>
      <point x="37" y="411" type="curve"/>
      <point x="12" y="404" type="line"/>
      <point x="61" y="203"/>
      <point x="151" y="115"/>
      <point x="244" y="115" type="curve" smooth="yes"/>
    </contour>
    <contour>
      <point x="395" y="456" type="line"/>
      <point x="395" y="491" type="line"/>
      <point x="-10" y="491" type="line"/>
      <point x="-10" y="456" type="line"/>
    </contour>
    <contour>
      <point x="546" y="456" type="line"/>
      <point x="546" y="491" type="line"/>
      <point x="246" y="491" type="line"/>
      <point x="246" y="456" type="line"/>
    </contour>
  </outline>
</glyph>
<glyph name="bDdha" format="1">
  <advance width="372"/>
  <outline>
    <contour>
      <point x="228" y="10"/>
      <point x="342" y="153"/>
      <point x="342" y="256" type="curve" smooth="yes"/>
      <point x="342" y="306"/>
      <point x="313" y="349"/>
      <point x="268" y="349" type="curve" smooth="yes"/>
      <point x="234" y="349"/>
      <point x="208" y="324"/>
      <point x="208" y="293" type="curve" smooth="yes"/>
      <point x="208" y="261"/>
      <point x="235" y="234"/>
      <point x="270" y="234" type="curve" smooth="yes"/>
      <point x="285" y="234"/>
      <point x="297" y="239"/>
      <point x="310" y="250" type="curve"/>
      <point x="290" y="264" type="line"/>
      <point x="290" y="182"/>
      <point x="197" y="56"/>
      <point x="137" y="56" type="curve" smooth="yes"/>
      <point x="113" y="56"/>
      <point x="102" y="76"/>
      <point x="102" y="121" type="curve" smooth="yes"/>
      <point x="102" y="467" type="line"/>
      <point x="62" y="467" type="line"/>
      <point x="62" y="138" type="line" smooth="yes"/>
      <point x="62" y="63"/>
      <point x="109" y="10"/>
      <point x="154" y="10" type="curve" smooth="yes"/>
    </contour>
    <contour>
      <point x="382" y="456" type="line"/>
      <point x="382" y="491" type="line"/>
      <point x="-10" y="491" type="line"/>
      <point x="-10" y="456" type="line"/>
    </contour>
  </outline>
</glyph>
<glyph name="bDhNa" format="1">
  <advance width="396"/>
  <outline>
    <contour>
      <point x="326" y="45" type="line"/>
      <point x="326" y="456" type="line"/>
      <point x="406" y="456" type="line"/>
      <point x="406" y="491" type="line"/>
      <point x="286" y="491" type="line"/>
      <point x="286" y="107" type="line"/>
      <point x="296" y="123" type="line"/>
      <point x="251" y="201"/>
      <point x="162" y="248"/>
      <point x="70" y="263" type="curve"/>
      <point x="66" y="235" type="line"/>
      <point x="139" y="293"/>
      <point x="214" y="338"/>
      <point x="294" y="378" type="curve"/>
      <point x="294" y="439" type="line"/>
      <point x="199" y="388"/>
      <point x="111" y="335"/>
      <point x="25" y="273" type="curve"/>
      <point x="81" y="202" type="line"/>
      <point x="207" y="189"/>
      <point x="287" y="132"/>
      <point x="300" y="45" type="curve"/>
    </contour>
    <contour>
      <point x="326" y="-9" type="line"/>
      <point x="326" y="60" type="line"/>
      <point x="301" y="60" type="line"/>
      <point x="301" y="34" type="line"/>
      <point x="312" y="26" type="line"/>
      <point x="280" y="99"/>
      <point x="218" y="139"/>
      <point x="160" y="139" type="curve" smooth="yes"/>
      <point x="110" y="139"/>
      <point x="73" y="107"/>
      <point x="73" y="66" type="curve" smooth="yes"/>
      <point x="73" y="31"/>
      <point x="100" y="5"/>
      <point x="132" y="5" type="curve" smooth="yes"/>
      <point x="163" y="5"/>
      <point x="186" y="28"/>
      <point x="186" y="56" type="curve" smooth="yes"/>
      <point x="186" y="74"/>
      <point x="177" y="90"/>
      <point x="160" y="101" type="curve"/>
      <point x="154" y="83" type="line"/>
      <point x="162" y="88"/>
      <point x="170" y="91"/>
      <point x="183" y="91" type="curve" smooth="yes"/>
      <point x="234" y="91"/>
      <point x="287" y="54"/>
      <point x="301" y="-9" type="curve"/>
    </contour>
    <contour>
      <point x="164" y="344"/>
      <point x="173" y="345"/>
      <point x="183" y="347" type="curve"/>
      <point x="200" y="386" type="line"/>
      <point x="181" y="376"/>
      <point x="167" y="373"/>
      <point x="153" y="373" type="curve" smooth="yes"/>
      <point x="115" y="373"/>
      <point x="92" y="396"/>
      <point x="92" y="420" type="curve" smooth="yes"/>
      <point x="92" y="442"/>
      <point x="111" y="460"/>
      <point x="138" y="460" type="curve" smooth="yes"/>
      <point x="148" y="460"/>
      <point x="163" y="458"/>
      <point x="177" y="453" type="curve"/>
      <point x="144" y="491" type="line"/>
      <point x="125" y="483"/>
      <point x="118" y="465"/>
      <point x="118" y="451" type="curve" smooth="yes"/>
      <point x="118" y="430"/>
      <point x="137" y="415"/>
      <point x="158" y="415" type="curve" smooth="yes"/>
      <point x="180" y="415"/>
      <point x="199" y="432"/>
      <point x="199" y="456" type="curve" smooth="yes"/>
      <point x="199" y="485"/>
      <point x="171" y="509"/>
      <point x="130" y="509" type="curve" smooth="yes"/>
      <point x="83" y="509"/>
      <point x="48" y="476"/>
      <point x="48" y="432" type="curve" smooth="yes"/>
      <point x="48" y="381"/>
      <point x="97" y="344"/>
      <point x="155" y="344" type="curve" smooth="yes"/>
    </contour>
  </outline>
</glyph>
<glyph name="bDhRa" format="1">
  <advance width="442"/>
  <outline>
    <contour>
      <point x="372" y="45" type="line"/>
      <point x="372" y="456" type="line"/>
      <point x="452" y="456" type="line"/>
      <point x="452" y="491" type="line"/>
      <point x="332" y="491" type="line"/>
      <point x="332" y="107" type="line"/>
      <point x="342" y="123" type="line"/>
      <point x="297" y="201"/>
      <point x="208" y="248"/>
      <point x="116" y="263" type="curve"/>
      <point x="112" y="235" type="line"/>
      <point x="185" y="293"/>
      <point x="260" y="338"/>
      <point x="340" y="378" type="curve"/>
      <point x="340" y="439" type="line"/>
      <point x="245" y="388"/>
      <point x="157" y="335"/>
      <point x="71" y="273" type="curve"/>
      <point x="127" y="202" type="line"/>
      <point x="253" y="189"/>
      <point x="333" y="132"/>
      <point x="346" y="45" type="curve"/>
    </contour>
    <contour>
      <point x="372" y="-5" type="line"/>
      <point x="372" y="133" type="line"/>
      <point x="346" y="133" type="line"/>
      <point x="346" y="29" type="line"/>
      <point x="353" y="32" type="line"/>
      <point x="335" y="86"/>
      <point x="287" y="116"/>
      <point x="229" y="116" type="curve" smooth="yes"/>
      <point x="201" y="116"/>
      <point x="154" y="109"/>
      <point x="126" y="109" type="curve" smooth="yes"/>
      <point x="80" y="109"/>
      <point x="56" y="128"/>
      <point x="56" y="162" type="curve" smooth="yes"/>
      <point x="56" y="178"/>
      <point x="61" y="196"/>
      <point x="68" y="212" type="curve"/>
      <point x="47" y="222" type="line"/>
      <point x="36" y="201"/>
      <point x="30" y="178"/>
      <point x="30" y="157" type="curve" smooth="yes"/>
      <point x="30" y="100"/>
      <point x="79" y="53"/>
      <point x="143" y="53" type="curve" smooth="yes"/>
      <point x="177" y="53"/>
      <point x="252" y="66"/>
      <point x="279" y="66" type="curve" smooth="yes"/>
      <point x="321" y="66"/>
      <point x="343" y="35"/>
      <point x="347" y="-5" type="curve"/>
    </contour>
    <contour>
      <point x="210" y="344"/>
      <point x="219" y="345"/>
      <point x="229" y="347" type="curve"/>
      <point x="246" y="386" type="line"/>
      <point x="227" y="376"/>
      <point x="213" y="373"/>
      <point x="199" y="373" type="curve" smooth="yes"/>
      <point x="161" y="373"/>
      <point x="138" y="396"/>
      <point x="138" y="420" type="curve" smooth="yes"/>
      <point x="138" y="442"/>
      <point x="157" y="460"/>
      <point x="184" y="460" type="curve" smooth="yes"/>
      <point x="194" y="460"/>
      <point x="209" y="458"/>
      <point x="223" y="453" type="curve"/>
      <point x="190" y="491" type="line"/>
      <point x="171" y="483"/>
      <point x="164" y="465"/>
      <point x="164" y="451" type="curve" smooth="yes"/>
      <point x="164" y="430"/>
      <point x="183" y="415"/>
      <point x="204" y="415" type="curve" smooth="yes"/>
      <point x="226" y="415"/>
      <point x="245" y="432"/>
      <point x="245" y="456" type="curve" smooth="yes"/>
      <point x="245" y="485"/>
      <point x="217" y="509"/>
      <point x="176" y="509" type="curve" smooth="yes"/>
      <point x="129" y="509"/>
      <point x="94" y="476"/>
      <point x="94" y="432" type="curve" smooth="yes"/>
      <point x="94" y="381"/>
      <point x="143" y="344"/>
      <point x="201" y="344" type="curve" smooth="yes"/>
    </contour>
  </outline>
</glyph>
<glyph name="bE" format="1">
  <advance width="522"/>
  <outline>
    <contour>
      <point x="452" y="0" type="line"/>
      <point x="452" y="403" type="line" smooth="yes"/>
      <point x="452" y="448"/>
      <point x="412" y="500"/>
      <point x="362" y="500" type="curve" smooth="yes"/>
      <point x="289" y="500"/>
      <point x="180" y="392"/>
      <point x="180" y="299" type="curve" smooth="yes"/>
      <point x="180" y="244"/>
      <point x="218" y="207"/>
      <point x="268" y="207" type="curve" smooth="yes"/>
      <point x="308" y="207"/>
      <point x="334" y="231"/>
      <point x="334" y="264" type="curve" smooth="yes"/>
      <point x="334" y="296"/>
      <point x="309" y="318"/>
      <point x="280" y="318" type="curve" smooth="yes"/>
      <point x="259" y="318"/>
      <point x="242" y="306"/>
      <point x="235" y="291" type="curve"/>
      <point x="249" y="281" type="line"/>
      <point x="241" y="291"/>
      <point x="240" y="301"/>
      <point x="240" y="307" type="curve" smooth="yes"/>
      <point x="240" y="363"/>
      <point x="336" y="458"/>
      <point x="383" y="458" type="curve" smooth="yes"/>
      <point x="402" y="458"/>
      <point x="412" y="443"/>
      <point x="412" y="418" type="curve" smooth="yes"/>
      <point x="412" y="81" type="line"/>
      <point x="423" y="73" type="line"/>
      <point x="408" y="118"/>
      <point x="371" y="149"/>
      <point x="322" y="149" type="curve" smooth="yes"/>
      <point x="295" y="149"/>
      <point x="218" y="139"/>
      <point x="183" y="139" type="curve" smooth="yes"/>
      <point x="100" y="139"/>
      <point x="59" y="194"/>
      <point x="59" y="263" type="curve" smooth="yes"/>
      <point x="59" y="296"/>
      <point x="69" y="329"/>
      <point x="86" y="354" type="curve"/>
      <point x="66" y="366" type="line"/>
      <point x="42" y="331"/>
      <point x="30" y="292"/>
      <point x="30" y="253" type="curve" smooth="yes"/>
      <point x="30" y="155"/>
      <point x="107" y="81"/>
      <point x="208" y="81" type="curve" smooth="yes"/>
      <point x="247" y="81"/>
      <point x="322" y="92"/>
      <point x="351" y="92" type="curve" smooth="yes"/>
      <point x="398" y="92"/>
      <point x="421" y="65"/>
      <point x="427" y="0" type="curve"/>
    </contour>
  </outline>
</glyph>
<glyph name="bGDa" format="1">
  <advance width="635"/>
  <outline>
    <contour>
      <point x="190" y="192"/>
      <point x="235" y="242"/>
      <point x="235" y="294" type="curve" smooth="yes"/>
      <point x="235" y="342"/>
      <point x="198" y="381"/>
      <point x="153" y="381" type="curve" smooth="yes"/>
      <point x="123" y="381"/>
      <point x="88" y="364"/>
      <point x="63" y="341" type="curve"/>
      <point x="90" y="315" type="line"/>
      <point x="83" y="328"/>
      <point x="80" y="341"/>
      <point x="80" y="355" type="curve" smooth="yes"/>
      <point x="80" y="402"/>
      <point x="116" y="453"/>
      <point x="177" y="453" type="curve" smooth="yes"/>
      <point x="249" y="453"/>
      <point x="312" y="379"/>
      <point x="312" y="284" type="curve" smooth="yes"/>
      <point x="312" y="264" type="line"/>
      <point x="352" y="264" type="line"/>
      <point x="352" y="456" type="line"/>
      <point x="432" y="456" type="line"/>
      <point x="432" y="491" type="line"/>
      <point x="312" y="491" type="line"/>
      <point x="312" y="334" type="line"/>
      <point x="331" y="336" type="line"/>
      <point x="303" y="453"/>
      <point x="224" y="505"/>
      <point x="155" y="505" type="curve" smooth="yes"/>
      <point x="74" y="505"/>
      <point x="20" y="433"/>
      <point x="20" y="365" type="curve" smooth="yes"/>
      <point x="20" y="320"/>
      <point x="44" y="296"/>
      <point x="71" y="296" type="curve" smooth="yes"/>
      <point x="108" y="296"/>
      <point x="144" y="339"/>
      <point x="178" y="339" type="curve" smooth="yes"/>
      <point x="192" y="339"/>
      <point x="201" y="331"/>
      <point x="201" y="316" type="curve" smooth="yes"/>
      <point x="201" y="283"/>
      <point x="157" y="235"/>
      <point x="87" y="192" type="curve"/>
      <point x="136" y="150" type="line"/>
    </contour>
    <contour>
      <point x="553" y="-5" type="line"/>
      <point x="543" y="54"/>
      <point x="538" y="113"/>
      <point x="538" y="149" type="curve" smooth="yes"/>
      <point x="538" y="226"/>
      <point x="560" y="287"/>
      <point x="615" y="350" type="curve"/>
      <point x="558" y="406" type="line"/>
      <point x="467" y="375"/>
      <point x="389" y="307"/>
      <point x="341" y="231" type="curve"/>
      <point x="352" y="220" type="line"/>
      <point x="352" y="467" type="line"/>
      <point x="312" y="467" type="line"/>
      <point x="312" y="209" type="line"/>
      <point x="359" y="148" type="line"/>
      <point x="416" y="248"/>
      <point x="481" y="310"/>
      <point x="560" y="345" type="curve"/>
      <point x="549" y="357" type="line"/>
      <point x="520" y="320"/>
      <point x="501" y="256"/>
      <point x="501" y="180" type="curve" smooth="yes"/>
      <point x="501" y="128"/>
      <point x="510" y="59"/>
      <point x="527" y="-10" type="curve"/>
    </contour>
    <contour>
      <point x="645" y="456" type="line"/>
      <point x="645" y="491" type="line"/>
      <point x="358" y="491" type="line"/>
      <point x="358" y="456" type="line"/>
    </contour>
  </outline>
</glyph>
<glyph name="bGDhBa" format="1">
  <advance width="555"/>
  <outline>
    <contour>
      <point x="357" y="108" type="line"/>
      <point x="357" y="456" type="line"/>
      <point x="565" y="456" type="line"/>
      <point x="565" y="491" type="line"/>
      <point x="317" y="491" type="line"/>
      <point x="317" y="334" type="line"/>
      <point x="336" y="336" type="line"/>
      <point x="310" y="437"/>
      <point x="236" y="505"/>
      <point x="155" y="505" type="curve" smooth="yes"/>
      <point x="75" y="505"/>
      <point x="20" y="441"/>
      <point x="20" y="378" type="curve" smooth="yes"/>
      <point x="20" y="336"/>
      <point x="44" y="310"/>
      <point x="71" y="310" type="curve" smooth="yes"/>
      <point x="109" y="310"/>
      <point x="148" y="364"/>
      <point x="180" y="364" type="curve" smooth="yes"/>
      <point x="194" y="364"/>
      <point x="199" y="354"/>
      <point x="199" y="346" type="curve" smooth="yes"/>
      <point x="199" y="320"/>
      <point x="156" y="283"/>
      <point x="77" y="248" type="curve"/>
      <point x="126" y="206" type="line"/>
      <point x="187" y="242"/>
      <point x="233" y="280"/>
      <point x="233" y="327" type="curve" smooth="yes"/>
      <point x="233" y="368"/>
      <point x="199" y="406"/>
      <point x="158" y="406" type="curve" smooth="yes"/>
      <point x="125" y="406"/>
      <point x="87" y="382"/>
      <point x="63" y="355" type="curve"/>
      <point x="90" y="329" type="line"/>
      <point x="83" y="342"/>
      <point x="80" y="355"/>
      <point x="80" y="367" type="curve" smooth="yes"/>
      <point x="80" y="409"/>
      <point x="116" y="453"/>
      <point x="176" y="453" type="curve" smooth="yes"/>
      <point x="253" y="453"/>
      <point x="317" y="379"/>
      <point x="317" y="284" type="curve" smooth="yes"/>
      <point x="317" y="108" type="line"/>
    </contour>
    <contour>
      <point x="357" y="-110" type="line"/>
      <point x="357" y="120" type="line"/>
      <point x="341" y="147" type="line"/>
      <point x="273" y="114"/>
      <point x="227" y="88"/>
      <point x="155" y="32" type="curve"/>
      <point x="191" y="-19" type="line"/>
      <point x="257" y="-25"/>
      <point x="317" y="-52"/>
      <point x="332" y="-110" type="curve"/>
    </contour>
    <contour>
      <point x="334" y="-68" type="line"/>
      <point x="307" y="-19"/>
      <point x="262" y="13"/>
      <point x="207" y="28" type="curve"/>
      <point x="212" y="11" type="line"/>
      <point x="258" y="48"/>
      <point x="300" y="75"/>
      <point x="338" y="91" type="curve"/>
      <point x="317" y="105" type="line"/>
      <point x="317" y="-69" type="line"/>
    </contour>
    <contour>
      <point x="518" y="-18" type="line"/>
      <point x="500" y="0"/>
      <point x="490" y="24"/>
      <point x="490" y="52" type="curve" smooth="yes"/>
      <point x="490" y="255" type="line" smooth="yes"/>
      <point x="490" y="292"/>
      <point x="453" y="332"/>
      <point x="423" y="332" type="curve" smooth="yes"/>
      <point x="404" y="332"/>
      <point x="367" y="317"/>
      <point x="332" y="292" type="curve"/>
      <point x="345" y="245" type="line"/>
      <point x="380" y="270"/>
      <point x="419" y="289"/>
      <point x="438" y="289" type="curve" smooth="yes"/>
      <point x="446" y="289"/>
      <point x="450" y="285"/>
      <point x="450" y="274" type="curve" smooth="yes"/>
      <point x="450" y="72" type="line" smooth="yes"/>
      <point x="450" y="17"/>
      <point x="473" y="-11"/>
      <point x="507" y="-35" type="curve"/>
    </contour>
    <contour>
      <point x="275" y="93" type="line"/>
      <point x="241" y="120"/>
      <point x="199" y="139"/>
      <point x="153" y="147" type="curve"/>
      <point x="157" y="124" type="line"/>
      <point x="211" y="169"/>
      <point x="284" y="214"/>
      <point x="347" y="245" type="curve"/>
      <point x="328" y="289" type="line"/>
      <point x="266" y="261"/>
      <point x="180" y="207"/>
      <point x="107" y="149" type="curve"/>
      <point x="149" y="97" type="line"/>
      <point x="188" y="94"/>
      <point x="223" y="84"/>
      <point x="253" y="68" type="curve"/>
    </contour>
  </outline>
</glyph>
<glyph name="bGDhRa" format="1">
  <advance width="555"/>
  <outline>
    <contour>
      <point x="357" y="98" type="line"/>
      <point x="357" y="456" type="line"/>
      <point x="565" y="456" type="line"/>
      <point x="565" y="491" type="line"/>
      <point x="317" y="491" type="line"/>
      <point x="317" y="334" type="line"/>
      <point x="336" y="336" type="line"/>
      <point x="310" y="437"/>
      <point x="236" y="505"/>
      <point x="155" y="505" type="curve" smooth="yes"/>
      <point x="75" y="505"/>
      <point x="20" y="441"/>
      <point x="20" y="378" type="curve" smooth="yes"/>
      <point x="20" y="336"/>
      <point x="44" y="310"/>
      <point x="71" y="310" type="curve" smooth="yes"/>
      <point x="109" y="310"/>
      <point x="148" y="364"/>
      <point x="180" y="364" type="curve" smooth="yes"/>
      <point x="194" y="364"/>
      <point x="199" y="354"/>
      <point x="199" y="346" type="curve" smooth="yes"/>
      <point x="199" y="320"/>
      <point x="156" y="283"/>
      <point x="77" y="248" type="curve"/>
      <point x="126" y="206" type="line"/>
      <point x="187" y="242"/>
      <point x="233" y="280"/>
      <point x="233" y="327" type="curve" smooth="yes"/>
      <point x="233" y="368"/>
      <point x="199" y="406"/>
      <point x="158" y="406" type="curve" smooth="yes"/>
      <point x="125" y="406"/>
      <point x="87" y="382"/>
      <point x="63" y="355" type="curve"/>
      <point x="90" y="329" type="line"/>
      <point x="83" y="342"/>
      <point x="80" y="355"/>
      <point x="80" y="367" type="curve" smooth="yes"/>
      <point x="80" y="409"/>
      <point x="116" y="453"/>
      <point x="176" y="453" type="curve" smooth="yes"/>
      <point x="253" y="453"/>
      <point x="317" y="379"/>
      <point x="317" y="284" type="curve" smooth="yes"/>
      <point x="317" y="98" type="line"/>
    </contour>
    <contour>
      <point x="357" y="-70" type="line"/>
      <point x="357" y="68" type="line"/>
      <point x="331" y="68" type="line"/>
      <point x="331" y="-36" type="line"/>
      <point x="338" y="-33" type="line"/>
      <point x="323" y="7"/>
      <point x="282" y="30"/>
      <point x="236" y="30" type="curve" smooth="yes"/>
      <point x="210" y="30"/>
      <point x="175" y="24"/>
      <point x="148" y="24" type="curve" smooth="yes"/>
      <point x="104" y="24"/>
      <point x="80" y="43"/>
      <point x="80" y="78" type="curve" smooth="yes"/>
      <point x="80" y="92"/>
      <point x="84" y="108"/>
      <point x="91" y="124" type="curve"/>
      <point x="70" y="133" type="line"/>
      <point x="61" y="115"/>
      <point x="55" y="93"/>
      <point x="55" y="73" type="curve" smooth="yes"/>
      <point x="55" y="16"/>
      <point x="104" y="-30"/>
      <point x="166" y="-30" type="curve" smooth="yes"/>
      <point x="197" y="-30"/>
      <point x="262" y="-19"/>
      <point x="284" y="-19" type="curve" smooth="yes"/>
      <point x="315" y="-19"/>
      <point x="330" y="-41"/>
      <point x="332" y="-70" type="curve"/>
    </contour>
    <contour>
      <point x="357" y="-30" type="line"/>
      <point x="357" y="348" type="line"/>
      <point x="317" y="347" type="line"/>
      <point x="317" y="30" type="line"/>
      <point x="335" y="19" type="line"/>
      <point x="304" y="84"/>
      <point x="234" y="133"/>
      <point x="153" y="147" type="curve"/>
      <point x="157" y="124" type="line"/>
      <point x="211" y="169"/>
      <point x="284" y="214"/>
      <point x="347" y="245" type="curve"/>
      <point x="328" y="289" type="line"/>
      <point x="266" y="261"/>
      <point x="180" y="207"/>
      <point x="107" y="149" type="curve"/>
      <point x="149" y="97" type="line"/>
      <point x="240" y="91"/>
      <point x="312" y="45"/>
      <point x="337" y="-30" type="curve"/>
    </contour>
    <contour>
      <point x="518" y="-18" type="line"/>
      <point x="500" y="0"/>
      <point x="490" y="24"/>
      <point x="490" y="52" type="curve" smooth="yes"/>
      <point x="490" y="255" type="line" smooth="yes"/>
      <point x="490" y="292"/>
      <point x="453" y="332"/>
      <point x="423" y="332" type="curve" smooth="yes"/>
      <point x="404" y="332"/>
      <point x="367" y="317"/>
      <point x="332" y="292" type="curve"/>
      <point x="345" y="245" type="line"/>
      <point x="380" y="270"/>
      <point x="419" y="289"/>
      <point x="439" y="289" type="curve" smooth="yes"/>
      <point x="446" y="289"/>
      <point x="450" y="285"/>
      <point x="450" y="274" type="curve" smooth="yes"/>
      <point x="450" y="72" type="line" smooth="yes"/>
      <point x="450" y="17"/>
      <point x="473" y="-11"/>
      <point x="507" y="-35" type="curve"/>
    </contour>
  </outline>
</glyph>
<glyph name="bGLa" format="1">
  <advance width="447"/>
  <outline>
    <contour>
      <point x="377" y="87" type="line"/>
      <point x="377" y="456" type="line"/>
      <point x="457" y="456" type="line"/>
      <point x="457" y="491" type="line"/>
      <point x="337" y="491" type="line"/>
      <point x="337" y="334" type="line"/>
      <point x="356" y="336" type="line"/>
      <point x="330" y="437"/>
      <point x="256" y="505"/>
      <point x="175" y="505" type="curve" smooth="yes"/>
      <point x="95" y="505"/>
      <point x="40" y="441"/>
      <point x="40" y="378" type="curve" smooth="yes"/>
      <point x="40" y="336"/>
      <point x="64" y="310"/>
      <point x="91" y="310" type="curve" smooth="yes"/>
      <point x="128" y="310"/>
      <point x="164" y="362"/>
      <point x="198" y="362" type="curve" smooth="yes"/>
      <point x="213" y="362"/>
      <point x="221" y="353"/>
      <point x="221" y="342" type="curve" smooth="yes"/>
      <point x="221" y="318"/>
      <point x="179" y="281"/>
      <point x="107" y="248" type="curve"/>
      <point x="156" y="206" type="line"/>
      <point x="212" y="241"/>
      <point x="255" y="279"/>
      <point x="255" y="323" type="curve" smooth="yes"/>
      <point x="255" y="365"/>
      <point x="218" y="404"/>
      <point x="175" y="404" type="curve" smooth="yes"/>
      <point x="143" y="404"/>
      <point x="108" y="383"/>
      <point x="83" y="355" type="curve"/>
      <point x="110" y="329" type="line"/>
      <point x="103" y="342"/>
      <point x="100" y="355"/>
      <point x="100" y="367" type="curve" smooth="yes"/>
      <point x="100" y="409"/>
      <point x="136" y="453"/>
      <point x="196" y="453" type="curve" smooth="yes"/>
      <point x="273" y="453"/>
      <point x="337" y="379"/>
      <point x="337" y="284" type="curve" smooth="yes"/>
      <point x="337" y="87" type="line"/>
    </contour>
    <contour>
      <point x="163" y="-9"/>
      <point x="185" y="12"/>
      <point x="185" y="38" type="curve" smooth="yes"/>
      <point x="185" y="61"/>
      <point x="168" y="79"/>
      <point x="147" y="79" type="curve" smooth="yes"/>
      <point x="129" y="79"/>
      <point x="112" y="65"/>
      <point x="112" y="45" type="curve" smooth="yes"/>
      <point x="112" y="30"/>
      <point x="121" y="16"/>
      <point x="135" y="12" type="curve"/>
      <point x="154" y="34" type="line"/>
      <point x="144" y="25"/>
      <point x="132" y="21"/>
      <point x="122" y="21" type="curve" smooth="yes"/>
      <point x="99" y="21"/>
      <point x="79" y="39"/>
      <point x="79" y="67" type="curve" smooth="yes"/>
      <point x="79" y="99"/>
      <point x="106" y="126"/>
      <point x="143" y="126" type="curve" smooth="yes"/>
      <point x="184" y="126"/>
      <point x="212" y="95"/>
      <point x="222" y="49" type="curve"/>
      <point x="239" y="49" type="line"/>
      <point x="239" y="91"/>
      <point x="250" y="120"/>
      <point x="279" y="120" type="curve" smooth="yes"/>
      <point x="315" y="120"/>
      <point x="345" y="77"/>
      <point x="352" y="0" type="curve"/>
      <point x="377" y="0" type="line"/>
      <point x="377" y="108" type="line"/>
      <point x="342" y="108" type="line"/>
      <point x="342" y="78" type="line"/>
      <point x="362" y="46" type="line"/>
      <point x="343" y="125"/>
      <point x="300" y="172"/>
      <point x="260" y="172" type="curve" smooth="yes"/>
      <point x="228" y="172"/>
      <point x="203" y="141"/>
      <point x="203" y="97" type="curve"/>
      <point x="222" y="88" type="line"/>
      <point x="206" y="141"/>
      <point x="171" y="180"/>
      <point x="124" y="180" type="curve" smooth="yes"/>
      <point x="76" y="180"/>
      <point x="40" y="139"/>
      <point x="40" y="88" type="curve" smooth="yes"/>
      <point x="40" y="35"/>
      <point x="80" y="-9"/>
      <point x="129" y="-9" type="curve" smooth="yes"/>
    </contour>
  </outline>
</glyph>
<glyph name="bGRa" format="1">
  <advance width="494"/>
  <outline>
    <contour>
      <point x="424" y="70" type="line"/>
      <point x="424" y="456" type="line"/>
      <point x="504" y="456" type="line"/>
      <point x="504" y="491" type="line"/>
      <point x="384" y="491" type="line"/>
      <point x="384" y="334" type="line"/>
      <point x="403" y="336" type="line"/>
      <point x="376" y="431"/>
      <point x="304" y="500"/>
      <point x="216" y="500" type="curve" smooth="yes"/>
      <point x="132" y="500"/>
      <point x="67" y="437"/>
      <point x="67" y="364" type="curve" smooth="yes"/>
      <point x="67" y="321"/>
      <point x="90" y="295"/>
      <point x="116" y="295" type="curve" smooth="yes"/>
      <point x="154" y="295"/>
      <point x="188" y="347"/>
      <point x="235" y="347" type="curve" smooth="yes"/>
      <point x="256" y="347"/>
      <point x="270" y="337"/>
      <point x="270" y="318" type="curve" smooth="yes"/>
      <point x="270" y="289"/>
      <point x="238" y="247"/>
      <point x="164" y="203" type="curve"/>
      <point x="213" y="161" type="line"/>
      <point x="270" y="204"/>
      <point x="304" y="247"/>
      <point x="304" y="294" type="curve" smooth="yes"/>
      <point x="304" y="339"/>
      <point x="272" y="393"/>
      <point x="212" y="393" type="curve" smooth="yes"/>
      <point x="182" y="393"/>
      <point x="143" y="379"/>
      <point x="113" y="349" type="curve"/>
      <point x="140" y="324" type="line"/>
      <point x="133" y="337"/>
      <point x="130" y="350"/>
      <point x="130" y="362" type="curve" smooth="yes"/>
      <point x="130" y="408"/>
      <point x="172" y="447"/>
      <point x="233" y="447" type="curve" smooth="yes"/>
      <point x="316" y="447"/>
      <point x="384" y="374"/>
      <point x="384" y="284" type="curve" smooth="yes"/>
      <point x="384" y="70" type="line"/>
    </contour>
    <contour>
      <point x="424" y="0" type="line"/>
      <point x="424" y="218" type="line"/>
      <point x="384" y="218" type="line"/>
      <point x="384" y="54" type="line"/>
      <point x="403" y="41" type="line"/>
      <point x="387" y="93"/>
      <point x="345" y="126"/>
      <point x="287" y="126" type="curve" smooth="yes"/>
      <point x="255" y="126"/>
      <point x="192" y="116"/>
      <point x="158" y="116" type="curve" smooth="yes"/>
      <point x="101" y="116"/>
      <point x="65" y="145"/>
      <point x="65" y="199" type="curve" smooth="yes"/>
      <point x="65" y="219"/>
      <point x="70" y="241"/>
      <point x="78" y="259" type="curve"/>
      <point x="57" y="268" type="line"/>
      <point x="45" y="246"/>
      <point x="38" y="218"/>
      <point x="38" y="193" type="curve" smooth="yes"/>
      <point x="38" y="118"/>
      <point x="99" y="59"/>
      <point x="177" y="59" type="curve" smooth="yes"/>
      <point x="219" y="59"/>
      <point x="295" y="76"/>
      <point x="326" y="76" type="curve" smooth="yes"/>
      <point x="370" y="76"/>
      <point x="392" y="40"/>
      <point x="399" y="0" type="curve"/>
    </contour>
  </outline>
</glyph>
<glyph name="bGa_bSignU" format="1">
  <advance width="553"/>
  <outline>
    <contour>
      <point x="466" y="0"/>
      <point x="518" y="54"/>
      <point x="518" y="120" type="curve" smooth="yes"/>
      <point x="518" y="195"/>
      <point x="450" y="264"/>
      <point x="388" y="264" type="curve" smooth="yes"/>
      <point x="353" y="264"/>
      <point x="330" y="242"/>
      <point x="330" y="212" type="curve" smooth="yes"/>
      <point x="330" y="181"/>
      <point x="355" y="158"/>
      <point x="389" y="158" type="curve" smooth="yes"/>
      <point x="421" y="158"/>
      <point x="449" y="181"/>
      <point x="476" y="210" type="curve"/>
      <point x="423" y="222" type="line"/>
      <point x="454" y="212"/>
      <point x="482" y="185"/>
      <point x="482" y="147" type="curve" smooth="yes"/>
      <point x="482" y="98"/>
      <point x="436" y="58"/>
      <point x="367" y="58" type="curve" smooth="yes"/>
      <point x="254" y="58"/>
      <point x="131" y="164"/>
      <point x="39" y="365" type="curve"/>
      <point x="15" y="352" type="line"/>
      <point x="123" y="110"/>
      <point x="258" y="0"/>
      <point x="380" y="0" type="curve" smooth="yes"/>
    </contour>
    <contour>
      <point x="268" y="223"/>
      <point x="295" y="267"/>
      <point x="295" y="309" type="curve" smooth="yes"/>
      <point x="295" y="359"/>
      <point x="259" y="396"/>
      <point x="213" y="396" type="curve" smooth="yes"/>
      <point x="188" y="396"/>
      <point x="162" y="385"/>
      <point x="139" y="365" type="curve"/>
      <point x="161" y="350" type="line"/>
      <point x="160" y="402"/>
      <point x="189" y="444"/>
      <point x="241" y="444" type="curve" smooth="yes"/>
      <point x="292" y="444"/>
      <point x="331" y="402"/>
      <point x="346" y="317" type="curve"/>
      <point x="368" y="317" type="line"/>
      <point x="353" y="421"/>
      <point x="300" y="500"/>
      <point x="224" y="500" type="curve" smooth="yes"/>
      <point x="159" y="500"/>
      <point x="106" y="444"/>
      <point x="106" y="371" type="curve" smooth="yes"/>
      <point x="106" y="341"/>
      <point x="115" y="319"/>
      <point x="130" y="297" type="curve"/>
      <point x="163" y="329"/>
      <point x="205" y="350"/>
      <point x="234" y="350" type="curve" smooth="yes"/>
      <point x="253" y="350"/>
      <point x="265" y="341"/>
      <point x="265" y="326" type="curve" smooth="yes"/>
      <point x="265" y="299"/>
      <point x="224" y="262"/>
      <point x="179" y="244" type="curve"/>
      <point x="224" y="196" type="line"/>
    </contour>
    <contour>
      <point x="478" y="208"/>
      <point x="514" y="241"/>
      <point x="514" y="289" type="curve" smooth="yes"/>
      <point x="514" y="351"/>
      <point x="453" y="381"/>
      <point x="405" y="508" type="curve"/>
      <point x="372" y="472"/>
      <point x="351" y="438"/>
      <point x="334" y="393" type="curve"/>
      <point x="368" y="317" type="line"/>
      <point x="374" y="346"/>
      <point x="411" y="415"/>
      <point x="432" y="437" type="curve"/>
      <point x="406" y="440" type="line"/>
      <point x="432" y="378"/>
      <point x="468" y="351"/>
      <point x="468" y="310" type="curve" smooth="yes"/>
      <point x="468" y="281"/>
      <point x="449" y="254"/>
      <point x="401" y="238" type="curve"/>
      <point x="444" y="187" type="line"/>
    </contour>
  </outline>
</glyph>
<glyph name="bGhNa" format="1">
  <advance width="427"/>
  <outline>
    <contour>
      <point x="357" y="45" type="line"/>
      <point x="357" y="467" type="line"/>
      <point x="317" y="467" type="line"/>
      <point x="317" y="114" type="line"/>
      <point x="335" y="110" type="line"/>
      <point x="293" y="208"/>
      <point x="204" y="254"/>
      <point x="99" y="271" type="curve"/>
      <point x="102" y="232" type="line"/>
      <point x="265" y="352" type="line"/>
      <point x="225" y="395" type="line"/>
      <point x="53" y="268" type="line"/>
      <point x="94" y="217" type="line"/>
      <point x="228" y="208"/>
      <point x="316" y="154"/>
      <point x="331" y="45" type="curve"/>
    </contour>
    <contour>
      <point x="357" y="-9" type="line"/>
      <point x="357" y="60" type="line"/>
      <point x="332" y="60" type="line"/>
      <point x="332" y="34" type="line"/>
      <point x="343" y="27" type="line"/>
      <point x="307" y="106"/>
      <point x="249" y="149"/>
      <point x="191" y="149" type="curve" smooth="yes"/>
      <point x="141" y="149"/>
      <point x="104" y="117"/>
      <point x="104" y="76" type="curve" smooth="yes"/>
      <point x="104" y="41"/>
      <point x="131" y="15"/>
      <point x="163" y="15" type="curve" smooth="yes"/>
      <point x="194" y="15"/>
      <point x="217" y="38"/>
      <point x="217" y="66" type="curve" smooth="yes"/>
      <point x="217" y="84"/>
      <point x="208" y="100"/>
      <point x="191" y="111" type="curve"/>
      <point x="185" y="93" type="line"/>
      <point x="193" y="98"/>
      <point x="201" y="101"/>
      <point x="214" y="101" type="curve" smooth="yes"/>
      <point x="265" y="101"/>
      <point x="318" y="60"/>
      <point x="332" y="-9" type="curve"/>
    </contour>
    <contour>
      <point x="164" y="327"/>
      <point x="185" y="331"/>
      <point x="204" y="339" type="curve"/>
      <point x="201" y="377" type="line"/>
      <point x="185" y="365"/>
      <point x="163" y="357"/>
      <point x="144" y="357" type="curve" smooth="yes"/>
      <point x="113" y="357"/>
      <point x="94" y="376"/>
      <point x="94" y="400" type="curve" smooth="yes"/>
      <point x="94" y="429"/>
      <point x="120" y="456"/>
      <point x="164" y="456" type="curve"/>
      <point x="69" y="478" type="line"/>
      <point x="52" y="465"/>
      <point x="39" y="442"/>
      <point x="39" y="417" type="curve" smooth="yes"/>
      <point x="39" y="367"/>
      <point x="91" y="327"/>
      <point x="146" y="327" type="curve" smooth="yes"/>
    </contour>
    <contour>
      <point x="437" y="456" type="line"/>
      <point x="437" y="491" type="line"/>
      <point x="-10" y="491" type="line"/>
      <point x="-10" y="456" type="line"/>
    </contour>
  </outline>
</glyph>
<glyph name="bGhRa" format="1">
  <advance width="452"/>
  <outline>
    <contour>
      <point x="382" y="45" type="line"/>
      <point x="382" y="467" type="line"/>
      <point x="342" y="467" type="line"/>
      <point x="342" y="114" type="line"/>
      <point x="360" y="110" type="line"/>
      <point x="318" y="208"/>
      <point x="229" y="254"/>
      <point x="124" y="271" type="curve"/>
      <point x="127" y="232" type="line"/>
      <point x="290" y="352" type="line"/>
      <point x="250" y="395" type="line"/>
      <point x="78" y="268" type="line"/>
      <point x="119" y="217" type="line"/>
      <point x="253" y="208"/>
      <point x="341" y="154"/>
      <point x="356" y="45" type="curve"/>
    </contour>
    <contour>
      <point x="382" y="-5" type="line"/>
      <point x="382" y="133" type="line"/>
      <point x="356" y="133" type="line"/>
      <point x="356" y="29" type="line"/>
      <point x="363" y="32" type="line"/>
      <point x="345" y="86"/>
      <point x="297" y="116"/>
      <point x="239" y="116" type="curve" smooth="yes"/>
      <point x="211" y="116"/>
      <point x="164" y="109"/>
      <point x="136" y="109" type="curve" smooth="yes"/>
      <point x="89" y="109"/>
      <point x="65" y="128"/>
      <point x="65" y="163" type="curve" smooth="yes"/>
      <point x="65" y="178"/>
      <point x="70" y="198"/>
      <point x="76" y="212" type="curve"/>
      <point x="55" y="221" type="line"/>
      <point x="46" y="202"/>
      <point x="40" y="178"/>
      <point x="40" y="158" type="curve" smooth="yes"/>
      <point x="40" y="100"/>
      <point x="89" y="53"/>
      <point x="153" y="53" type="curve" smooth="yes"/>
      <point x="187" y="53"/>
      <point x="262" y="66"/>
      <point x="289" y="66" type="curve" smooth="yes"/>
      <point x="331" y="66"/>
      <point x="353" y="35"/>
      <point x="357" y="-5" type="curve"/>
    </contour>
    <contour>
      <point x="189" y="327"/>
      <point x="210" y="331"/>
      <point x="229" y="339" type="curve"/>
      <point x="226" y="377" type="line"/>
      <point x="210" y="365"/>
      <point x="188" y="357"/>
      <point x="169" y="357" type="curve" smooth="yes"/>
      <point x="138" y="357"/>
      <point x="119" y="376"/>
      <point x="119" y="400" type="curve" smooth="yes"/>
      <point x="119" y="429"/>
      <point x="145" y="456"/>
      <point x="189" y="456" type="curve"/>
      <point x="94" y="478" type="line"/>
      <point x="77" y="465"/>
      <point x="64" y="442"/>
      <point x="64" y="417" type="curve" smooth="yes"/>
      <point x="64" y="367"/>
      <point x="116" y="327"/>
      <point x="171" y="327" type="curve" smooth="yes"/>
    </contour>
    <contour>
      <point x="462" y="456" type="line"/>
      <point x="462" y="491" type="line"/>
      <point x="-10" y="491" type="line"/>
      <point x="-10" y="456" type="line"/>
    </contour>
  </outline>
</glyph>
<glyph name="bGha" format="1">
  <advance width="427"/>
  <outline>
    <contour>
      <point x="357" y="0" type="line"/>
      <point x="357" y="467" type="line"/>
      <point x="317" y="467" type="line"/>
      <point x="317" y="59" type="line"/>
      <point x="337" y="55" type="line"/>
      <point x="293" y="157"/>
      <point x="203" y="222"/>
      <point x="94" y="245" type="curve"/>
      <point x="102" y="204" type="line"/>
      <point x="265" y="342" type="line"/>
      <point x="224" y="387" type="line"/>
      <point x="53" y="240" type="line"/>
      <point x="94" y="189" type="line"/>
      <point x="222" y="178"/>
      <point x="315" y="91"/>
      <point x="332" y="0" type="curve"/>
    </contour>
    <contour>
      <point x="164" y="317"/>
      <point x="185" y="321"/>
      <point x="204" y="329" type="curve"/>
      <point x="201" y="367" type="line"/>
      <point x="185" y="355"/>
      <point x="163" y="347"/>
      <point x="144" y="347" type="curve" smooth="yes"/>
      <point x="112" y="347"/>
      <point x="92" y="369"/>
      <point x="92" y="397" type="curve" smooth="yes"/>
      <point x="92" y="428"/>
      <point x="119" y="456"/>
      <point x="164" y="456" type="curve"/>
      <point x="69" y="478" type="line"/>
      <point x="51" y="464"/>
      <point x="37" y="439"/>
      <point x="37" y="412" type="curve" smooth="yes"/>
      <point x="37" y="359"/>
      <point x="90" y="317"/>
      <point x="146" y="317" type="curve" smooth="yes"/>
    </contour>
    <contour>
      <point x="437" y="456" type="line"/>
      <point x="437" y="491" type="line"/>
      <point x="-10" y="491" type="line"/>
      <point x="-10" y="456" type="line"/>
    </contour>
  </outline>
</glyph>
<glyph name="bHBa" format="1">
  <advance width="416"/>
  <outline>
    <contour>
      <point x="423" y="12" type="line"/>
      <point x="302" y="99"/>
      <point x="251" y="129"/>
      <point x="169" y="156" type="curve"/>
      <point x="171" y="138" type="line"/>
      <point x="279" y="139"/>
      <point x="362" y="201"/>
      <point x="362" y="282" type="curve" smooth="yes"/>
      <point x="362" y="356"/>
      <point x="293" y="421"/>
      <point x="196" y="421" type="curve" smooth="yes"/>
      <point x="118" y="421"/>
      <point x="65" y="380"/>
      <point x="65" y="330" type="curve" smooth="yes"/>
      <point x="65" y="296"/>
      <point x="90" y="269"/>
      <point x="128" y="269" type="curve" smooth="yes"/>
      <point x="173" y="269"/>
      <point x="211" y="306"/>
      <point x="211" y="356" type="curve" smooth="yes"/>
      <point x="211" y="364"/>
      <point x="210" y="377"/>
      <point x="205" y="390" type="curve"/>
      <point x="176" y="359" type="line"/>
      <point x="190" y="368"/>
      <point x="209" y="375"/>
      <point x="236" y="375" type="curve" smooth="yes"/>
      <point x="293" y="375"/>
      <point x="324" y="343"/>
      <point x="324" y="301" type="curve" smooth="yes"/>
      <point x="324" y="240"/>
      <point x="258" y="191"/>
      <point x="154" y="191" type="curve" smooth="yes"/>
      <point x="118" y="191"/>
      <point x="75" y="197"/>
      <point x="41" y="207" type="curve"/>
      <point x="77" y="129" type="line"/>
      <point x="202" y="105"/>
      <point x="273" y="79"/>
      <point x="409" y="-9" type="curve"/>
    </contour>
    <contour>
      <point x="337" y="-152" type="line"/>
      <point x="337" y="60" type="line"/>
      <point x="274" y="96" type="line"/>
      <point x="216" y="72"/>
      <point x="169" y="46"/>
      <point x="104" y="0" type="curve"/>
      <point x="143" y="-51" type="line"/>
      <point x="222" y="-58"/>
      <point x="293" y="-88"/>
      <point x="312" y="-152" type="curve"/>
    </contour>
    <contour>
      <point x="314" y="-110" type="line"/>
      <point x="282" y="-56"/>
      <point x="228" y="-21"/>
      <point x="161" y="-4" type="curve"/>
      <point x="166" y="-26" type="line"/>
      <point x="221" y="15"/>
      <point x="272" y="42"/>
      <point x="318" y="58" type="curve"/>
      <point x="302" y="73" type="line"/>
      <point x="302" y="-111" type="line"/>
    </contour>
    <contour>
      <point x="426" y="456" type="line"/>
      <point x="426" y="491" type="line"/>
      <point x="-10" y="491" type="line"/>
      <point x="-10" y="456" type="line"/>
    </contour>
  </outline>
</glyph>
<glyph name="bHLa" format="1">
  <advance width="436"/>
  <outline>
    <contour>
      <point x="443" y="12" type="line"/>
      <point x="322" y="99"/>
      <point x="271" y="129"/>
      <point x="189" y="156" type="curve"/>
      <point x="191" y="138" type="line"/>
      <point x="299" y="139"/>
      <point x="382" y="201"/>
      <point x="382" y="282" type="curve" smooth="yes"/>
      <point x="382" y="356"/>
      <point x="313" y="421"/>
      <point x="216" y="421" type="curve" smooth="yes"/>
      <point x="138" y="421"/>
      <point x="85" y="380"/>
      <point x="85" y="330" type="curve" smooth="yes"/>
      <point x="85" y="296"/>
      <point x="110" y="269"/>
      <point x="148" y="269" type="curve" smooth="yes"/>
      <point x="193" y="269"/>
      <point x="231" y="306"/>
      <point x="231" y="356" type="curve" smooth="yes"/>
      <point x="231" y="364"/>
      <point x="230" y="377"/>
      <point x="225" y="390" type="curve"/>
      <point x="196" y="359" type="line"/>
      <point x="210" y="368"/>
      <point x="229" y="375"/>
      <point x="256" y="375" type="curve" smooth="yes"/>
      <point x="313" y="375"/>
      <point x="344" y="343"/>
      <point x="344" y="301" type="curve" smooth="yes"/>
      <point x="344" y="240"/>
      <point x="278" y="191"/>
      <point x="174" y="191" type="curve" smooth="yes"/>
      <point x="138" y="191"/>
      <point x="95" y="197"/>
      <point x="61" y="207" type="curve"/>
      <point x="97" y="129" type="line"/>
      <point x="222" y="105"/>
      <point x="293" y="79"/>
      <point x="429" y="-9" type="curve"/>
    </contour>
    <contour>
      <point x="147" y="-140"/>
      <point x="169" y="-119"/>
      <point x="169" y="-93" type="curve" smooth="yes"/>
      <point x="169" y="-70"/>
      <point x="152" y="-52"/>
      <point x="131" y="-52" type="curve" smooth="yes"/>
      <point x="113" y="-52"/>
      <point x="96" y="-66"/>
      <point x="96" y="-86" type="curve" smooth="yes"/>
      <point x="96" y="-101"/>
      <point x="105" y="-115"/>
      <point x="119" y="-119" type="curve"/>
      <point x="138" y="-97" type="line"/>
      <point x="128" y="-106"/>
      <point x="116" y="-110"/>
      <point x="106" y="-110" type="curve" smooth="yes"/>
      <point x="83" y="-110"/>
      <point x="63" y="-92"/>
      <point x="63" y="-64" type="curve" smooth="yes"/>
      <point x="63" y="-32"/>
      <point x="90" y="-5"/>
      <point x="127" y="-5" type="curve" smooth="yes"/>
      <point x="168" y="-5"/>
      <point x="196" y="-36"/>
      <point x="206" y="-82" type="curve"/>
      <point x="223" y="-82" type="line"/>
      <point x="223" y="-40"/>
      <point x="234" y="-11"/>
      <point x="263" y="-11" type="curve" smooth="yes"/>
      <point x="297" y="-11"/>
      <point x="325" y="-54"/>
      <point x="332" y="-131" type="curve"/>
      <point x="357" y="-131" type="line"/>
      <point x="357" y="66" type="line"/>
      <point x="322" y="66" type="line"/>
      <point x="322" y="-53" type="line"/>
      <point x="342" y="-85" type="line"/>
      <point x="324" y="-6"/>
      <point x="282" y="41"/>
      <point x="244" y="41" type="curve" smooth="yes"/>
      <point x="212" y="41"/>
      <point x="187" y="10"/>
      <point x="187" y="-34" type="curve"/>
      <point x="206" y="-43" type="line"/>
      <point x="190" y="10"/>
      <point x="155" y="49"/>
      <point x="108" y="49" type="curve" smooth="yes"/>
      <point x="60" y="49"/>
      <point x="24" y="8"/>
      <point x="24" y="-43" type="curve" smooth="yes"/>
      <point x="24" y="-96"/>
      <point x="64" y="-140"/>
      <point x="113" y="-140" type="curve" smooth="yes"/>
    </contour>
    <contour>
      <point x="446" y="456" type="line"/>
      <point x="446" y="491" type="line"/>
      <point x="-10" y="491" type="line"/>
      <point x="-10" y="456" type="line"/>
    </contour>
  </outline>
</glyph>
<glyph name="bHNa" format="1">
  <advance width="416"/>
  <outline>
    <contour>
      <point x="423" y="12" type="line"/>
      <point x="303" y="98"/>
      <point x="252" y="129"/>
      <point x="169" y="156" type="curve"/>
      <point x="171" y="138" type="line"/>
      <point x="279" y="139"/>
      <point x="362" y="201"/>
      <point x="362" y="282" type="curve" smooth="yes"/>
      <point x="362" y="356"/>
      <point x="293" y="421"/>
      <point x="196" y="421" type="curve" smooth="yes"/>
      <point x="118" y="421"/>
      <point x="65" y="380"/>
      <point x="65" y="330" type="curve" smooth="yes"/>
      <point x="65" y="296"/>
      <point x="90" y="269"/>
      <point x="128" y="269" type="curve" smooth="yes"/>
      <point x="173" y="269"/>
      <point x="211" y="306"/>
      <point x="211" y="356" type="curve" smooth="yes"/>
      <point x="211" y="364"/>
      <point x="210" y="377"/>
      <point x="205" y="390" type="curve"/>
      <point x="176" y="359" type="line"/>
      <point x="190" y="368"/>
      <point x="209" y="375"/>
      <point x="236" y="375" type="curve" smooth="yes"/>
      <point x="293" y="375"/>
      <point x="324" y="343"/>
      <point x="324" y="301" type="curve" smooth="yes"/>
      <point x="324" y="240"/>
      <point x="258" y="191"/>
      <point x="154" y="191" type="curve" smooth="yes"/>
      <point x="118" y="191"/>
      <point x="75" y="197"/>
      <point x="41" y="207" type="curve"/>
      <point x="77" y="129" type="line"/>
      <point x="202" y="105"/>
      <point x="273" y="79"/>
      <point x="409" y="-9" type="curve"/>
    </contour>
    <contour>
      <point x="426" y="456" type="line"/>
      <point x="426" y="491" type="line"/>
      <point x="-10" y="491" type="line"/>
      <point x="-10" y="456" type="line"/>
    </contour>
    <contour>
      <point x="302" y="-70" type="line"/>
      <point x="318" y="-72" type="line"/>
      <point x="286" y="13"/>
      <point x="230" y="46"/>
      <point x="173" y="46" type="curve" smooth="yes"/>
      <point x="114" y="46"/>
      <point x="75" y="8"/>
      <point x="75" y="-35" type="curve" smooth="yes"/>
      <point x="75" y="-73"/>
      <point x="104" y="-102"/>
      <point x="140" y="-102" type="curve" smooth="yes"/>
      <point x="174" y="-102"/>
      <point x="199" y="-77"/>
      <point x="199" y="-43" type="curve" smooth="yes"/>
      <point x="199" y="-21"/>
      <point x="188" y="2"/>
      <point x="156" y="11" type="curve"/>
      <point x="141" y="-14" type="line"/>
      <point x="165" y="-5"/>
      <point x="181" y="-3"/>
      <point x="193" y="-3" type="curve" smooth="yes"/>
      <point x="249" y="-3"/>
      <point x="298" y="-43"/>
      <point x="312" y="-130" type="curve"/>
      <point x="337" y="-130" type="line"/>
      <point x="337" y="56" type="line"/>
      <point x="302" y="56" type="line"/>
    </contour>
  </outline>
</glyph>
<glyph name="bHRa" format="1">
  <advance width="446"/>
  <outline>
    <contour>
      <point x="453" y="12" type="line"/>
      <point x="332" y="99"/>
      <point x="281" y="129"/>
      <point x="199" y="156" type="curve"/>
      <point x="201" y="138" type="line"/>
      <point x="309" y="139"/>
      <point x="392" y="201"/>
      <point x="392" y="282" type="curve" smooth="yes"/>
      <point x="392" y="356"/>
      <point x="323" y="421"/>
      <point x="226" y="421" type="curve" smooth="yes"/>
      <point x="148" y="421"/>
      <point x="95" y="380"/>
      <point x="95" y="330" type="curve" smooth="yes"/>
      <point x="95" y="296"/>
      <point x="120" y="269"/>
      <point x="158" y="269" type="curve" smooth="yes"/>
      <point x="203" y="269"/>
      <point x="241" y="306"/>
      <point x="241" y="356" type="curve" smooth="yes"/>
      <point x="241" y="364"/>
      <point x="240" y="377"/>
      <point x="235" y="390" type="curve"/>
      <point x="206" y="359" type="line"/>
      <point x="220" y="368"/>
      <point x="239" y="375"/>
      <point x="266" y="375" type="curve" smooth="yes"/>
      <point x="323" y="375"/>
      <point x="354" y="343"/>
      <point x="354" y="301" type="curve" smooth="yes"/>
      <point x="354" y="240"/>
      <point x="289" y="191"/>
      <point x="183" y="191" type="curve" smooth="yes"/>
      <point x="153" y="191"/>
      <point x="115" y="195"/>
      <point x="85" y="203" type="curve"/>
      <point x="117" y="129" type="line"/>
      <point x="238" y="103"/>
      <point x="307" y="79"/>
      <point x="439" y="-9" type="curve"/>
    </contour>
    <contour>
      <point x="367" y="-110" type="line"/>
      <point x="367" y="68" type="line"/>
      <point x="332" y="68" type="line"/>
      <point x="332" y="-56" type="line"/>
      <point x="347" y="-73" type="line"/>
      <point x="326" y="-14"/>
      <point x="284" y="15"/>
      <point x="228" y="15" type="curve" smooth="yes"/>
      <point x="207" y="15"/>
      <point x="151" y="11"/>
      <point x="130" y="11" type="curve" smooth="yes"/>
      <point x="83" y="11"/>
      <point x="56" y="31"/>
      <point x="56" y="79" type="curve" smooth="yes"/>
      <point x="56" y="97"/>
      <point x="60" y="116"/>
      <point x="70" y="138" type="curve"/>
      <point x="50" y="147" type="line"/>
      <point x="38" y="125"/>
      <point x="31" y="97"/>
      <point x="31" y="73" type="curve" smooth="yes"/>
      <point x="31" y="6"/>
      <point x="83" y="-41"/>
      <point x="152" y="-41" type="curve" smooth="yes"/>
      <point x="177" y="-41"/>
      <point x="236" y="-35"/>
      <point x="258" y="-35" type="curve" smooth="yes"/>
      <point x="313" y="-35"/>
      <point x="340" y="-73"/>
      <point x="342" y="-110" type="curve"/>
    </contour>
    <contour>
      <point x="456" y="456" type="line"/>
      <point x="456" y="491" type="line"/>
      <point x="-10" y="491" type="line"/>
      <point x="-10" y="456" type="line"/>
    </contour>
  </outline>
</glyph>
<glyph name="bHa_bSignU" format="1">
  <advance width="426"/>
  <outline>
    <contour>
      <point x="435" y="0" type="line"/>
      <point x="312" y="88"/>
      <point x="261" y="118"/>
      <point x="177" y="146" type="curve"/>
      <point x="181" y="128" type="line"/>
      <point x="285" y="129"/>
      <point x="372" y="188"/>
      <point x="372" y="273" type="curve" smooth="yes"/>
      <point x="372" y="330"/>
      <point x="334" y="364"/>
      <point x="281" y="430" type="curve"/>
      <point x="249" y="399"/>
      <point x="227" y="371"/>
      <point x="212" y="336" type="curve"/>
      <point x="238" y="316" type="line"/>
      <point x="223" y="381"/>
      <point x="183" y="420"/>
      <point x="134" y="420" type="curve" smooth="yes"/>
      <point x="87" y="420"/>
      <point x="49" y="386"/>
      <point x="49" y="335" type="curve" smooth="yes"/>
      <point x="49" y="278"/>
      <point x="97" y="237"/>
      <point x="136" y="237" type="curve" smooth="yes"/>
      <point x="164" y="237"/>
      <point x="185" y="257"/>
      <point x="185" y="281" type="curve" smooth="yes"/>
      <point x="185" y="305"/>
      <point x="166" y="325"/>
      <point x="142" y="325" type="curve" smooth="yes"/>
      <point x="120" y="325"/>
      <point x="101" y="306"/>
      <point x="101" y="283" type="curve"/>
      <point x="120" y="274" type="line"/>
      <point x="100" y="286"/>
      <point x="90" y="301"/>
      <point x="90" y="320" type="curve" smooth="yes"/>
      <point x="90" y="349"/>
      <point x="115" y="374"/>
      <point x="150" y="374" type="curve" smooth="yes"/>
      <point x="191" y="374"/>
      <point x="217" y="339"/>
      <point x="230" y="269" type="curve"/>
      <point x="241" y="269" type="line"/>
      <point x="262" y="320"/>
      <point x="282" y="351"/>
      <point x="312" y="382" type="curve"/>
      <point x="287" y="376" type="line"/>
      <point x="315" y="352"/>
      <point x="334" y="322"/>
      <point x="334" y="290" type="curve" smooth="yes"/>
      <point x="334" y="229"/>
      <point x="268" y="181"/>
      <point x="164" y="181" type="curve" smooth="yes"/>
      <point x="127" y="181"/>
      <point x="82" y="187"/>
      <point x="47" y="197" type="curve"/>
      <point x="81" y="121" type="line"/>
      <point x="208" y="97"/>
      <point x="281" y="71"/>
      <point x="419" y="-19" type="curve"/>
    </contour>
    <contour>
      <point x="436" y="456" type="line"/>
      <point x="436" y="491" type="line"/>
      <point x="-10" y="491" type="line"/>
      <point x="-10" y="456" type="line"/>
    </contour>
  </outline>
</glyph>
<glyph name="bI" format="1">
  <advance width="416"/>
  <outline>
    <contour>
      <point x="425" y="0" type="line"/>
      <point x="302" y="88"/>
      <point x="251" y="119"/>
      <point x="167" y="146" type="curve"/>
      <point x="171" y="128" type="line"/>
      <point x="279" y="129"/>
      <point x="362" y="196"/>
      <point x="362" y="280" type="curve" smooth="yes"/>
      <point x="362" y="357"/>
      <point x="293" y="421"/>
      <point x="196" y="421" type="curve" smooth="yes"/>
      <point x="118" y="421"/>
      <point x="65" y="380"/>
      <point x="65" y="330" type="curve" smooth="yes"/>
      <point x="65" y="296"/>
      <point x="90" y="269"/>
      <point x="128" y="269" type="curve" smooth="yes"/>
      <point x="173" y="269"/>
      <point x="211" y="306"/>
      <point x="211" y="356" type="curve" smooth="yes"/>
      <point x="211" y="364"/>
      <point x="210" y="377"/>
      <point x="205" y="390" type="curve"/>
      <point x="176" y="359" type="line"/>
      <point x="190" y="368"/>
      <point x="209" y="375"/>
      <point x="236" y="375" type="curve" smooth="yes"/>
      <point x="293" y="375"/>
      <point x="324" y="344"/>
      <point x="324" y="300" type="curve" smooth="yes"/>
      <point x="324" y="235"/>
      <point x="258" y="181"/>
      <point x="152" y="181" type="curve" smooth="yes"/>
      <point x="117" y="181"/>
      <point x="69" y="187"/>
      <point x="38" y="196" type="curve"/>
      <point x="71" y="121" type="line"/>
      <point x="198" y="96"/>
      <point x="271" y="71"/>
      <point x="409" y="-19" type="curve"/>
    </contour>
    <contour>
      <point x="426" y="456" type="line"/>
      <point x="426" y="491" type="line"/>
      <point x="-10" y="491" type="line"/>
      <point x="-10" y="456" type="line"/>
    </contour>
    <contour>
      <point x="340" y="564"/>
      <point x="301" y="616"/>
      <point x="222" y="616" type="curve" smooth="yes"/>
      <point x="184" y="616"/>
      <point x="116" y="604"/>
      <point x="80" y="604" type="curve" smooth="yes"/>
      <point x="38" y="604"/>
      <point x="19" y="620"/>
      <point x="19" y="644" type="curve" smooth="yes"/>
      <point x="19" y="662"/>
      <point x="30" y="683"/>
      <point x="44" y="700" type="curve"/>
      <point x="25" y="714" type="line"/>
      <point x="6" y="694"/>
      <point x="-9" y="668"/>
      <point x="-9" y="638" type="curve" smooth="yes"/>
      <point x="-9" y="588"/>
      <point x="33" y="553"/>
      <point x="97" y="553" type="curve" smooth="yes"/>
      <point x="133" y="553"/>
      <point x="217" y="564"/>
      <point x="253" y="564" type="curve" smooth="yes"/>
      <point x="296" y="564"/>
      <point x="312" y="548"/>
      <point x="312" y="520" type="curve" smooth="yes"/>
      <point x="312" y="508"/>
      <point x="309" y="497"/>
      <point x="302" y="486" type="curve"/>
      <point x="346" y="485" type="line"/>
    </contour>
  </outline>
</glyph>
<glyph name="bIi" format="1">
  <advance width="455"/>
  <outline>
    <contour>
      <point x="392" y="-14" type="line"/>
      <point x="371" y="60"/>
      <point x="364" y="120"/>
      <point x="364" y="165" type="curve" smooth="yes"/>
      <point x="364" y="261"/>
      <point x="396" y="323"/>
      <point x="441" y="362" type="curve"/>
      <point x="402" y="411" type="line"/>
      <point x="335" y="383"/>
      <point x="276" y="337"/>
      <point x="232" y="282" type="curve"/>
      <point x="241" y="271" type="line"/>
      <point x="244" y="282"/>
      <point x="246" y="293"/>
      <point x="246" y="305" type="curve" smooth="yes"/>
      <point x="246" y="375"/>
      <point x="188" y="424"/>
      <point x="122" y="424" type="curve" smooth="yes"/>
      <point x="64" y="424"/>
      <point x="28" y="387"/>
      <point x="28" y="346" type="curve" smooth="yes"/>
      <point x="28" y="310"/>
      <point x="56" y="282"/>
      <point x="89" y="282" type="curve" smooth="yes"/>
      <point x="120" y="282"/>
      <point x="147" y="306"/>
      <point x="147" y="339" type="curve" smooth="yes"/>
      <point x="147" y="353"/>
      <point x="142" y="366"/>
      <point x="131" y="378" type="curve"/>
      <point x="111" y="351" type="line"/>
      <point x="123" y="358"/>
      <point x="139" y="363"/>
      <point x="156" y="363" type="curve" smooth="yes"/>
      <point x="194" y="363"/>
      <point x="216" y="337"/>
      <point x="216" y="303" type="curve" smooth="yes"/>
      <point x="216" y="249"/>
      <point x="160" y="170"/>
      <point x="113" y="170" type="curve" smooth="yes"/>
      <point x="90" y="170"/>
      <point x="79" y="188"/>
      <point x="70" y="222" type="curve"/>
      <point x="46" y="215" type="line"/>
      <point x="59" y="147"/>
      <point x="89" y="109"/>
      <point x="129" y="109" type="curve" smooth="yes"/>
      <point x="168" y="109"/>
      <point x="199" y="143"/>
      <point x="240" y="202" type="curve" smooth="yes"/>
      <point x="307" y="292"/>
      <point x="320" y="301"/>
      <point x="377" y="340" type="curve"/>
      <point x="367" y="351" type="line"/>
      <point x="332" y="296"/>
      <point x="321" y="245"/>
      <point x="321" y="191" type="curve" smooth="yes"/>
      <point x="321" y="129"/>
      <point x="336" y="62"/>
      <point x="366" y="-22" type="curve"/>
    </contour>
    <contour>
      <point x="465" y="456" type="line"/>
      <point x="465" y="491" type="line"/>
      <point x="-10" y="491" type="line"/>
      <point x="-10" y="456" type="line"/>
    </contour>
    <contour>
      <point x="370" y="560"/>
      <point x="335" y="616"/>
      <point x="251" y="616" type="curve" smooth="yes"/>
      <point x="212" y="616"/>
      <point x="138" y="604"/>
      <point x="100" y="604" type="curve" smooth="yes"/>
      <point x="56" y="604"/>
      <point x="39" y="621"/>
      <point x="39" y="643" type="curve" smooth="yes"/>
      <point x="39" y="661"/>
      <point x="50" y="684"/>
      <point x="64" y="700" type="curve"/>
      <point x="45" y="714" type="line"/>
      <point x="26" y="694"/>
      <point x="11" y="668"/>
      <point x="11" y="638" type="curve" smooth="yes"/>
      <point x="11" y="588"/>
      <point x="53" y="553"/>
      <point x="118" y="553" type="curve" smooth="yes"/>
      <point x="154" y="553"/>
      <point x="246" y="564"/>
      <point x="282" y="564" type="curve" smooth="yes"/>
      <point x="326" y="564"/>
      <point x="342" y="548"/>
      <point x="342" y="520" type="curve" smooth="yes"/>
      <point x="342" y="508"/>
      <point x="339" y="497"/>
      <point x="332" y="486" type="curve"/>
      <point x="376" y="485" type="line"/>
    </contour>
  </outline>
</glyph>
<glyph name="bJBa" format="1">
  <advance width="547"/>
  <outline>
    <contour>
      <point x="476" y="-81" type="line"/>
      <point x="458" y="5"/>
      <point x="449" y="92"/>
      <point x="449" y="152" type="curve" smooth="yes"/>
      <point x="449" y="227"/>
      <point x="463" y="283"/>
      <point x="516" y="350" type="curve"/>
      <point x="459" y="411" type="line"/>
      <point x="433" y="397"/>
      <point x="403" y="390"/>
      <point x="376" y="390" type="curve" smooth="yes"/>
      <point x="329" y="390"/>
      <point x="291" y="411"/>
      <point x="250" y="474" type="curve"/>
      <point x="228" y="470" type="line"/>
      <point x="169" y="431"/>
      <point x="128" y="377"/>
      <point x="128" y="330" type="curve" smooth="yes"/>
      <point x="128" y="285"/>
      <point x="166" y="221"/>
      <point x="222" y="221" type="curve" smooth="yes"/>
      <point x="257" y="221"/>
      <point x="305" y="246"/>
      <point x="342" y="280" type="curve"/>
      <point x="301" y="289" type="line"/>
      <point x="319" y="276"/>
      <point x="337" y="248"/>
      <point x="337" y="220" type="curve" smooth="yes"/>
      <point x="337" y="175"/>
      <point x="291" y="146"/>
      <point x="237" y="146" type="curve" smooth="yes"/>
      <point x="131" y="146"/>
      <point x="67" y="255"/>
      <point x="39" y="411" type="curve"/>
      <point x="14" y="407" type="line"/>
      <point x="49" y="200"/>
      <point x="142" y="87"/>
      <point x="251" y="87" type="curve" smooth="yes"/>
      <point x="325" y="87"/>
      <point x="371" y="140"/>
      <point x="371" y="201" type="curve" smooth="yes"/>
      <point x="371" y="253"/>
      <point x="338" y="301"/>
      <point x="306" y="327" type="curve"/>
      <point x="266" y="292"/>
      <point x="226" y="270"/>
      <point x="200" y="270" type="curve" smooth="yes"/>
      <point x="179" y="270"/>
      <point x="167" y="283"/>
      <point x="167" y="303" type="curve" smooth="yes"/>
      <point x="167" y="326"/>
      <point x="183" y="363"/>
      <point x="268" y="429" type="curve"/>
      <point x="235" y="445" type="line"/>
      <point x="286" y="374"/>
      <point x="332" y="340"/>
      <point x="401" y="340" type="curve" smooth="yes"/>
      <point x="430" y="340"/>
      <point x="453" y="346"/>
      <point x="479" y="359" type="curve"/>
      <point x="461" y="372" type="line"/>
      <point x="431" y="331"/>
      <point x="412" y="269"/>
      <point x="412" y="183" type="curve" smooth="yes"/>
      <point x="412" y="117"/>
      <point x="423" y="24"/>
      <point x="450" y="-86" type="curve"/>
    </contour>
    <contour>
      <point x="463" y="-73" type="line"/>
      <point x="433" y="-24"/>
      <point x="383" y="7"/>
      <point x="322" y="23" type="curve"/>
      <point x="327" y="3" type="line"/>
      <point x="369" y="37"/>
      <point x="408" y="61"/>
      <point x="444" y="78" type="curve"/>
      <point x="423" y="129" type="line"/>
      <point x="371" y="101"/>
      <point x="327" y="74"/>
      <point x="265" y="27" type="curve"/>
      <point x="304" y="-22" type="line"/>
      <point x="364" y="-27"/>
      <point x="420" y="-37"/>
      <point x="450" y="-86" type="curve"/>
    </contour>
    <contour>
      <point x="557" y="456" type="line"/>
      <point x="557" y="491" type="line"/>
      <point x="-10" y="491" type="line"/>
      <point x="-10" y="456" type="line"/>
    </contour>
  </outline>
</glyph>
<glyph name="bJJBa" format="1">
  <advance width="782"/>
  <outline>
    <contour>
      <point x="710" y="-133" type="line"/>
      <point x="692" y="-47"/>
      <point x="683" y="41"/>
      <point x="683" y="99" type="curve" smooth="yes"/>
      <point x="683" y="177"/>
      <point x="699" y="238"/>
      <point x="751" y="301" type="curve"/>
      <point x="694" y="362" type="line"/>
      <point x="670" y="348"/>
      <point x="642" y="341"/>
      <point x="613" y="341" type="curve" smooth="yes"/>
      <point x="562" y="341"/>
      <point x="528" y="364"/>
      <point x="468" y="430" type="curve"/>
      <point x="415" y="373"/>
      <point x="376" y="331"/>
      <point x="376" y="283" type="curve" smooth="yes"/>
      <point x="376" y="239"/>
      <point x="410" y="177"/>
      <point x="464" y="177" type="curve" smooth="yes"/>
      <point x="496" y="177"/>
      <point x="545" y="198"/>
      <point x="582" y="227" type="curve"/>
      <point x="541" y="236" type="line"/>
      <point x="560" y="223"/>
      <point x="577" y="197"/>
      <point x="577" y="171" type="curve" smooth="yes"/>
      <point x="577" y="128"/>
      <point x="534" y="99"/>
      <point x="482" y="99" type="curve" smooth="yes"/>
      <point x="412" y="99"/>
      <point x="360" y="152"/>
      <point x="323" y="238" type="curve"/>
      <point x="304" y="221" type="line"/>
      <point x="353" y="97"/>
      <point x="422" y="40"/>
      <point x="497" y="40" type="curve" smooth="yes"/>
      <point x="568" y="40"/>
      <point x="609" y="91"/>
      <point x="609" y="150" type="curve" smooth="yes"/>
      <point x="609" y="199"/>
      <point x="581" y="245"/>
      <point x="546" y="274" type="curve"/>
      <point x="506" y="244"/>
      <point x="465" y="226"/>
      <point x="442" y="226" type="curve" smooth="yes"/>
      <point x="423" y="226"/>
      <point x="415" y="238"/>
      <point x="415" y="256" type="curve" smooth="yes"/>
      <point x="415" y="280"/>
      <point x="430" y="316"/>
      <point x="508" y="384" type="curve"/>
      <point x="459" y="397" type="line"/>
      <point x="523" y="325"/>
      <point x="570" y="291"/>
      <point x="639" y="291" type="curve" smooth="yes"/>
      <point x="668" y="291"/>
      <point x="690" y="297"/>
      <point x="714" y="310" type="curve"/>
      <point x="696" y="323" type="line"/>
      <point x="664" y="279"/>
      <point x="646" y="219"/>
      <point x="646" y="132" type="curve" smooth="yes"/>
      <point x="646" y="64"/>
      <point x="657" y="-28"/>
      <point x="684" y="-138" type="curve"/>
    </contour>
    <contour>
      <point x="289" y="112"/>
      <point x="334" y="163"/>
      <point x="334" y="221" type="curve" smooth="yes"/>
      <point x="334" y="266"/>
      <point x="306" y="313"/>
      <point x="266" y="343" type="curve"/>
      <point x="230" y="313"/>
      <point x="194" y="295"/>
      <point x="170" y="295" type="curve" smooth="yes"/>
      <point x="154" y="295"/>
      <point x="147" y="303"/>
      <point x="147" y="319" type="curve" smooth="yes"/>
      <point x="147" y="344"/>
      <point x="163" y="377"/>
      <point x="238" y="439" type="curve"/>
      <point x="205" y="455" type="line"/>
      <point x="260" y="378"/>
      <point x="319" y="343"/>
      <point x="381" y="343" type="curve" smooth="yes"/>
      <point x="426" y="343"/>
      <point x="468" y="362"/>
      <point x="500" y="393" type="curve"/>
      <point x="468" y="430" type="line"/>
      <point x="428" y="398"/>
      <point x="390" y="391"/>
      <point x="361" y="391" type="curve" smooth="yes"/>
      <point x="314" y="391"/>
      <point x="274" y="409"/>
      <point x="230" y="474" type="curve"/>
      <point x="188" y="470" type="line"/>
      <point x="140" y="435"/>
      <point x="108" y="387"/>
      <point x="108" y="346" type="curve" smooth="yes"/>
      <point x="108" y="304"/>
      <point x="142" y="246"/>
      <point x="192" y="246" type="curve" smooth="yes"/>
      <point x="221" y="246"/>
      <point x="266" y="265"/>
      <point x="302" y="296" type="curve"/>
      <point x="261" y="305" type="line"/>
      <point x="283" y="292"/>
      <point x="300" y="270"/>
      <point x="300" y="243" type="curve" smooth="yes"/>
      <point x="300" y="202"/>
      <point x="257" y="171"/>
      <point x="207" y="171" type="curve" smooth="yes"/>
      <point x="116" y="171"/>
      <point x="62" y="272"/>
      <point x="39" y="411" type="curve"/>
      <point x="14" y="407" type="line"/>
      <point x="46" y="206"/>
      <point x="130" y="112"/>
      <point x="222" y="112" type="curve" smooth="yes"/>
    </contour>
    <contour>
      <point x="697" y="-125" type="line"/>
      <point x="667" y="-76"/>
      <point x="617" y="-45"/>
      <point x="556" y="-29" type="curve"/>
      <point x="561" y="-49" type="line"/>
      <point x="603" y="-15"/>
      <point x="642" y="9"/>
      <point x="678" y="26" type="curve"/>
      <point x="657" y="77" type="line"/>
      <point x="605" y="49"/>
      <point x="561" y="22"/>
      <point x="499" y="-25" type="curve"/>
      <point x="538" y="-74" type="line"/>
      <point x="598" y="-79"/>
      <point x="654" y="-89"/>
      <point x="684" y="-138" type="curve"/>
    </contour>
    <contour>
      <point x="792" y="456" type="line"/>
      <point x="792" y="491" type="line"/>
      <point x="-10" y="491" type="line"/>
      <point x="-10" y="456" type="line"/>
    </contour>
  </outline>
</glyph>
<glyph name="bJJa" format="1">
  <advance width="782"/>
  <outline>
    <contour>
      <point x="690" y="5" type="line"/>
      <point x="684" y="48"/>
      <point x="681" y="91"/>
      <point x="681" y="122" type="curve" smooth="yes"/>
      <point x="681" y="193"/>
      <point x="697" y="244"/>
      <point x="751" y="301" type="curve"/>
      <point x="694" y="362" type="line"/>
      <point x="670" y="348"/>
      <point x="642" y="341"/>
      <point x="613" y="341" type="curve" smooth="yes"/>
      <point x="562" y="341"/>
      <point x="528" y="364"/>
      <point x="468" y="430" type="curve"/>
      <point x="415" y="373"/>
      <point x="376" y="331"/>
      <point x="376" y="283" type="curve" smooth="yes"/>
      <point x="376" y="239"/>
      <point x="410" y="177"/>
      <point x="464" y="177" type="curve" smooth="yes"/>
      <point x="496" y="177"/>
      <point x="545" y="198"/>
      <point x="582" y="227" type="curve"/>
      <point x="541" y="236" type="line"/>
      <point x="560" y="223"/>
      <point x="577" y="197"/>
      <point x="577" y="171" type="curve" smooth="yes"/>
      <point x="577" y="129"/>
      <point x="533" y="99"/>
      <point x="481" y="99" type="curve" smooth="yes"/>
      <point x="414" y="99"/>
      <point x="361" y="149"/>
      <point x="323" y="238" type="curve"/>
      <point x="304" y="221" type="line"/>
      <point x="352" y="98"/>
      <point x="421" y="40"/>
      <point x="496" y="40" type="curve" smooth="yes"/>
      <point x="567" y="40"/>
      <point x="609" y="91"/>
      <point x="609" y="151" type="curve" smooth="yes"/>
      <point x="609" y="200"/>
      <point x="581" y="245"/>
      <point x="546" y="274" type="curve"/>
      <point x="506" y="244"/>
      <point x="465" y="226"/>
      <point x="442" y="226" type="curve" smooth="yes"/>
      <point x="423" y="226"/>
      <point x="415" y="238"/>
      <point x="415" y="256" type="curve" smooth="yes"/>
      <point x="415" y="280"/>
      <point x="430" y="316"/>
      <point x="508" y="384" type="curve"/>
      <point x="459" y="397" type="line"/>
      <point x="523" y="325"/>
      <point x="570" y="291"/>
      <point x="639" y="291" type="curve" smooth="yes"/>
      <point x="668" y="291"/>
      <point x="690" y="297"/>
      <point x="714" y="310" type="curve"/>
      <point x="696" y="323" type="line"/>
      <point x="665" y="284"/>
      <point x="647" y="229"/>
      <point x="647" y="154" type="curve" smooth="yes"/>
      <point x="647" y="114"/>
      <point x="652" y="62"/>
      <point x="664" y="0" type="curve"/>
    </contour>
    <contour>
      <point x="289" y="112"/>
      <point x="334" y="163"/>
      <point x="334" y="221" type="curve" smooth="yes"/>
      <point x="334" y="266"/>
      <point x="306" y="313"/>
      <point x="266" y="343" type="curve"/>
      <point x="230" y="313"/>
      <point x="194" y="295"/>
      <point x="170" y="295" type="curve" smooth="yes"/>
      <point x="154" y="295"/>
      <point x="147" y="303"/>
      <point x="147" y="319" type="curve" smooth="yes"/>
      <point x="147" y="344"/>
      <point x="163" y="377"/>
      <point x="238" y="439" type="curve"/>
      <point x="205" y="455" type="line"/>
      <point x="260" y="378"/>
      <point x="319" y="343"/>
      <point x="381" y="343" type="curve" smooth="yes"/>
      <point x="426" y="343"/>
      <point x="468" y="362"/>
      <point x="500" y="393" type="curve"/>
      <point x="468" y="430" type="line"/>
      <point x="428" y="398"/>
      <point x="390" y="391"/>
      <point x="361" y="391" type="curve" smooth="yes"/>
      <point x="314" y="391"/>
      <point x="274" y="409"/>
      <point x="230" y="474" type="curve"/>
      <point x="188" y="470" type="line"/>
      <point x="140" y="435"/>
      <point x="108" y="387"/>
      <point x="108" y="346" type="curve" smooth="yes"/>
      <point x="108" y="304"/>
      <point x="142" y="246"/>
      <point x="192" y="246" type="curve" smooth="yes"/>
      <point x="221" y="246"/>
      <point x="266" y="265"/>
      <point x="302" y="296" type="curve"/>
      <point x="261" y="305" type="line"/>
      <point x="283" y="292"/>
      <point x="300" y="270"/>
      <point x="300" y="243" type="curve" smooth="yes"/>
      <point x="300" y="202"/>
      <point x="257" y="171"/>
      <point x="207" y="171" type="curve" smooth="yes"/>
      <point x="116" y="171"/>
      <point x="62" y="272"/>
      <point x="39" y="411" type="curve"/>
      <point x="14" y="407" type="line"/>
      <point x="46" y="206"/>
      <point x="130" y="112"/>
      <point x="222" y="112" type="curve" smooth="yes"/>
    </contour>
    <contour>
      <point x="792" y="456" type="line"/>
      <point x="792" y="491" type="line"/>
      <point x="-10" y="491" type="line"/>
      <point x="-10" y="456" type="line"/>
    </contour>
  </outline>
</glyph>
<glyph name="bJNya" format="1">
  <advance width="602"/>
  <outline>
    <contour>
      <point x="324" y="62"/>
      <point x="371" y="125"/>
      <point x="371" y="194" type="curve" smooth="yes"/>
      <point x="371" y="246"/>
      <point x="344" y="291"/>
      <point x="306" y="323" type="curve"/>
      <point x="266" y="287"/>
      <point x="226" y="265"/>
      <point x="200" y="265" type="curve" smooth="yes"/>
      <point x="179" y="265"/>
      <point x="167" y="278"/>
      <point x="167" y="298" type="curve" smooth="yes"/>
      <point x="167" y="322"/>
      <point x="183" y="360"/>
      <point x="268" y="429" type="curve"/>
      <point x="227" y="447" type="line"/>
      <point x="256" y="388"/>
      <point x="280" y="345"/>
      <point x="320" y="280" type="curve"/>
      <point x="352" y="287" type="line"/>
      <point x="305" y="360"/>
      <point x="283" y="401"/>
      <point x="250" y="474" type="curve"/>
      <point x="228" y="470" type="line"/>
      <point x="169" y="430"/>
      <point x="128" y="374"/>
      <point x="128" y="326" type="curve" smooth="yes"/>
      <point x="128" y="280"/>
      <point x="166" y="216"/>
      <point x="222" y="216" type="curve" smooth="yes"/>
      <point x="257" y="216"/>
      <point x="305" y="241"/>
      <point x="342" y="276" type="curve"/>
      <point x="301" y="285" type="line"/>
      <point x="321" y="270"/>
      <point x="337" y="244"/>
      <point x="337" y="213" type="curve" smooth="yes"/>
      <point x="337" y="160"/>
      <point x="290" y="121"/>
      <point x="232" y="121" type="curve" smooth="yes"/>
      <point x="129" y="121"/>
      <point x="66" y="244"/>
      <point x="39" y="411" type="curve"/>
      <point x="14" y="407" type="line"/>
      <point x="50" y="179"/>
      <point x="143" y="62"/>
      <point x="247" y="62" type="curve" smooth="yes"/>
    </contour>
    <contour>
      <point x="532" y="96"/>
      <point x="564" y="137"/>
      <point x="564" y="185" type="curve" smooth="yes"/>
      <point x="564" y="229"/>
      <point x="537" y="263"/>
      <point x="510" y="282" type="curve"/>
      <point x="503" y="222" type="line"/>
      <point x="546" y="253"/>
      <point x="564" y="291"/>
      <point x="564" y="327" type="curve" smooth="yes"/>
      <point x="564" y="382"/>
      <point x="522" y="425"/>
      <point x="478" y="425" type="curve" smooth="yes"/>
      <point x="429" y="425"/>
      <point x="377" y="374"/>
      <point x="328" y="274" type="curve"/>
      <point x="340" y="234" type="line"/>
      <point x="380" y="149"/>
      <point x="433" y="96"/>
      <point x="486" y="96" type="curve" smooth="yes"/>
    </contour>
    <contour>
      <point x="416" y="151"/>
      <point x="371" y="210"/>
      <point x="347" y="288" type="curve"/>
      <point x="349" y="234" type="line"/>
      <point x="394" y="336"/>
      <point x="446" y="376"/>
      <point x="492" y="376" type="curve" smooth="yes"/>
      <point x="518" y="376"/>
      <point x="533" y="364"/>
      <point x="533" y="341" type="curve" smooth="yes"/>
      <point x="533" y="320"/>
      <point x="519" y="294"/>
      <point x="479" y="264" type="curve"/>
      <point x="522" y="273" type="line"/>
      <point x="511" y="293"/>
      <point x="487" y="306"/>
      <point x="465" y="306" type="curve" smooth="yes"/>
      <point x="437" y="306"/>
      <point x="416" y="284"/>
      <point x="416" y="258" type="curve" smooth="yes"/>
      <point x="416" y="230"/>
      <point x="440" y="210"/>
      <point x="468" y="210" type="curve" smooth="yes"/>
      <point x="492" y="210"/>
      <point x="516" y="226"/>
      <point x="530" y="245" type="curve"/>
      <point x="492" y="246" type="line"/>
      <point x="524" y="234"/>
      <point x="533" y="218"/>
      <point x="533" y="202" type="curve" smooth="yes"/>
      <point x="533" y="174"/>
      <point x="507" y="151"/>
      <point x="472" y="151" type="curve" smooth="yes"/>
    </contour>
    <contour>
      <point x="612" y="456" type="line"/>
      <point x="612" y="491" type="line"/>
      <point x="-10" y="491" type="line"/>
      <point x="-10" y="456" type="line"/>
    </contour>
  </outline>
</glyph>
<glyph name="bJRa" format="1">
  <advance width="567"/>
  <outline>
    <contour>
      <point x="494" y="-63" type="line"/>
      <point x="477" y="20"/>
      <point x="468" y="92"/>
      <point x="468" y="153" type="curve" smooth="yes"/>
      <point x="468" y="228"/>
      <point x="482" y="283"/>
      <point x="536" y="350" type="curve"/>
      <point x="479" y="411" type="line"/>
      <point x="453" y="397"/>
      <point x="423" y="390"/>
      <point x="396" y="390" type="curve" smooth="yes"/>
      <point x="349" y="390"/>
      <point x="311" y="411"/>
      <point x="270" y="474" type="curve"/>
      <point x="248" y="470" type="line"/>
      <point x="189" y="431"/>
      <point x="148" y="377"/>
      <point x="148" y="330" type="curve" smooth="yes"/>
      <point x="148" y="285"/>
      <point x="186" y="221"/>
      <point x="242" y="221" type="curve" smooth="yes"/>
      <point x="277" y="221"/>
      <point x="325" y="246"/>
      <point x="362" y="280" type="curve"/>
      <point x="321" y="289" type="line"/>
      <point x="339" y="276"/>
      <point x="357" y="248"/>
      <point x="357" y="220" type="curve" smooth="yes"/>
      <point x="357" y="175"/>
      <point x="311" y="146"/>
      <point x="257" y="146" type="curve" smooth="yes"/>
      <point x="151" y="146"/>
      <point x="87" y="255"/>
      <point x="59" y="411" type="curve"/>
      <point x="34" y="407" type="line"/>
      <point x="69" y="200"/>
      <point x="162" y="87"/>
      <point x="271" y="87" type="curve" smooth="yes"/>
      <point x="345" y="87"/>
      <point x="391" y="140"/>
      <point x="391" y="201" type="curve" smooth="yes"/>
      <point x="391" y="253"/>
      <point x="358" y="301"/>
      <point x="326" y="327" type="curve"/>
      <point x="286" y="292"/>
      <point x="246" y="270"/>
      <point x="220" y="270" type="curve" smooth="yes"/>
      <point x="199" y="270"/>
      <point x="187" y="283"/>
      <point x="187" y="303" type="curve" smooth="yes"/>
      <point x="187" y="326"/>
      <point x="203" y="363"/>
      <point x="288" y="429" type="curve"/>
      <point x="255" y="445" type="line"/>
      <point x="306" y="374"/>
      <point x="352" y="340"/>
      <point x="421" y="340" type="curve" smooth="yes"/>
      <point x="450" y="340"/>
      <point x="473" y="346"/>
      <point x="499" y="359" type="curve"/>
      <point x="481" y="372" type="line"/>
      <point x="452" y="331"/>
      <point x="434" y="268"/>
      <point x="434" y="180" type="curve" smooth="yes"/>
      <point x="434" y="125"/>
      <point x="441" y="53"/>
      <point x="461" y="-31" type="curve"/>
      <point x="470" y="-34" type="line"/>
      <point x="452" y="17"/>
      <point x="406" y="50"/>
      <point x="335" y="50" type="curve" smooth="yes"/>
      <point x="301" y="50"/>
      <point x="201" y="42"/>
      <point x="163" y="42" type="curve" smooth="yes"/>
      <point x="105" y="42"/>
      <point x="76" y="61"/>
      <point x="76" y="101" type="curve" smooth="yes"/>
      <point x="76" y="117"/>
      <point x="81" y="134"/>
      <point x="88" y="152" type="curve"/>
      <point x="67" y="161" type="line"/>
      <point x="57" y="140"/>
      <point x="51" y="117"/>
      <point x="51" y="96" type="curve" smooth="yes"/>
      <point x="51" y="34"/>
      <point x="104" y="-15"/>
      <point x="184" y="-15" type="curve" smooth="yes"/>
      <point x="228" y="-15"/>
      <point x="349" y="0"/>
      <point x="384" y="0" type="curve" smooth="yes"/>
      <point x="437" y="0"/>
      <point x="460" y="-33"/>
      <point x="468" y="-68" type="curve"/>
    </contour>
    <contour>
      <point x="577" y="456" type="line"/>
      <point x="577" y="491" type="line"/>
      <point x="-10" y="491" type="line"/>
      <point x="-10" y="456" type="line"/>
    </contour>
  </outline>
</glyph>
<glyph name="bJhRa" format="1">
  <advance width="563"/>
  <outline>
    <contour>
      <point x="374" y="45" type="line"/>
      <point x="374" y="466" type="line"/>
      <point x="334" y="466" type="line"/>
      <point x="334" y="117" type="line"/>
      <point x="345" y="121" type="line"/>
      <point x="305" y="214"/>
      <point x="200" y="267"/>
      <point x="111" y="286" type="curve"/>
      <point x="114" y="266" type="line"/>
      <point x="183" y="317"/>
      <point x="270" y="360"/>
      <point x="358" y="384" type="curve"/>
      <point x="352" y="436" type="line"/>
      <point x="265" y="418"/>
      <point x="143" y="362"/>
      <point x="55" y="296" type="curve"/>
      <point x="107" y="227" type="line"/>
      <point x="230" y="213"/>
      <point x="329" y="155"/>
      <point x="348" y="45" type="curve"/>
    </contour>
    <contour>
      <point x="374" y="-5" type="line"/>
      <point x="374" y="133" type="line"/>
      <point x="348" y="133" type="line"/>
      <point x="348" y="29" type="line"/>
      <point x="355" y="32" type="line"/>
      <point x="337" y="86"/>
      <point x="289" y="116"/>
      <point x="231" y="116" type="curve" smooth="yes"/>
      <point x="203" y="116"/>
      <point x="156" y="109"/>
      <point x="128" y="109" type="curve" smooth="yes"/>
      <point x="82" y="109"/>
      <point x="58" y="128"/>
      <point x="58" y="163" type="curve" smooth="yes"/>
      <point x="58" y="178"/>
      <point x="63" y="196"/>
      <point x="70" y="212" type="curve"/>
      <point x="49" y="222" type="line"/>
      <point x="38" y="202"/>
      <point x="32" y="178"/>
      <point x="32" y="158" type="curve" smooth="yes"/>
      <point x="32" y="100"/>
      <point x="81" y="53"/>
      <point x="145" y="53" type="curve" smooth="yes"/>
      <point x="179" y="53"/>
      <point x="254" y="66"/>
      <point x="281" y="66" type="curve" smooth="yes"/>
      <point x="323" y="66"/>
      <point x="345" y="35"/>
      <point x="349" y="-5" type="curve"/>
    </contour>
    <contour>
      <point x="374" y="456" type="line"/>
      <point x="374" y="491" type="line"/>
      <point x="-10" y="491" type="line"/>
      <point x="-10" y="456" type="line"/>
    </contour>
    <contour>
      <point x="493" y="51" type="line"/>
      <point x="493" y="456" type="line"/>
      <point x="573" y="456" type="line"/>
      <point x="573" y="491" type="line"/>
      <point x="453" y="491" type="line"/>
      <point x="453" y="126" type="line"/>
      <point x="465" y="133" type="line"/>
      <point x="447" y="187"/>
      <point x="411" y="229"/>
      <point x="366" y="261" type="curve"/>
      <point x="362" y="214" type="line"/>
      <point x="427" y="181"/>
      <point x="458" y="132"/>
      <point x="468" y="51" type="curve"/>
    </contour>
  </outline>
</glyph>
<glyph name="bKBa" format="1">
  <advance width="537"/>
  <outline>
    <contour>
      <point x="547" y="456" type="line"/>
      <point x="547" y="491" type="line"/>
      <point x="-10" y="491" type="line"/>
      <point x="-10" y="456" type="line"/>
    </contour>
    <contour>
      <point x="223" y="414"/>
      <point x="117" y="370"/>
      <point x="26" y="278" type="curve"/>
      <point x="70" y="228" type="line"/>
      <point x="112" y="228"/>
      <point x="148" y="214"/>
      <point x="171" y="187" type="curve"/>
      <point x="191" y="207" type="line"/>
      <point x="155" y="247"/>
      <point x="120" y="270"/>
      <point x="76" y="276" type="curve"/>
      <point x="83" y="255" type="line"/>
      <point x="157" y="328"/>
      <point x="243" y="363"/>
      <point x="321" y="363" type="curve" smooth="yes"/>
      <point x="419" y="363"/>
      <point x="471" y="309"/>
      <point x="471" y="250" type="curve" smooth="yes"/>
      <point x="471" y="222"/>
      <point x="459" y="200"/>
      <point x="444" y="187" type="curve"/>
      <point x="476" y="188" type="line"/>
      <point x="475" y="218"/>
      <point x="455" y="242"/>
      <point x="425" y="242" type="curve" smooth="yes"/>
      <point x="397" y="242"/>
      <point x="376" y="221"/>
      <point x="376" y="195" type="curve" smooth="yes"/>
      <point x="376" y="167"/>
      <point x="401" y="145"/>
      <point x="429" y="145" type="curve" smooth="yes"/>
      <point x="467" y="145"/>
      <point x="498" y="185"/>
      <point x="498" y="242" type="curve" smooth="yes"/>
      <point x="498" y="329"/>
      <point x="428" y="414"/>
      <point x="309" y="414" type="curve" smooth="yes"/>
    </contour>
    <contour>
      <point x="332" y="-50" type="line"/>
      <point x="332" y="468" type="line"/>
      <point x="292" y="467" type="line"/>
      <point x="292" y="20" type="line"/>
      <point x="305" y="9" type="line"/>
      <point x="278" y="75"/>
      <point x="203" y="130"/>
      <point x="118" y="138" type="curve"/>
      <point x="123" y="112" type="line"/>
      <point x="185" y="179"/>
      <point x="257" y="215"/>
      <point x="322" y="215" type="curve"/>
      <point x="311" y="265" type="line"/>
      <point x="254" y="265"/>
      <point x="161" y="232"/>
      <point x="73" y="137" type="curve"/>
      <point x="114" y="88" type="line"/>
      <point x="210" y="88"/>
      <point x="292" y="37"/>
      <point x="307" y="-50" type="curve"/>
    </contour>
  </outline>
</glyph>
